twenty-first-italic.ufo
<glyph name="exclam" format="2">
  <advance width="333"/>
  <unicode hex="0021"/>
  <outline>
    <component base="period" xOffset="13"/>
    <contour>
      <point x="140" y="182" type="line"/>
      <point x="186" y="344"/>
      <point x="218" y="437"/>
      <point x="266" y="543" type="curve" smooth="yes"/>
      <point x="315" y="647"/>
      <point x="316" y="649"/>
      <point x="316" y="679" type="curve" smooth="yes"/>
      <point x="316" y="714"/>
      <point x="292" y="737"/>
      <point x="256" y="737" type="curve" smooth="yes"/>
      <point x="216" y="737"/>
      <point x="188" y="696"/>
      <point x="183" y="626" type="curve" smooth="yes"/>
      <point x="174" y="494"/>
      <point x="153" y="376"/>
      <point x="104" y="192" type="curve"/>
    </contour>
  </outline>
</glyph>
<glyph name="dollar" format="2">
  <advance width="556"/>
  <unicode hex="0024"/>
  <outline>
    <contour>
      <point x="381" y="647" type="line"/>
      <point x="426" y="638"/>
      <point x="462" y="613"/>
      <point x="462" y="591" type="curve" smooth="yes"/>
      <point x="462" y="582"/>
      <point x="458" y="576"/>
      <point x="445" y="570" type="curve" smooth="yes"/>
      <point x="421" y="558"/>
      <point x="411" y="543"/>
      <point x="411" y="518" type="curve" smooth="yes"/>
      <point x="411" y="487"/>
      <point x="436" y="464"/>
      <point x="469" y="464" type="curve" smooth="yes"/>
      <point x="510" y="464"/>
      <point x="536" y="493"/>
      <point x="536" y="541" type="curve" smooth="yes"/>
      <point x="536" y="615"/>
      <point x="481" y="671"/>
      <point x="392" y="689" type="curve"/>
      <point x="420" y="792" type="line"/>
      <point x="377" y="792" type="line"/>
      <point x="350" y="693" type="line"/>
      <point x="344" y="693" type="line" smooth="yes"/>
      <point x="209" y="693"/>
      <point x="103" y="601"/>
      <point x="103" y="485" type="curve" smooth="yes"/>
      <point x="103" y="407"/>
      <point x="150" y="344"/>
      <point x="234" y="309" type="curve" smooth="yes"/>
      <point x="239" y="307"/>
      <point x="243" y="306"/>
      <point x="246" y="304" type="curve"/>
      <point x="172" y="30" type="line"/>
      <point x="119" y="40"/>
      <point x="73" y="72"/>
      <point x="73" y="100" type="curve" smooth="yes"/>
      <point x="73" y="110"/>
      <point x="77" y="114"/>
      <point x="93" y="118" type="curve" smooth="yes"/>
      <point x="125" y="127"/>
      <point x="142" y="147"/>
      <point x="142" y="175" type="curve" smooth="yes"/>
      <point x="142" y="210"/>
      <point x="116" y="234"/>
      <point x="80" y="234" type="curve" smooth="yes"/>
      <point x="34" y="234"/>
      <point x="3" y="197"/>
      <point x="3" y="143" type="curve" smooth="yes"/>
      <point x="3" y="67"/>
      <point x="67" y="5"/>
      <point x="162" y="-11" type="curve"/>
      <point x="128" y="-135" type="line"/>
      <point x="171" y="-135" type="line"/>
      <point x="204" y="-14" type="line"/>
      <point x="216" y="-14" type="line" smooth="yes"/>
      <point x="255" y="-13"/>
      <point x="282" y="-9"/>
      <point x="313" y="1" type="curve" smooth="yes"/>
      <point x="411" y="34"/>
      <point x="473" y="111"/>
      <point x="473" y="199" type="curve" smooth="yes"/>
      <point x="473" y="281"/>
      <point x="421" y="345"/>
      <point x="324" y="383" type="curve"/>
      <point x="320" y="385"/>
      <point x="316" y="386"/>
      <point x="311" y="388" type="curve"/>
    </contour>
    <contour>
      <point x="273" y="404" type="line"/>
      <point x="214" y="428"/>
      <point x="183" y="469"/>
      <point x="183" y="522" type="curve" smooth="yes"/>
      <point x="183" y="601"/>
      <point x="244" y="651"/>
      <point x="339" y="651" type="curve"/>
    </contour>
    <contour>
      <point x="285" y="289" type="line"/>
      <point x="308" y="279"/>
      <point x="323" y="272"/>
      <point x="329" y="268" type="curve" smooth="yes"/>
      <point x="363" y="247"/>
      <point x="385" y="206"/>
      <point x="385" y="163" type="curve" smooth="yes"/>
      <point x="385" y="106"/>
      <point x="344" y="55"/>
      <point x="282" y="36" type="curve" smooth="yes"/>
      <point x="261" y="30"/>
      <point x="242" y="27"/>
      <point x="215" y="26" type="curve"/>
    </contour>
  </outline>
</glyph>
<glyph name="ampersand" format="2">
  <advance width="852"/>
  <unicode hex="0026"/>
  <outline>
    <contour>
      <point x="773" y="397" type="line"/>
      <point x="513" y="397" type="line"/>
      <point x="507" y="354" type="line"/>
      <point x="515" y="354" type="line" smooth="yes"/>
      <point x="559" y="354"/>
      <point x="588" y="335"/>
      <point x="588" y="305" type="curve" smooth="yes"/>
      <point x="588" y="270"/>
      <point x="546" y="209"/>
      <point x="478" y="146" type="curve"/>
      <point x="439" y="199"/>
      <point x="400" y="298"/>
      <point x="372" y="416" type="curve"/>
      <point x="442" y="436"/>
      <point x="475" y="449"/>
      <point x="506" y="468" type="curve" smooth="yes"/>
      <point x="565" y="504"/>
      <point x="594" y="549"/>
      <point x="594" y="606" type="curve" smooth="yes"/>
      <point x="594" y="684"/>
      <point x="532" y="737"/>
      <point x="442" y="737" type="curve" smooth="yes"/>
      <point x="328" y="737"/>
      <point x="255" y="651"/>
      <point x="255" y="516" type="curve" smooth="yes"/>
      <point x="255" y="489"/>
      <point x="257" y="469"/>
      <point x="263" y="424" type="curve"/>
      <point x="190" y="393"/>
      <point x="149" y="371"/>
      <point x="117" y="346" type="curve" smooth="yes"/>
      <point x="56" y="296"/>
      <point x="24" y="236"/>
      <point x="24" y="170" type="curve" smooth="yes"/>
      <point x="24" y="59"/>
      <point x="103" y="-15"/>
      <point x="222" y="-15" type="curve" smooth="yes"/>
      <point x="288" y="-15"/>
      <point x="352" y="3"/>
      <point x="422" y="43" type="curve"/>
      <point x="462" y="1"/>
      <point x="498" y="-15"/>
      <point x="552" y="-15" type="curve" smooth="yes"/>
      <point x="629" y="-15"/>
      <point x="692" y="29"/>
      <point x="753" y="125" type="curve"/>
      <point x="719" y="146" type="line"/>
      <point x="671" y="76"/>
      <point x="643" y="56"/>
      <point x="598" y="56" type="curve" smooth="yes"/>
      <point x="565" y="56"/>
      <point x="540" y="70"/>
      <point x="507" y="108" type="curve"/>
      <point x="546" y="144"/>
      <point x="571" y="174"/>
      <point x="607" y="224" type="curve" smooth="yes"/>
      <point x="678" y="328"/>
      <point x="702" y="347"/>
      <point x="768" y="354" type="curve"/>
    </contour>
    <contour>
      <point x="364" y="460" type="curve"/>
      <point x="356" y="511"/>
      <point x="354" y="533"/>
      <point x="354" y="565" type="curve" smooth="yes"/>
      <point x="354" y="642"/>
      <point x="389" y="691"/>
      <point x="444" y="691" type="curve" smooth="yes"/>
      <point x="489" y="691"/>
      <point x="523" y="656"/>
      <point x="523" y="609" type="curve" smooth="yes"/>
      <point x="523" y="544"/>
      <point x="466" y="491"/>
    </contour>
    <contour>
      <point x="271" y="379" type="curve"/>
      <point x="299" y="260"/>
      <point x="334" y="172"/>
      <point x="392" y="80" type="curve"/>
      <point x="348" y="53"/>
      <point x="313" y="41"/>
      <point x="274" y="41" type="curve" smooth="yes"/>
      <point x="233" y="41"/>
      <point x="199" y="57"/>
      <point x="176" y="86" type="curve" smooth="yes"/>
      <point x="153" y="117"/>
      <point x="139" y="158"/>
      <point x="139" y="196" type="curve" smooth="yes"/>
      <point x="139" y="243"/>
      <point x="161" y="295"/>
      <point x="195" y="329" type="curve" smooth="yes"/>
      <point x="213" y="347"/>
      <point x="231" y="359"/>
    </contour>
  </outline>
</glyph>
<glyph name="quotesingle" format="2">
  <advance width="278"/>
  <unicode hex="0027"/>
  <outline>
    <contour>
      <point x="114" y="520" type="line"/>
      <point x="134" y="510" type="line"/>
      <point x="248" y="657" type="line" smooth="yes"/>
      <point x="257" y="669"/>
      <point x="262" y="681"/>
      <point x="262" y="691" type="curve" smooth="yes"/>
      <point x="262" y="713"/>
      <point x="240" y="732"/>
      <point x="215" y="732" type="curve" smooth="yes"/>
      <point x="192" y="732"/>
      <point x="180" y="722"/>
      <point x="172" y="695" type="curve" smooth="yes"/>
    </contour>
  </outline>
</glyph>
<glyph name="parenleft" format="2">
  <advance width="333"/>
  <unicode hex="0028"/>
  <outline>
    <contour>
      <point x="389" y="736" type="line"/>
      <point x="187" y="661"/>
      <point x="40" y="440"/>
      <point x="40" y="213" type="curve" smooth="yes"/>
      <point x="40" y="85"/>
      <point x="78" y="-26"/>
      <point x="156" y="-123" type="curve"/>
      <point x="177" y="-108" type="line"/>
      <point x="133" y="-21"/>
      <point x="119" y="34"/>
      <point x="119" y="122" type="curve" smooth="yes"/>
      <point x="119" y="275"/>
      <point x="162" y="444"/>
      <point x="232" y="564" type="curve" smooth="yes"/>
      <point x="271" y="629"/>
      <point x="316" y="670"/>
      <point x="399" y="713" type="curve"/>
    </contour>
  </outline>
</glyph>
<glyph name="parenright" format="2">
  <advance width="333"/>
  <unicode hex="0029"/>
  <outline>
    <contour>
      <point x="-83" y="-123" type="line"/>
      <point x="119" y="-47"/>
      <point x="265" y="173"/>
      <point x="265" y="401" type="curve" smooth="yes"/>
      <point x="265" y="529"/>
      <point x="228" y="639"/>
      <point x="150" y="736" type="curve"/>
      <point x="129" y="721" type="line"/>
      <point x="172" y="635"/>
      <point x="186" y="580"/>
      <point x="186" y="492" type="curve" smooth="yes"/>
      <point x="186" y="339"/>
      <point x="143" y="170"/>
      <point x="73" y="50" type="curve" smooth="yes"/>
      <point x="35" y="-16"/>
      <point x="-9" y="-55"/>
      <point x="-93" y="-100" type="curve"/>
    </contour>
  </outline>
</glyph>
<glyph name="hyphen" format="2">
  <advance width="333"/>
  <unicode hex="002D"/>
  <outline>
    <contour>
      <point x="54" y="278" type="line"/>
      <point x="32" y="195" type="line"/>
      <point x="237" y="195" type="line"/>
      <point x="259" y="278" type="line"/>
    </contour>
  </outline>
</glyph>
<glyph name="period" format="2">
  <advance width="278"/>
  <unicode hex="002E"/>
  <outline>
    <contour>
      <point x="79" y="109" type="curve" smooth="yes"/>
      <point x="45" y="109"/>
      <point x="17" y="81"/>
      <point x="17" y="47" type="curve" smooth="yes"/>
      <point x="17" y="13"/>
      <point x="45" y="-15"/>
      <point x="78" y="-15" type="curve" smooth="yes"/>
      <point x="114" y="-15"/>
      <point x="141" y="12"/>
      <point x="141" y="47" type="curve" smooth="yes"/>
      <point x="141" y="81"/>
      <point x="113" y="109"/>
    </contour>
  </outline>
</glyph>
<glyph name="zero" format="2">
  <advance width="556"/>
  <unicode hex="0030"/>
  <outline>
    <contour>
      <point x="351" y="704" type="curve" smooth="yes"/>
      <point x="285" y="704"/>
      <point x="223" y="674"/>
      <point x="168" y="616" type="curve" smooth="yes"/>
      <point x="85" y="526"/>
      <point x="29" y="372"/>
      <point x="29" y="232" type="curve" smooth="yes"/>
      <point x="29" y="87"/>
      <point x="101" y="-15"/>
      <point x="203" y="-15" type="curve" smooth="yes"/>
      <point x="374" y="-15"/>
      <point x="527" y="207"/>
      <point x="527" y="455" type="curve" smooth="yes"/>
      <point x="527" y="604"/>
      <point x="456" y="704"/>
    </contour>
    <contour>
      <point x="350" y="664" type="curve" smooth="yes"/>
      <point x="402" y="664"/>
      <point x="430" y="618"/>
      <point x="430" y="532" type="curve" smooth="yes"/>
      <point x="430" y="434"/>
      <point x="405" y="307"/>
      <point x="364" y="204" type="curve" smooth="yes"/>
      <point x="316" y="79"/>
      <point x="268" y="25"/>
      <point x="208" y="25" type="curve" smooth="yes"/>
      <point x="154" y="25"/>
      <point x="124" y="73"/>
      <point x="124" y="158" type="curve" smooth="yes"/>
      <point x="124" y="288"/>
      <point x="170" y="462"/>
      <point x="234" y="578" type="curve" smooth="yes"/>
      <point x="265" y="634"/>
      <point x="305" y="664"/>
    </contour>
  </outline>
</glyph>
<glyph name="three" format="2">
  <advance width="556"/>
  <unicode hex="0033"/>
  <outline>
    <contour>
      <point x="340" y="364" type="curve"/>
      <point x="387" y="379"/>
      <point x="406" y="387"/>
      <point x="430" y="403" type="curve" smooth="yes"/>
      <point x="477" y="434"/>
      <point x="506" y="489"/>
      <point x="506" y="545" type="curve" smooth="yes"/>
      <point x="506" y="640"/>
      <point x="430" y="704"/>
      <point x="318" y="704" type="curve" smooth="yes"/>
      <point x="209" y="704"/>
      <point x="117" y="636"/>
      <point x="117" y="554" type="curve" smooth="yes"/>
      <point x="117" y="513"/>
      <point x="142" y="485"/>
      <point x="180" y="485" type="curve" smooth="yes"/>
      <point x="213" y="485"/>
      <point x="237" y="509"/>
      <point x="237" y="542" type="curve" smooth="yes"/>
      <point x="237" y="559"/>
      <point x="232" y="571"/>
      <point x="216" y="587" type="curve"/>
      <point x="206" y="596"/>
      <point x="202" y="603"/>
      <point x="202" y="610" type="curve" smooth="yes"/>
      <point x="202" y="634"/>
      <point x="252" y="659"/>
      <point x="299" y="659" type="curve" smooth="yes"/>
      <point x="366" y="659"/>
      <point x="406" y="622"/>
      <point x="406" y="560" type="curve" smooth="yes"/>
      <point x="406" y="471"/>
      <point x="343" y="387"/>
      <point x="276" y="387" type="curve" smooth="yes"/>
      <point x="273" y="387"/>
      <point x="264" y="388"/>
      <point x="253" y="389" type="curve" smooth="yes"/>
      <point x="224" y="391"/>
      <point x="224" y="391"/>
      <point x="218" y="391" type="curve" smooth="yes"/>
      <point x="196" y="391"/>
      <point x="184" y="381"/>
      <point x="184" y="363" type="curve" smooth="yes"/>
      <point x="184" y="347"/>
      <point x="195" y="337"/>
      <point x="213" y="337" type="curve" smooth="yes"/>
      <point x="218" y="337"/>
      <point x="225" y="338"/>
      <point x="233" y="339" type="curve"/>
      <point x="247" y="342"/>
      <point x="262" y="343"/>
      <point x="271" y="343" type="curve" smooth="yes"/>
      <point x="318" y="343"/>
      <point x="350" y="301"/>
      <point x="350" y="239" type="curve" smooth="yes"/>
      <point x="350" y="191"/>
      <point x="339" y="145"/>
      <point x="317" y="107" type="curve" smooth="yes"/>
      <point x="287" y="53"/>
      <point x="241" y="27"/>
      <point x="176" y="27" type="curve" smooth="yes"/>
      <point x="120" y="27"/>
      <point x="72" y="55"/>
      <point x="72" y="87" type="curve" smooth="yes"/>
      <point x="72" y="98"/>
      <point x="76" y="102"/>
      <point x="92" y="109" type="curve" smooth="yes"/>
      <point x="121" y="122"/>
      <point x="133" y="140"/>
      <point x="133" y="167" type="curve" smooth="yes"/>
      <point x="133" y="202"/>
      <point x="105" y="229"/>
      <point x="69" y="229" type="curve" smooth="yes"/>
      <point x="26" y="229"/>
      <point x="-2" y="195"/>
      <point x="-2" y="143" type="curve" smooth="yes"/>
      <point x="-2" y="46"/>
      <point x="72" y="-15"/>
      <point x="192" y="-15" type="curve" smooth="yes"/>
      <point x="343" y="-15"/>
      <point x="458" y="86"/>
      <point x="458" y="220" type="curve" smooth="yes"/>
      <point x="458" y="256"/>
      <point x="447" y="287"/>
      <point x="426" y="312" type="curve" smooth="yes"/>
      <point x="404" y="338"/>
      <point x="384" y="350"/>
    </contour>
  </outline>
</glyph>
<glyph name="five" format="2">
  <advance width="556"/>
  <unicode hex="0035"/>
  <outline>
    <contour>
      <point x="112" y="383" type="line"/>
      <point x="81" y="364"/>
      <point x="72" y="352"/>
      <point x="72" y="332" type="curve" smooth="yes"/>
      <point x="72" y="313"/>
      <point x="88" y="299"/>
      <point x="108" y="299" type="curve" smooth="yes"/>
      <point x="134" y="299"/>
      <point x="149" y="318"/>
      <point x="152" y="355" type="curve"/>
      <point x="183" y="380"/>
      <point x="216" y="391"/>
      <point x="256" y="391" type="curve" smooth="yes"/>
      <point x="330" y="391"/>
      <point x="371" y="345"/>
      <point x="371" y="262" type="curve" smooth="yes"/>
      <point x="371" y="132"/>
      <point x="287" y="26"/>
      <point x="184" y="26" type="curve" smooth="yes"/>
      <point x="125" y="26"/>
      <point x="77" y="54"/>
      <point x="77" y="87" type="curve" smooth="yes"/>
      <point x="77" y="93"/>
      <point x="78" y="95"/>
      <point x="83" y="98" type="curve"/>
      <point x="109" y="110"/>
      <point x="109" y="110"/>
      <point x="116" y="115" type="curve" smooth="yes"/>
      <point x="132" y="127"/>
      <point x="141" y="145"/>
      <point x="141" y="166" type="curve" smooth="yes"/>
      <point x="141" y="198"/>
      <point x="116" y="222"/>
      <point x="81" y="222" type="curve" smooth="yes"/>
      <point x="37" y="222"/>
      <point x="4" y="185"/>
      <point x="4" y="137" type="curve" smooth="yes"/>
      <point x="4" y="49"/>
      <point x="80" y="-15"/>
      <point x="187" y="-15" type="curve" smooth="yes"/>
      <point x="349" y="-15"/>
      <point x="480" y="114"/>
      <point x="480" y="274" type="curve" smooth="yes"/>
      <point x="480" y="375"/>
      <point x="403" y="446"/>
      <point x="294" y="446" type="curve" smooth="yes"/>
      <point x="251" y="446"/>
      <point x="216" y="437"/>
      <point x="168" y="413" type="curve"/>
      <point x="224" y="602" type="line"/>
      <point x="277" y="591"/>
      <point x="319" y="586"/>
      <point x="355" y="586" type="curve" smooth="yes"/>
      <point x="421" y="586"/>
      <point x="480" y="607"/>
      <point x="513" y="642" type="curve"/>
      <point x="530" y="662"/>
      <point x="540" y="679"/>
      <point x="540" y="692" type="curve" smooth="yes"/>
      <point x="540" y="698"/>
      <point x="537" y="704"/>
      <point x="533" y="704" type="curve" smooth="yes"/>
      <point x="530" y="704"/>
      <point x="528" y="703"/>
      <point x="522" y="700" type="curve" smooth="yes"/>
      <point x="489" y="684"/>
      <point x="447" y="675"/>
      <point x="408" y="675" type="curve" smooth="yes"/>
      <point x="348" y="675"/>
      <point x="277" y="685"/>
      <point x="203" y="704" type="curve"/>
    </contour>
  </outline>
</glyph>
<glyph name="six" format="2">
  <advance width="556"/>
  <unicode hex="0036"/>
  <outline>
    <contour>
      <point x="158" y="335" type="curve"/>
      <point x="175" y="423"/>
      <point x="195" y="478"/>
      <point x="233" y="545" type="curve" smooth="yes"/>
      <point x="278" y="624"/>
      <point x="332" y="664"/>
      <point x="392" y="664" type="curve" smooth="yes"/>
      <point x="423" y="664"/>
      <point x="442" y="652"/>
      <point x="442" y="633" type="curve" smooth="yes"/>
      <point x="442" y="626"/>
      <point x="440" y="622"/>
      <point x="433" y="609" type="curve" smooth="yes"/>
      <point x="424" y="592"/>
      <point x="420" y="580"/>
      <point x="420" y="565" type="curve" smooth="yes"/>
      <point x="420" y="533"/>
      <point x="444" y="511"/>
      <point x="478" y="511" type="curve" smooth="yes"/>
      <point x="519" y="511"/>
      <point x="547" y="541"/>
      <point x="547" y="586" type="curve" smooth="yes"/>
      <point x="547" y="654"/>
      <point x="483" y="704"/>
      <point x="394" y="704" type="curve" smooth="yes"/>
      <point x="300" y="704"/>
      <point x="216" y="654"/>
      <point x="148" y="558" type="curve" smooth="yes"/>
      <point x="78" y="459"/>
      <point x="36" y="332"/>
      <point x="36" y="221" type="curve" smooth="yes"/>
      <point x="36" y="74"/>
      <point x="109" y="-15"/>
      <point x="231" y="-15" type="curve" smooth="yes"/>
      <point x="306" y="-15"/>
      <point x="373" y="15"/>
      <point x="421" y="68" type="curve" smooth="yes"/>
      <point x="465" y="118"/>
      <point x="492" y="190"/>
      <point x="492" y="256" type="curve" smooth="yes"/>
      <point x="492" y="358"/>
      <point x="423" y="429"/>
      <point x="323" y="429" type="curve" smooth="yes"/>
      <point x="253" y="429"/>
      <point x="199" y="399"/>
    </contour>
    <contour>
      <point x="291" y="371" type="curve" smooth="yes"/>
      <point x="353" y="371"/>
      <point x="387" y="328"/>
      <point x="387" y="250" type="curve" smooth="yes"/>
      <point x="387" y="123"/>
      <point x="320" y="26"/>
      <point x="231" y="26" type="curve" smooth="yes"/>
      <point x="167" y="26"/>
      <point x="129" y="73"/>
      <point x="129" y="153" type="curve" smooth="yes"/>
      <point x="129" y="278"/>
      <point x="198" y="371"/>
    </contour>
  </outline>
</glyph>
<glyph name="seven" format="2">
  <advance width="556"/>
  <unicode hex="0037"/>
  <outline>
    <contour>
      <point x="561" y="704" type="line"/>
      <point x="508" y="698"/>
      <point x="443" y="694"/>
      <point x="387" y="694" type="curve" smooth="yes"/>
      <point x="359" y="694"/>
      <point x="327" y="695"/>
      <point x="291" y="697" type="curve" smooth="yes"/>
      <point x="258" y="699"/>
      <point x="225" y="701"/>
      <point x="191" y="703" type="curve" smooth="yes"/>
      <point x="166" y="704" type="line"/>
      <point x="69" y="493" type="line"/>
      <point x="106" y="481" type="line"/>
      <point x="130" y="521" type="line" smooth="yes"/>
      <point x="177" y="599"/>
      <point x="199" y="610"/>
      <point x="301" y="609" type="curve" smooth="yes"/>
      <point x="470" y="609" type="line"/>
      <point x="361" y="453" type="line" smooth="yes"/>
      <point x="233" y="273"/>
      <point x="233" y="273"/>
      <point x="184" y="193" type="curve" smooth="yes"/>
      <point x="140" y="122"/>
      <point x="122" y="78"/>
      <point x="122" y="42" type="curve" smooth="yes"/>
      <point x="122" y="7"/>
      <point x="144" y="-15"/>
      <point x="179" y="-15" type="curve" smooth="yes"/>
      <point x="216" y="-15"/>
      <point x="235" y="3"/>
      <point x="248" y="50" type="curve" smooth="yes"/>
      <point x="298" y="238"/>
      <point x="328" y="303"/>
      <point x="467" y="528" type="curve" smooth="yes"/>
      <point x="561" y="674" type="line"/>
    </contour>
  </outline>
</glyph>
<glyph name="eight" format="2">
  <advance width="556"/>
  <unicode hex="0038"/>
  <outline>
    <contour>
      <point x="376" y="370" type="curve"/>
      <point x="422" y="392"/>
      <point x="443" y="404"/>
      <point x="461" y="418" type="curve" smooth="yes"/>
      <point x="504" y="451"/>
      <point x="527" y="497"/>
      <point x="527" y="548" type="curve" smooth="yes"/>
      <point x="527" y="639"/>
      <point x="450" y="704"/>
      <point x="343" y="704" type="curve" smooth="yes"/>
      <point x="214" y="704"/>
      <point x="114" y="611"/>
      <point x="114" y="490" type="curve" smooth="yes"/>
      <point x="114" y="429"/>
      <point x="135" y="390"/>
      <point x="189" y="351" type="curve"/>
      <point x="71" y="306"/>
      <point x="8" y="233"/>
      <point x="8" y="142" type="curve" smooth="yes"/>
      <point x="8" y="45"/>
      <point x="88" y="-15"/>
      <point x="216" y="-15" type="curve" smooth="yes"/>
      <point x="370" y="-15"/>
      <point x="480" y="79"/>
      <point x="480" y="209" type="curve" smooth="yes"/>
      <point x="480" y="246"/>
      <point x="468" y="282"/>
      <point x="446" y="311" type="curve" smooth="yes"/>
      <point x="431" y="331"/>
      <point x="413" y="346"/>
    </contour>
    <contour>
      <point x="333" y="394" type="curve"/>
      <point x="231" y="442"/>
      <point x="194" y="481"/>
      <point x="194" y="538" type="curve" smooth="yes"/>
      <point x="194" y="607"/>
      <point x="256" y="661"/>
      <point x="335" y="661" type="curve" smooth="yes"/>
      <point x="404" y="661"/>
      <point x="452" y="617"/>
      <point x="452" y="554" type="curve" smooth="yes"/>
      <point x="452" y="513"/>
      <point x="433" y="468"/>
      <point x="400" y="436" type="curve" smooth="yes"/>
      <point x="381" y="417"/>
      <point x="366" y="407"/>
    </contour>
    <contour>
      <point x="227" y="324" type="curve"/>
      <point x="275" y="302"/>
      <point x="291" y="294"/>
      <point x="316" y="279" type="curve" smooth="yes"/>
      <point x="366" y="249"/>
      <point x="393" y="209"/>
      <point x="393" y="164" type="curve" smooth="yes"/>
      <point x="393" y="87"/>
      <point x="321" y="29"/>
      <point x="227" y="29" type="curve" smooth="yes"/>
      <point x="142" y="29"/>
      <point x="89" y="77"/>
      <point x="89" y="154" type="curve" smooth="yes"/>
      <point x="89" y="229"/>
      <point x="137" y="288"/>
    </contour>
  </outline>
</glyph>
<glyph name="nine" format="2">
  <advance width="556"/>
  <unicode hex="0039"/>
  <outline>
    <contour>
      <point x="393" y="342" type="curve"/>
      <point x="376" y="263"/>
      <point x="358" y="215"/>
      <point x="329" y="159" type="curve" smooth="yes"/>
      <point x="280" y="68"/>
      <point x="228" y="27"/>
      <point x="158" y="27" type="curve" smooth="yes"/>
      <point x="129" y="27"/>
      <point x="110" y="39"/>
      <point x="110" y="57" type="curve" smooth="yes"/>
      <point x="110" y="64"/>
      <point x="112" y="67"/>
      <point x="120" y="79" type="curve"/>
      <point x="130" y="92"/>
      <point x="135" y="104"/>
      <point x="135" y="118" type="curve" smooth="yes"/>
      <point x="135" y="151"/>
      <point x="109" y="176"/>
      <point x="75" y="176" type="curve" smooth="yes"/>
      <point x="35" y="176"/>
      <point x="7" y="146"/>
      <point x="7" y="102" type="curve" smooth="yes"/>
      <point x="7" y="34"/>
      <point x="71" y="-15"/>
      <point x="160" y="-15" type="curve" smooth="yes"/>
      <point x="240" y="-15"/>
      <point x="314" y="20"/>
      <point x="375" y="90" type="curve" smooth="yes"/>
      <point x="462" y="187"/>
      <point x="519" y="332"/>
      <point x="519" y="455" type="curve" smooth="yes"/>
      <point x="519" y="611"/>
      <point x="444" y="704"/>
      <point x="320" y="704" type="curve" smooth="yes"/>
      <point x="246" y="704"/>
      <point x="177" y="671"/>
      <point x="131" y="614" type="curve" smooth="yes"/>
      <point x="86" y="559"/>
      <point x="60" y="489"/>
      <point x="60" y="424" type="curve" smooth="yes"/>
      <point x="60" y="329"/>
      <point x="133" y="257"/>
      <point x="230" y="257" type="curve" smooth="yes"/>
      <point x="296" y="257"/>
      <point x="347" y="284"/>
    </contour>
    <contour>
      <point x="319" y="662" type="curve" smooth="yes"/>
      <point x="383" y="662"/>
      <point x="424" y="611"/>
      <point x="424" y="531" type="curve" smooth="yes"/>
      <point x="424" y="407"/>
      <point x="356" y="316"/>
      <point x="264" y="316" type="curve" smooth="yes"/>
      <point x="201" y="316"/>
      <point x="166" y="359"/>
      <point x="166" y="434" type="curve" smooth="yes"/>
      <point x="166" y="493"/>
      <point x="180" y="546"/>
      <point x="207" y="591" type="curve" smooth="yes"/>
      <point x="237" y="639"/>
      <point x="273" y="662"/>
    </contour>
  </outline>
</glyph>
<glyph name="less" format="2">
  <advance width="606"/>
  <unicode hex="003C"/>
  <outline>
    <contour>
      <point x="599" y="491" type="line"/>
      <point x="621" y="576" type="line"/>
      <point x="50" y="344" type="line"/>
      <point x="30" y="268" type="line"/>
      <point x="477" y="36" type="line"/>
      <point x="499" y="121" type="line"/>
      <point x="151" y="306" type="line"/>
    </contour>
  </outline>
</glyph>
<glyph name="greater" format="2">
  <advance width="606"/>
  <unicode hex="003E"/>
  <outline>
    <contour>
      <point x="94" y="491" type="line"/>
      <point x="442" y="306" type="line"/>
      <point x="-5" y="121" type="line"/>
      <point x="-28" y="36" type="line"/>
      <point x="543" y="268" type="line"/>
      <point x="563" y="344" type="line"/>
      <point x="117" y="576" type="line"/>
    </contour>
  </outline>
</glyph>
<glyph name="at" format="2">
  <advance width="747"/>
  <unicode hex="0040"/>
  <outline>
    <contour>
      <point x="641" y="188" type="line"/>
      <point x="585" y="89"/>
      <point x="503" y="37"/>
      <point x="401" y="37" type="curve" smooth="yes"/>
      <point x="217" y="37"/>
      <point x="84" y="173"/>
      <point x="84" y="361" type="curve" smooth="yes"/>
      <point x="84" y="549"/>
      <point x="216" y="685"/>
      <point x="399" y="685" type="curve" smooth="yes"/>
      <point x="474" y="685"/>
      <point x="535" y="663"/>
      <point x="587" y="616" type="curve" smooth="yes"/>
      <point x="643" y="567"/>
      <point x="676" y="497"/>
      <point x="676" y="429" type="curve" smooth="yes"/>
      <point x="676" y="372"/>
      <point x="652" y="306"/>
      <point x="616" y="260" type="curve" smooth="yes"/>
      <point x="582" y="218"/>
      <point x="542" y="191"/>
      <point x="513" y="191" type="curve" smooth="yes"/>
      <point x="497" y="191"/>
      <point x="486" y="201"/>
      <point x="486" y="215" type="curve" smooth="yes"/>
      <point x="486" y="223"/>
      <point x="488" y="234"/>
      <point x="490" y="245" type="curve"/>
      <point x="563" y="534" type="line"/>
      <point x="475" y="534" type="line"/>
      <point x="459" y="478" type="line"/>
      <point x="447" y="520"/>
      <point x="419" y="543"/>
      <point x="381" y="543" type="curve" smooth="yes"/>
      <point x="337" y="543"/>
      <point x="283" y="514"/>
      <point x="244" y="471" type="curve" smooth="yes"/>
      <point x="203" y="424"/>
      <point x="180" y="364"/>
      <point x="180" y="302" type="curve" smooth="yes"/>
      <point x="180" y="259"/>
      <point x="191" y="223"/>
      <point x="213" y="198" type="curve" smooth="yes"/>
      <point x="235" y="171"/>
      <point x="272" y="153"/>
      <point x="305" y="153" type="curve" smooth="yes"/>
      <point x="345" y="153"/>
      <point x="374" y="174"/>
      <point x="413" y="232" type="curve"/>
      <point x="412" y="224"/>
      <point x="412" y="220"/>
      <point x="412" y="212" type="curve" smooth="yes"/>
      <point x="412" y="173"/>
      <point x="440" y="147"/>
      <point x="481" y="147" type="curve" smooth="yes"/>
      <point x="521" y="147"/>
      <point x="567" y="165"/>
      <point x="610" y="198" type="curve" smooth="yes"/>
      <point x="683" y="253"/>
      <point x="728" y="343"/>
      <point x="728" y="435" type="curve" smooth="yes"/>
      <point x="728" y="601"/>
      <point x="578" y="736"/>
      <point x="393" y="736" type="curve" smooth="yes"/>
      <point x="185" y="736"/>
      <point x="28" y="572"/>
      <point x="28" y="355" type="curve" smooth="yes"/>
      <point x="28" y="254"/>
      <point x="62" y="167"/>
      <point x="128" y="98" type="curve" smooth="yes"/>
      <point x="197" y="27"/>
      <point x="293" y="-14"/>
      <point x="393" y="-14" type="curve" smooth="yes"/>
      <point x="476" y="-14"/>
      <point x="550" y="14"/>
      <point x="610" y="66" type="curve" smooth="yes"/>
      <point x="653" y="104"/>
      <point x="683" y="144"/>
      <point x="702" y="188" type="curve"/>
    </contour>
    <contour>
      <point x="395" y="502" type="curve" smooth="yes"/>
      <point x="423" y="502"/>
      <point x="440" y="474"/>
      <point x="440" y="430" type="curve" smooth="yes"/>
      <point x="440" y="390"/>
      <point x="425" y="327"/>
      <point x="404" y="280" type="curve" smooth="yes"/>
      <point x="380" y="225"/>
      <point x="349" y="193"/>
      <point x="318" y="193" type="curve" smooth="yes"/>
      <point x="287" y="193"/>
      <point x="270" y="221"/>
      <point x="270" y="270" type="curve" smooth="yes"/>
      <point x="270" y="327"/>
      <point x="295" y="403"/>
      <point x="332" y="460" type="curve" smooth="yes"/>
      <point x="349" y="487"/>
      <point x="372" y="502"/>
    </contour>
  </outline>
</glyph>
<glyph name="B" format="2">
  <advance width="722"/>
  <unicode hex="0042"/>
  <outline>
    <contour>
      <point x="123" y="722" type="line"/>
      <point x="117" y="675" type="line"/>
      <point x="143" y="675" type="line" smooth="yes"/>
      <point x="208" y="675"/>
      <point x="222" y="670"/>
      <point x="222" y="648" type="curve" smooth="yes"/>
      <point x="222" y="640"/>
      <point x="218" y="620"/>
      <point x="213" y="599" type="curve" smooth="yes"/>
      <point x="85" y="123" type="line" smooth="yes"/>
      <point x="72" y="72"/>
      <point x="71" y="70"/>
      <point x="62" y="61" type="curve"/>
      <point x="54" y="52"/>
      <point x="33" y="48"/>
      <point x="-11" y="47" type="curve" smooth="yes"/>
      <point x="-26" y="47" type="line"/>
      <point x="-31" y="0" type="line"/>
      <point x="332" y="0" type="line" smooth="yes"/>
      <point x="405" y="0"/>
      <point x="466" y="9"/>
      <point x="506" y="27" type="curve" smooth="yes"/>
      <point x="583" y="60"/>
      <point x="630" y="128"/>
      <point x="630" y="206" type="curve" smooth="yes"/>
      <point x="630" y="250"/>
      <point x="614" y="285"/>
      <point x="579" y="317" type="curve" smooth="yes"/>
      <point x="554" y="340"/>
      <point x="526" y="355"/>
      <point x="473" y="371" type="curve"/>
      <point x="522" y="380"/>
      <point x="552" y="390"/>
      <point x="585" y="410" type="curve" smooth="yes"/>
      <point x="638" y="442"/>
      <point x="668" y="494"/>
      <point x="668" y="555" type="curve" smooth="yes"/>
      <point x="668" y="613"/>
      <point x="638" y="663"/>
      <point x="587" y="691" type="curve" smooth="yes"/>
      <point x="546" y="713"/>
      <point x="501" y="722"/>
      <point x="424" y="722" type="curve" smooth="yes"/>
    </contour>
    <contour>
      <point x="269" y="394" type="line"/>
      <point x="327" y="607" type="line" smooth="yes"/>
      <point x="344" y="669"/>
      <point x="350" y="674"/>
      <point x="402" y="675" type="curve" smooth="yes"/>
      <point x="431" y="675" type="line" smooth="yes"/>
      <point x="513" y="675"/>
      <point x="549" y="643"/>
      <point x="549" y="570" type="curve" smooth="yes"/>
      <point x="549" y="514"/>
      <point x="525" y="460"/>
      <point x="486" y="430" type="curve" smooth="yes"/>
      <point x="454" y="405"/>
      <point x="411" y="394"/>
      <point x="352" y="394" type="curve" smooth="yes"/>
    </contour>
    <contour>
      <point x="257" y="347" type="line"/>
      <point x="320" y="347" type="line" smooth="yes"/>
      <point x="368" y="347"/>
      <point x="414" y="341"/>
      <point x="436" y="332" type="curve" smooth="yes"/>
      <point x="482" y="313"/>
      <point x="508" y="274"/>
      <point x="508" y="225" type="curve" smooth="yes"/>
      <point x="508" y="173"/>
      <point x="484" y="120"/>
      <point x="446" y="87" type="curve" smooth="yes"/>
      <point x="416" y="61"/>
      <point x="367" y="47"/>
      <point x="307" y="47" type="curve" smooth="yes"/>
      <point x="257" y="47" type="line" smooth="yes"/>
      <point x="202" y="47"/>
      <point x="187" y="53"/>
      <point x="187" y="74" type="curve" smooth="yes"/>
      <point x="187" y="82"/>
      <point x="189" y="94"/>
      <point x="193" y="109" type="curve" smooth="yes"/>
    </contour>
  </outline>
</glyph>
<glyph name="F" format="2">
  <advance width="667"/>
  <unicode hex="0046"/>
  <outline>
    <contour>
      <point x="698" y="722" type="line"/>
      <point x="120" y="722" type="line"/>
      <point x="114" y="675" type="line"/>
      <point x="140" y="675" type="line" smooth="yes"/>
      <point x="205" y="675"/>
      <point x="219" y="670"/>
      <point x="219" y="648" type="curve" smooth="yes"/>
      <point x="219" y="640"/>
      <point x="215" y="620"/>
      <point x="210" y="599" type="curve" smooth="yes"/>
      <point x="82" y="123" type="line" smooth="yes"/>
      <point x="69" y="74"/>
      <point x="68" y="70"/>
      <point x="59" y="61" type="curve" smooth="yes"/>
      <point x="49" y="51"/>
      <point x="28" y="47"/>
      <point x="-24" y="47" type="curve" smooth="yes"/>
      <point x="-29" y="47" type="line"/>
      <point x="-34" y="0" type="line"/>
      <point x="284" y="0" type="line"/>
      <point x="289" y="47" type="line"/>
      <point x="263" y="47" type="line" smooth="yes"/>
      <point x="198" y="47"/>
      <point x="184" y="52"/>
      <point x="184" y="74" type="curve" smooth="yes"/>
      <point x="184" y="82"/>
      <point x="188" y="99"/>
      <point x="194" y="123" type="curve" smooth="yes"/>
      <point x="256" y="354" type="line"/>
      <point x="278" y="354" type="line" smooth="yes"/>
      <point x="353" y="353"/>
      <point x="389" y="324"/>
      <point x="389" y="262" type="curve" smooth="yes"/>
      <point x="389" y="241"/>
      <point x="387" y="226"/>
      <point x="380" y="194" type="curve"/>
      <point x="425" y="186" type="line"/>
      <point x="514" y="520" type="line"/>
      <point x="469" y="526" type="line"/>
      <point x="438" y="435"/>
      <point x="391" y="403"/>
      <point x="291" y="401" type="curve" smooth="yes"/>
      <point x="268" y="401" type="line"/>
      <point x="323" y="606" type="line" smooth="yes"/>
      <point x="339" y="669"/>
      <point x="347" y="674"/>
      <point x="423" y="675" type="curve" smooth="yes"/>
      <point x="475" y="675" type="line" smooth="yes"/>
      <point x="518" y="675"/>
      <point x="552" y="664"/>
      <point x="577" y="642" type="curve" smooth="yes"/>
      <point x="605" y="617"/>
      <point x="614" y="585"/>
      <point x="614" y="516" type="curve" smooth="yes"/>
      <point x="614" y="481" type="line"/>
      <point x="659" y="481" type="line"/>
    </contour>
  </outline>
</glyph>
<glyph name="J" format="2">
  <advance width="611"/>
  <unicode hex="004A"/>
  <unicode hex="0408"/>
  <outline>
    <contour>
      <point x="326" y="675" type="line"/>
      <point x="356" y="675" type="line" smooth="yes"/>
      <point x="421" y="675"/>
      <point x="435" y="670"/>
      <point x="435" y="648" type="curve" smooth="yes"/>
      <point x="435" y="640"/>
      <point x="431" y="623"/>
      <point x="425" y="599" type="curve" smooth="yes"/>
      <point x="323" y="219" type="line" smooth="yes"/>
      <point x="286" y="80"/>
      <point x="241" y="28"/>
      <point x="157" y="28" type="curve" smooth="yes"/>
      <point x="88" y="28"/>
      <point x="35" y="73"/>
      <point x="35" y="132" type="curve" smooth="yes"/>
      <point x="35" y="150"/>
      <point x="46" y="164"/>
      <point x="61" y="164" type="curve" smooth="yes"/>
      <point x="66" y="164"/>
      <point x="71" y="163"/>
      <point x="75" y="161" type="curve"/>
      <point x="95" y="149"/>
      <point x="102" y="147"/>
      <point x="121" y="147" type="curve" smooth="yes"/>
      <point x="160" y="147"/>
      <point x="187" y="175"/>
      <point x="187" y="217" type="curve" smooth="yes"/>
      <point x="187" y="259"/>
      <point x="155" y="288"/>
      <point x="108" y="288" type="curve" smooth="yes"/>
      <point x="40" y="288"/>
      <point x="-13" y="224"/>
      <point x="-13" y="143" type="curve" smooth="yes"/>
      <point x="-13" y="43"/>
      <point x="57" y="-15"/>
      <point x="178" y="-15" type="curve" smooth="yes"/>
      <point x="312" y="-15"/>
      <point x="390" y="50"/>
      <point x="428" y="192" type="curve" smooth="yes"/>
      <point x="537" y="599" type="line" smooth="yes"/>
      <point x="551" y="650"/>
      <point x="551" y="652"/>
      <point x="560" y="661" type="curve"/>
      <point x="568" y="670"/>
      <point x="589" y="674"/>
      <point x="637" y="675" type="curve" smooth="yes"/>
      <point x="641" y="675" type="line"/>
      <point x="646" y="722" type="line"/>
      <point x="332" y="722" type="line"/>
    </contour>
  </outline>
</glyph>
<glyph name="O" format="2">
  <advance width="778"/>
  <unicode hex="004F"/>
  <unicode hex="039F"/>
  <unicode hex="041E"/>
  <outline>
    <contour>
      <point x="457" y="737" type="curve" smooth="yes"/>
      <point x="349" y="737"/>
      <point x="253" y="692"/>
      <point x="168" y="602" type="curve" smooth="yes"/>
      <point x="86" y="514"/>
      <point x="40" y="397"/>
      <point x="40" y="275" type="curve" smooth="yes"/>
      <point x="40" y="97"/>
      <point x="145" y="-15"/>
      <point x="312" y="-15" type="curve" smooth="yes"/>
      <point x="417" y="-15"/>
      <point x="510" y="25"/>
      <point x="590" y="104" type="curve" smooth="yes"/>
      <point x="682" y="196"/>
      <point x="735" y="322"/>
      <point x="735" y="450" type="curve" smooth="yes"/>
      <point x="735" y="537"/>
      <point x="709" y="605"/>
      <point x="656" y="658" type="curve" smooth="yes"/>
      <point x="604" y="709"/>
      <point x="533" y="737"/>
    </contour>
    <contour>
      <point x="460" y="694" type="curve" smooth="yes"/>
      <point x="512" y="694"/>
      <point x="563" y="670"/>
      <point x="584" y="634" type="curve" smooth="yes"/>
      <point x="603" y="604"/>
      <point x="618" y="543"/>
      <point x="618" y="496" type="curve" smooth="yes"/>
      <point x="618" y="393"/>
      <point x="572" y="244"/>
      <point x="510" y="144" type="curve" smooth="yes"/>
      <point x="465" y="71"/>
      <point x="392" y="28"/>
      <point x="314" y="28" type="curve" smooth="yes"/>
      <point x="218" y="28"/>
      <point x="158" y="97"/>
      <point x="158" y="208" type="curve" smooth="yes"/>
      <point x="158" y="328"/>
      <point x="216" y="510"/>
      <point x="281" y="594" type="curve" smooth="yes"/>
      <point x="333" y="662"/>
      <point x="391" y="694"/>
    </contour>
  </outline>
</glyph>
<glyph name="bracketright" format="2">
  <advance width="333"/>
  <unicode hex="005D"/>
  <outline>
    <contour>
      <point x="265" y="690" type="line"/>
      <point x="60" y="-75" type="line"/>
      <point x="-74" y="-75" type="line"/>
      <point x="-83" y="-108" type="line"/>
      <point x="136" y="-108" type="line"/>
      <point x="359" y="722" type="line"/>
      <point x="128" y="722" type="line"/>
      <point x="119" y="690" type="line"/>
    </contour>
  </outline>
</glyph>
<glyph name="underscore" format="2">
  <advance width="500"/>
  <unicode hex="005F"/>
  <outline>
    <contour>
      <point x="-27" y="-73" type="line"/>
      <point x="-27" y="-134" type="line"/>
      <point x="473" y="-134" type="line"/>
      <point x="473" y="-73" type="line"/>
    </contour>
  </outline>
</glyph>
<glyph name="grave" format="2">
  <advance width="333"/>
  <unicode hex="0060"/>
  <outline>
    <contour>
      <point x="351" y="519" type="line"/>
      <point x="238" y="663" type="line" smooth="yes"/>
      <point x="219" y="688"/>
      <point x="215" y="691"/>
      <point x="200" y="691" type="curve" smooth="yes"/>
      <point x="179" y="691"/>
      <point x="161" y="672"/>
      <point x="161" y="652" type="curve" smooth="yes"/>
      <point x="161" y="643"/>
      <point x="167" y="633"/>
      <point x="176" y="626" type="curve" smooth="yes"/>
      <point x="310" y="519" type="line"/>
    </contour>
  </outline>
</glyph>
<glyph name="b" format="2">
  <advance width="556"/>
  <unicode hex="0062"/>
  <outline>
    <contour>
      <point x="290" y="737" type="line"/>
      <point x="98" y="722" type="line"/>
      <point x="94" y="686" type="line"/>
      <point x="118" y="686" type="line" smooth="yes"/>
      <point x="159" y="686"/>
      <point x="175" y="677"/>
      <point x="175" y="654" type="curve" smooth="yes"/>
      <point x="175" y="645"/>
      <point x="173" y="634"/>
      <point x="166" y="611" type="curve" smooth="yes"/>
      <point x="46" y="207" type="line" smooth="yes"/>
      <point x="37" y="175"/>
      <point x="32" y="149"/>
      <point x="32" y="128" type="curve" smooth="yes"/>
      <point x="32" y="41"/>
      <point x="96" y="-15"/>
      <point x="195" y="-15" type="curve" smooth="yes"/>
      <point x="273" y="-15"/>
      <point x="332" y="9"/>
      <point x="387" y="62" type="curve" smooth="yes"/>
      <point x="452" y="125"/>
      <point x="488" y="209"/>
      <point x="488" y="300" type="curve" smooth="yes"/>
      <point x="488" y="403"/>
      <point x="430" y="470"/>
      <point x="341" y="470" type="curve" smooth="yes"/>
      <point x="283" y="470"/>
      <point x="240" y="446"/>
      <point x="184" y="379" type="curve"/>
    </contour>
    <contour>
      <point x="308" y="409" type="curve" smooth="yes"/>
      <point x="359" y="409"/>
      <point x="389" y="370"/>
      <point x="389" y="305" type="curve" smooth="yes"/>
      <point x="389" y="240"/>
      <point x="370" y="172"/>
      <point x="335" y="115" type="curve" smooth="yes"/>
      <point x="297" y="52"/>
      <point x="255" y="23"/>
      <point x="203" y="23" type="curve" smooth="yes"/>
      <point x="149" y="23"/>
      <point x="117" y="59"/>
      <point x="117" y="120" type="curve" smooth="yes"/>
      <point x="117" y="182"/>
      <point x="140" y="260"/>
      <point x="176" y="318" type="curve" smooth="yes"/>
      <point x="214" y="378"/>
      <point x="258" y="409"/>
    </contour>
  </outline>
</glyph>
<glyph name="i" format="2">
  <advance width="333"/>
  <unicode hex="0069"/>
  <unicode hex="0456"/>
  <outline>
    <component base="dotlessi"/>
    <contour>
      <point x="213" y="714" type="curve" smooth="yes"/>
      <point x="183" y="714"/>
      <point x="159" y="690"/>
      <point x="159" y="660" type="curve" smooth="yes"/>
      <point x="159" y="631"/>
      <point x="183" y="606"/>
      <point x="212" y="606" type="curve" smooth="yes"/>
      <point x="243" y="606"/>
      <point x="267" y="630"/>
      <point x="267" y="660" type="curve" smooth="yes"/>
      <point x="267" y="690"/>
      <point x="243" y="714"/>
    </contour>
  </outline>
</glyph>
<glyph name="j" format="2">
  <advance width="315"/>
  <unicode hex="006A"/>
  <unicode hex="0458"/>
  <outline>
    <component base="jdotless"/>
    <contour>
      <point x="263" y="714" type="curve" smooth="yes"/>
      <point x="233" y="714"/>
      <point x="209" y="690"/>
      <point x="209" y="660" type="curve" smooth="yes"/>
      <point x="209" y="631"/>
      <point x="233" y="606"/>
      <point x="262" y="606" type="curve" smooth="yes"/>
      <point x="293" y="606"/>
      <point x="317" y="630"/>
      <point x="317" y="660" type="curve" smooth="yes"/>
      <point x="317" y="690"/>
      <point x="293" y="714"/>
    </contour>
  </outline>
</glyph>
<glyph name="k" format="2">
  <advance width="556"/>
  <unicode hex="006B"/>
  <outline>
    <contour>
      <point x="300" y="737" type="line"/>
      <point x="101" y="722" type="line"/>
      <point x="97" y="686" type="line"/>
      <point x="128" y="686" type="line" smooth="yes"/>
      <point x="169" y="686"/>
      <point x="185" y="677"/>
      <point x="185" y="655" type="curve" smooth="yes"/>
      <point x="185" y="645"/>
      <point x="183" y="634"/>
      <point x="176" y="611" type="curve" smooth="yes"/>
      <point x="-5" y="0" type="line"/>
      <point x="82" y="0" type="line"/>
      <point x="120" y="130" type="line" smooth="yes"/>
      <point x="140" y="197"/>
      <point x="178" y="277"/>
      <point x="210" y="318" type="curve" smooth="yes"/>
      <point x="255" y="374"/>
      <point x="306" y="410"/>
      <point x="344" y="410" type="curve" smooth="yes"/>
      <point x="370" y="410"/>
      <point x="390" y="388"/>
      <point x="390" y="359" type="curve" smooth="yes"/>
      <point x="390" y="318"/>
      <point x="362" y="287"/>
      <point x="293" y="253" type="curve" smooth="yes"/>
      <point x="272" y="242"/>
      <point x="258" y="237"/>
      <point x="252" y="237" type="curve" smooth="yes"/>
      <point x="249" y="237"/>
      <point x="244" y="238"/>
      <point x="238" y="240" type="curve"/>
      <point x="230" y="242"/>
      <point x="219" y="244"/>
      <point x="210" y="244" type="curve" smooth="yes"/>
      <point x="191" y="244"/>
      <point x="180" y="234"/>
      <point x="180" y="217" type="curve" smooth="yes"/>
      <point x="180" y="205"/>
      <point x="190" y="195"/>
      <point x="203" y="195" type="curve" smooth="yes"/>
      <point x="206" y="195"/>
      <point x="210" y="196"/>
      <point x="216" y="197" type="curve" smooth="yes"/>
      <point x="223" y="198"/>
      <point x="233" y="199"/>
      <point x="236" y="199" type="curve" smooth="yes"/>
      <point x="247" y="199"/>
      <point x="252" y="190"/>
      <point x="252" y="173" type="curve" smooth="yes"/>
      <point x="252" y="135" type="line"/>
      <point x="251" y="108"/>
      <point x="251" y="89"/>
      <point x="251" y="84" type="curve" smooth="yes"/>
      <point x="251" y="18"/>
      <point x="275" y="-15"/>
      <point x="325" y="-15" type="curve" smooth="yes"/>
      <point x="380" y="-15"/>
      <point x="429" y="28"/>
      <point x="492" y="134" type="curve"/>
      <point x="461" y="154" type="line"/>
      <point x="404" y="66"/>
      <point x="381" y="41"/>
      <point x="357" y="41" type="curve" smooth="yes"/>
      <point x="343" y="41"/>
      <point x="339" y="50"/>
      <point x="336" y="90" type="curve" smooth="yes"/>
      <point x="331" y="160"/>
      <point x="320" y="186"/>
      <point x="288" y="212" type="curve"/>
      <point x="407" y="254"/>
      <point x="471" y="312"/>
      <point x="471" y="379" type="curve" smooth="yes"/>
      <point x="471" y="430"/>
      <point x="428" y="470"/>
      <point x="373" y="470" type="curve" smooth="yes"/>
      <point x="304" y="470"/>
      <point x="244" y="424"/>
      <point x="176" y="319" type="curve"/>
    </contour>
  </outline>
</glyph>
<glyph name="o" format="2">
  <advance width="500"/>
  <unicode hex="006F"/>
  <outline>
    <contour>
      <point x="273" y="470" type="curve" smooth="yes"/>
      <point x="207" y="470"/>
      <point x="144" y="440"/>
      <point x="89" y="384" type="curve" smooth="yes"/>
      <point x="33" y="327"/>
      <point x="5" y="256"/>
      <point x="5" y="172" type="curve" smooth="yes"/>
      <point x="5" y="57"/>
      <point x="74" y="-15"/>
      <point x="183" y="-15" type="curve" smooth="yes"/>
      <point x="256" y="-15"/>
      <point x="316" y="12"/>
      <point x="365" y="67" type="curve" smooth="yes"/>
      <point x="419" y="127"/>
      <point x="450" y="206"/>
      <point x="450" y="281" type="curve" smooth="yes"/>
      <point x="450" y="385"/>
      <point x="370" y="470"/>
    </contour>
    <contour>
      <point x="268" y="432" type="curve" smooth="yes"/>
      <point x="323" y="432"/>
      <point x="355" y="386"/>
      <point x="355" y="309" type="curve" smooth="yes"/>
      <point x="355" y="257"/>
      <point x="335" y="177"/>
      <point x="308" y="122" type="curve" smooth="yes"/>
      <point x="274" y="53"/>
      <point x="237" y="23"/>
      <point x="184" y="23" type="curve" smooth="yes"/>
      <point x="126" y="23"/>
      <point x="95" y="60"/>
      <point x="95" y="128" type="curve" smooth="yes"/>
      <point x="95" y="212"/>
      <point x="129" y="323"/>
      <point x="170" y="378" type="curve" smooth="yes"/>
      <point x="198" y="414"/>
      <point x="230" y="432"/>
    </contour>
  </outline>
</glyph>
<glyph name="v" format="2">
  <advance width="519"/>
  <unicode hex="0076"/>
  <outline>
    <contour>
      <point x="222" y="470" type="line"/>
      <point x="37" y="455" type="line"/>
      <point x="34" y="419" type="line"/>
      <point x="51" y="419" type="line" smooth="yes"/>
      <point x="90" y="419"/>
      <point x="108" y="410"/>
      <point x="108" y="390" type="curve" smooth="yes"/>
      <point x="108" y="382"/>
      <point x="104" y="362"/>
      <point x="98" y="344" type="curve" smooth="yes"/>
      <point x="64" y="229" type="line" smooth="yes"/>
      <point x="52" y="188"/>
      <point x="45" y="146"/>
      <point x="45" y="115" type="curve" smooth="yes"/>
      <point x="45" y="41"/>
      <point x="100" y="-16"/>
      <point x="173" y="-16" type="curve" smooth="yes"/>
      <point x="242" y="-16"/>
      <point x="304" y="28"/>
      <point x="358" y="114" type="curve" smooth="yes"/>
      <point x="408" y="195"/>
      <point x="445" y="313"/>
      <point x="445" y="391" type="curve" smooth="yes"/>
      <point x="445" y="435"/>
      <point x="418" y="470"/>
      <point x="383" y="470" type="curve" smooth="yes"/>
      <point x="358" y="470"/>
      <point x="338" y="448"/>
      <point x="338" y="420" type="curve" smooth="yes"/>
      <point x="338" y="403"/>
      <point x="343" y="391"/>
      <point x="359" y="373" type="curve" smooth="yes"/>
      <point x="383" y="347"/>
      <point x="387" y="339"/>
      <point x="387" y="317" type="curve" smooth="yes"/>
      <point x="387" y="282"/>
      <point x="369" y="222"/>
      <point x="343" y="168" type="curve" smooth="yes"/>
      <point x="304" y="87"/>
      <point x="248" y="37"/>
      <point x="197" y="37" type="curve" smooth="yes"/>
      <point x="159" y="37"/>
      <point x="131" y="70"/>
      <point x="131" y="114" type="curve" smooth="yes"/>
      <point x="131" y="146"/>
      <point x="138" y="186"/>
      <point x="154" y="239" type="curve" smooth="yes"/>
    </contour>
  </outline>
</glyph>
<glyph name="w" format="2">
  <advance width="778"/>
  <unicode hex="0077"/>
  <outline>
    <contour>
      <point x="225" y="470" type="line"/>
      <point x="40" y="455" type="line"/>
      <point x="36" y="419" type="line"/>
      <point x="53" y="419" type="line" smooth="yes"/>
      <point x="94" y="419"/>
      <point x="109" y="410"/>
      <point x="109" y="387" type="curve" smooth="yes"/>
      <point x="109" y="377"/>
      <point x="106" y="361"/>
      <point x="101" y="344" type="curve" smooth="yes"/>
      <point x="49" y="167" type="line" smooth="yes"/>
      <point x="37" y="127"/>
      <point x="32" y="103"/>
      <point x="32" y="82" type="curve" smooth="yes"/>
      <point x="32" y="23"/>
      <point x="74" y="-15"/>
      <point x="139" y="-15" type="curve" smooth="yes"/>
      <point x="183" y="-15"/>
      <point x="223" y="3"/>
      <point x="257" y="37" type="curve" smooth="yes"/>
      <point x="282" y="62"/>
      <point x="297" y="80"/>
      <point x="333" y="134" type="curve"/>
      <point x="332" y="119"/>
      <point x="331" y="104"/>
      <point x="331" y="93" type="curve" smooth="yes"/>
      <point x="331" y="27"/>
      <point x="373" y="-15"/>
      <point x="439" y="-15" type="curve" smooth="yes"/>
      <point x="507" y="-15"/>
      <point x="560" y="20"/>
      <point x="613" y="102" type="curve" smooth="yes"/>
      <point x="668" y="186"/>
      <point x="708" y="309"/>
      <point x="708" y="391" type="curve" smooth="yes"/>
      <point x="708" y="436"/>
      <point x="681" y="470"/>
      <point x="646" y="470" type="curve" smooth="yes"/>
      <point x="620" y="470"/>
      <point x="600" y="448"/>
      <point x="600" y="420" type="curve" smooth="yes"/>
      <point x="600" y="403"/>
      <point x="605" y="392"/>
      <point x="621" y="374" type="curve" smooth="yes"/>
      <point x="645" y="347"/>
      <point x="649" y="339"/>
      <point x="649" y="318" type="curve" smooth="yes"/>
      <point x="649" y="280"/>
      <point x="630" y="217"/>
      <point x="604" y="166" type="curve" smooth="yes"/>
      <point x="560" y="82"/>
      <point x="512" y="38"/>
      <point x="465" y="38" type="curve" smooth="yes"/>
      <point x="431" y="38"/>
      <point x="410" y="65"/>
      <point x="410" y="110" type="curve" smooth="yes"/>
      <point x="410" y="146"/>
      <point x="416" y="181"/>
      <point x="433" y="239" type="curve" smooth="yes"/>
      <point x="498" y="455" type="line"/>
      <point x="411" y="455" type="line"/>
      <point x="361" y="288" type="line" smooth="yes"/>
      <point x="344" y="227"/>
      <point x="314" y="168"/>
      <point x="274" y="113" type="curve" smooth="yes"/>
      <point x="238" y="62"/>
      <point x="204" y="38"/>
      <point x="170" y="38" type="curve" smooth="yes"/>
      <point x="140" y="38"/>
      <point x="118" y="59"/>
      <point x="118" y="86" type="curve" smooth="yes"/>
      <point x="118" y="108"/>
      <point x="119" y="111"/>
      <point x="138" y="177" type="curve" smooth="yes"/>
    </contour>
  </outline>
</glyph>
<glyph name="bar" format="2">
  <advance width="606"/>
  <unicode hex="007C"/>
  <outline>
    <contour>
      <point x="337" y="722" type="line"/>
      <point x="269" y="722" type="line"/>
      <point x="269" y="-244" type="line"/>
      <point x="337" y="-244" type="line"/>
    </contour>
  </outline>
</glyph>
<glyph name="braceright" format="2">
  <advance width="333"/>
  <unicode hex="007D"/>
  <outline>
    <contour>
      <point x="227" y="321" type="line"/>
      <point x="195" y="330"/>
      <point x="177" y="352"/>
      <point x="177" y="383" type="curve" smooth="yes"/>
      <point x="177" y="402"/>
      <point x="178" y="408"/>
      <point x="190" y="452" type="curve" smooth="yes"/>
      <point x="213" y="540" type="line" smooth="yes"/>
      <point x="226" y="587"/>
      <point x="231" y="615"/>
      <point x="231" y="639" type="curve" smooth="yes"/>
      <point x="231" y="689"/>
      <point x="195" y="722"/>
      <point x="142" y="722" type="curve" smooth="yes"/>
      <point x="121" y="722" type="line"/>
      <point x="113" y="693" type="line"/>
      <point x="144" y="691"/>
      <point x="163" y="669"/>
      <point x="163" y="634" type="curve" smooth="yes"/>
      <point x="163" y="614"/>
      <point x="159" y="588"/>
      <point x="148" y="550" type="curve" smooth="yes"/>
      <point x="118" y="439" type="line" smooth="yes"/>
      <point x="109" y="405"/>
      <point x="106" y="387"/>
      <point x="106" y="372" type="curve" smooth="yes"/>
      <point x="106" y="340"/>
      <point x="121" y="321"/>
      <point x="157" y="307" type="curve"/>
      <point x="98" y="291"/>
      <point x="71" y="260"/>
      <point x="50" y="182" type="curve" smooth="yes"/>
      <point x="15" y="54" type="line" smooth="yes"/>
      <point x="-10" y="-42"/>
      <point x="-36" y="-74"/>
      <point x="-90" y="-79" type="curve"/>
      <point x="-98" y="-108" type="line"/>
      <point x="-90" y="-108" type="line" smooth="yes"/>
      <point x="12" y="-104"/>
      <point x="51" y="-69"/>
      <point x="80" y="42" type="curve" smooth="yes"/>
      <point x="111" y="160" type="line" smooth="yes"/>
      <point x="132" y="247"/>
      <point x="155" y="275"/>
      <point x="219" y="293" type="curve"/>
    </contour>
  </outline>
</glyph>
<glyph name="exclamdown" format="2">
  <advance width="333"/>
  <unicode hex="00A1"/>
  <outline>
    <component base="period" xOffset="140" yOffset="440"/>
    <contour>
      <point x="169" y="351" type="line"/>
      <point x="124" y="190"/>
      <point x="91" y="96"/>
      <point x="43" y="-9" type="curve" smooth="yes"/>
      <point x="-6" y="-113"/>
      <point x="-7" y="-116"/>
      <point x="-7" y="-145" type="curve" smooth="yes"/>
      <point x="-7" y="-180"/>
      <point x="17" y="-203"/>
      <point x="53" y="-203" type="curve" smooth="yes"/>
      <point x="93" y="-203"/>
      <point x="121" y="-162"/>
      <point x="126" y="-92" type="curve" smooth="yes"/>
      <point x="135" y="40"/>
      <point x="156" y="158"/>
      <point x="205" y="342" type="curve"/>
    </contour>
  </outline>
</glyph>
<glyph name="sterling" format="2">
  <advance width="556"/>
  <unicode hex="00A3"/>
  <outline>
    <contour>
      <point x="410" y="368" type="line"/>
      <point x="274" y="368" type="line"/>
      <point x="273" y="388"/>
      <point x="273" y="405"/>
      <point x="273" y="414" type="curve" smooth="yes"/>
      <point x="273" y="470"/>
      <point x="278" y="523"/>
      <point x="286" y="553" type="curve" smooth="yes"/>
      <point x="304" y="623"/>
      <point x="351" y="666"/>
      <point x="410" y="666" type="curve" smooth="yes"/>
      <point x="446" y="666"/>
      <point x="470" y="652"/>
      <point x="470" y="630" type="curve" smooth="yes"/>
      <point x="470" y="620"/>
      <point x="468" y="618"/>
      <point x="448" y="603" type="curve" smooth="yes"/>
      <point x="427" y="587"/>
      <point x="418" y="572"/>
      <point x="418" y="550" type="curve" smooth="yes"/>
      <point x="418" y="519"/>
      <point x="441" y="497"/>
      <point x="474" y="497" type="curve" smooth="yes"/>
      <point x="516" y="497"/>
      <point x="545" y="532"/>
      <point x="545" y="585" type="curve" smooth="yes"/>
      <point x="545" y="655"/>
      <point x="485" y="704"/>
      <point x="400" y="704" type="curve" smooth="yes"/>
      <point x="329" y="704"/>
      <point x="262" y="669"/>
      <point x="220" y="610" type="curve" smooth="yes"/>
      <point x="187" y="563"/>
      <point x="170" y="501"/>
      <point x="170" y="424" type="curve" smooth="yes"/>
      <point x="170" y="408"/>
      <point x="170" y="395"/>
      <point x="172" y="368" type="curve"/>
      <point x="55" y="368" type="line"/>
      <point x="50" y="325" type="line"/>
      <point x="176" y="325" type="line"/>
      <point x="182" y="276"/>
      <point x="184" y="253"/>
      <point x="184" y="222" type="curve" smooth="yes"/>
      <point x="184" y="185"/>
      <point x="180" y="163"/>
      <point x="169" y="129" type="curve"/>
      <point x="132" y="144"/>
      <point x="104" y="150"/>
      <point x="79" y="150" type="curve" smooth="yes"/>
      <point x="30" y="150"/>
      <point x="-8" y="113"/>
      <point x="-8" y="65" type="curve" smooth="yes"/>
      <point x="-8" y="18"/>
      <point x="27" y="-15"/>
      <point x="76" y="-15" type="curve" smooth="yes"/>
      <point x="119" y="-15"/>
      <point x="146" y="0"/>
      <point x="186" y="45" type="curve"/>
      <point x="251" y="-2"/>
      <point x="283" y="-15"/>
      <point x="334" y="-15" type="curve" smooth="yes"/>
      <point x="421" y="-15"/>
      <point x="480" y="32"/>
      <point x="522" y="136" type="curve"/>
      <point x="487" y="150" type="line"/>
      <point x="450" y="93"/>
      <point x="409" y="69"/>
      <point x="350" y="69" type="curve" smooth="yes"/>
      <point x="308" y="69"/>
      <point x="271" y="80"/>
      <point x="222" y="105" type="curve"/>
      <point x="256" y="177"/>
      <point x="274" y="256"/>
      <point x="273" y="325" type="curve"/>
      <point x="405" y="325" type="line"/>
    </contour>
    <contour>
      <point x="149" y="75" type="curve"/>
      <point x="132" y="39"/>
      <point x="109" y="22"/>
      <point x="78" y="22" type="curve" smooth="yes"/>
      <point x="50" y="22"/>
      <point x="31" y="39"/>
      <point x="31" y="65" type="curve" smooth="yes"/>
      <point x="31" y="90"/>
      <point x="50" y="109"/>
      <point x="76" y="109" type="curve" smooth="yes"/>
      <point x="99" y="109"/>
      <point x="120" y="99"/>
    </contour>
  </outline>
</glyph>
<glyph name="section" format="2">
  <advance width="500"/>
  <unicode hex="00A7"/>
  <outline>
    <contour>
      <point x="325" y="463" type="line" smooth="yes"/>
      <point x="263" y="544"/>
      <point x="244" y="581"/>
      <point x="244" y="620" type="curve" smooth="yes"/>
      <point x="244" y="672"/>
      <point x="279" y="705"/>
      <point x="335" y="705" type="curve" smooth="yes"/>
      <point x="370" y="705"/>
      <point x="403" y="690"/>
      <point x="403" y="673" type="curve" smooth="yes"/>
      <point x="403" y="670"/>
      <point x="401" y="667"/>
      <point x="398" y="664" type="curve"/>
      <point x="372" y="643"/>
      <point x="366" y="633"/>
      <point x="366" y="610" type="curve" smooth="yes"/>
      <point x="366" y="579"/>
      <point x="391" y="556"/>
      <point x="424" y="556" type="curve" smooth="yes"/>
      <point x="457" y="556"/>
      <point x="480" y="582"/>
      <point x="480" y="620" type="curve" smooth="yes"/>
      <point x="480" y="687"/>
      <point x="416" y="737"/>
      <point x="329" y="737" type="curve" smooth="yes"/>
      <point x="228" y="737"/>
      <point x="163" y="681"/>
      <point x="163" y="593" type="curve" smooth="yes"/>
      <point x="163" y="548"/>
      <point x="176" y="515"/>
      <point x="218" y="454" type="curve"/>
      <point x="197" y="461"/>
      <point x="186" y="463"/>
      <point x="169" y="463" type="curve" smooth="yes"/>
      <point x="91" y="463"/>
      <point x="31" y="406"/>
      <point x="31" y="331" type="curve" smooth="yes"/>
      <point x="31" y="286"/>
      <point x="47" y="246"/>
      <point x="86" y="195" type="curve" smooth="yes"/>
      <point x="147" y="117" type="line" smooth="yes"/>
      <point x="206" y="40"/>
      <point x="220" y="11"/>
      <point x="220" y="-33" type="curve" smooth="yes"/>
      <point x="220" y="-84"/>
      <point x="188" y="-118"/>
      <point x="139" y="-118" type="curve" smooth="yes"/>
      <point x="104" y="-118"/>
      <point x="72" y="-102"/>
      <point x="72" y="-84" type="curve" smooth="yes"/>
      <point x="72" y="-79"/>
      <point x="73" y="-76"/>
      <point x="81" y="-69" type="curve"/>
      <point x="96" y="-54"/>
      <point x="102" y="-41"/>
      <point x="102" y="-23" type="curve" smooth="yes"/>
      <point x="102" y="9"/>
      <point x="80" y="31"/>
      <point x="47" y="31" type="curve" smooth="yes"/>
      <point x="13" y="31"/>
      <point x="-11" y="5"/>
      <point x="-11" y="-32" type="curve" smooth="yes"/>
      <point x="-11" y="-100"/>
      <point x="54" y="-150"/>
      <point x="143" y="-150" type="curve" smooth="yes"/>
      <point x="236" y="-150"/>
      <point x="304" y="-90"/>
      <point x="304" y="-7" type="curve" smooth="yes"/>
      <point x="304" y="34"/>
      <point x="292" y="66"/>
      <point x="253" y="131" type="curve"/>
      <point x="274" y="126"/>
      <point x="284" y="124"/>
      <point x="301" y="124" type="curve" smooth="yes"/>
      <point x="377" y="124"/>
      <point x="436" y="182"/>
      <point x="436" y="258" type="curve" smooth="yes"/>
      <point x="436" y="299"/>
      <point x="419" y="339"/>
      <point x="382" y="388" type="curve" smooth="yes"/>
    </contour>
    <contour>
      <point x="134" y="290" type="line" smooth="yes"/>
      <point x="117" y="312"/>
      <point x="108" y="337"/>
      <point x="108" y="358" type="curve" smooth="yes"/>
      <point x="108" y="401"/>
      <point x="139" y="430"/>
      <point x="184" y="430" type="curve" smooth="yes"/>
      <point x="219" y="430"/>
      <point x="255" y="410"/>
      <point x="280" y="377" type="curve" smooth="yes"/>
      <point x="322" y="321" type="line" smooth="yes"/>
      <point x="347" y="288"/>
      <point x="360" y="256"/>
      <point x="360" y="230" type="curve" smooth="yes"/>
      <point x="360" y="190"/>
      <point x="323" y="157"/>
      <point x="277" y="157" type="curve" smooth="yes"/>
      <point x="239" y="157"/>
      <point x="221" y="170"/>
      <point x="182" y="224" type="curve" smooth="yes"/>
    </contour>
  </outline>
</glyph>
<glyph name="dieresis" format="2">
  <advance width="333"/>
  <unicode hex="00A8"/>
  <outline>
    <contour>
      <point x="220" y="644" type="curve" smooth="yes"/>
      <point x="193" y="644"/>
      <point x="171" y="622"/>
      <point x="171" y="595" type="curve" smooth="yes"/>
      <point x="171" y="568"/>
      <point x="193" y="546"/>
      <point x="220" y="546" type="curve" smooth="yes"/>
      <point x="247" y="546"/>
      <point x="269" y="568"/>
      <point x="269" y="595" type="curve" smooth="yes"/>
      <point x="269" y="622"/>
      <point x="247" y="644"/>
    </contour>
    <contour>
      <point x="422" y="644" type="curve" smooth="yes"/>
      <point x="395" y="644"/>
      <point x="373" y="622"/>
      <point x="373" y="595" type="curve" smooth="yes"/>
      <point x="373" y="568"/>
      <point x="395" y="546"/>
      <point x="422" y="546" type="curve" smooth="yes"/>
      <point x="449" y="546"/>
      <point x="471" y="568"/>
      <point x="471" y="595" type="curve" smooth="yes"/>
      <point x="471" y="622"/>
      <point x="449" y="644"/>
    </contour>
  </outline>
</glyph>
<glyph name="guillemetleft" format="2">
  <advance width="426"/>
  <unicode hex="00AB"/>
  <outline>
    <contour>
      <point x="264" y="138" type="line" smooth="yes"/>
      <point x="276" y="122"/>
      <point x="287" y="108"/>
      <point x="292" y="100" type="curve"/>
      <point x="300" y="89"/>
      <point x="305" y="85"/>
      <point x="310" y="85" type="curve" smooth="yes"/>
      <point x="319" y="85"/>
      <point x="326" y="92"/>
      <point x="326" y="102" type="curve" smooth="yes"/>
      <point x="326" y="107"/>
      <point x="325" y="111"/>
      <point x="324" y="114" type="curve"/>
      <point x="263" y="233" type="line"/>
      <point x="341" y="317" type="line" smooth="yes"/>
      <point x="402" y="380"/>
      <point x="402" y="380"/>
      <point x="402" y="389" type="curve" smooth="yes"/>
      <point x="402" y="396"/>
      <point x="398" y="402"/>
      <point x="393" y="402" type="curve" smooth="yes"/>
      <point x="389" y="402"/>
      <point x="383" y="398"/>
      <point x="369" y="387" type="curve" smooth="yes"/>
      <point x="340" y="364"/>
      <point x="287" y="323"/>
      <point x="183" y="243" type="curve"/>
      <point x="196" y="226"/>
      <point x="200" y="221"/>
      <point x="228" y="185" type="curve" smooth="yes"/>
    </contour>
    <contour>
      <point x="-15" y="243" type="line"/>
      <point x="-6" y="232"/>
      <point x="9" y="213"/>
      <point x="30" y="185" type="curve" smooth="yes"/>
      <point x="66" y="138" type="line" smooth="yes"/>
      <point x="79" y="121"/>
      <point x="90" y="106"/>
      <point x="94" y="100" type="curve" smooth="yes"/>
      <point x="102" y="89"/>
      <point x="107" y="85"/>
      <point x="112" y="85" type="curve" smooth="yes"/>
      <point x="121" y="85"/>
      <point x="128" y="92"/>
      <point x="128" y="102" type="curve" smooth="yes"/>
      <point x="128" y="107"/>
      <point x="127" y="111"/>
      <point x="126" y="114" type="curve"/>
      <point x="65" y="233" type="line"/>
      <point x="143" y="317" type="line" smooth="yes"/>
      <point x="204" y="380"/>
      <point x="204" y="380"/>
      <point x="204" y="389" type="curve" smooth="yes"/>
      <point x="204" y="396"/>
      <point x="200" y="402"/>
      <point x="196" y="402" type="curve" smooth="yes"/>
      <point x="191" y="402"/>
      <point x="185" y="398"/>
      <point x="171" y="387" type="curve" smooth="yes"/>
      <point x="151" y="371"/>
      <point x="142" y="364"/>
      <point x="62" y="302" type="curve" smooth="yes"/>
      <point x="10" y="262" type="line"/>
    </contour>
  </outline>
</glyph>
<glyph name="logicalnot" format="2">
  <advance width="606"/>
  <unicode hex="00AC"/>
  <outline>
    <contour>
      <point x="41" y="293" type="line"/>
      <point x="41" y="213" type="line"/>
      <point x="465" y="213" type="line"/>
      <point x="465" y="0" type="line"/>
      <point x="545" y="0" type="line"/>
      <point x="545" y="293" type="line"/>
    </contour>
  </outline>
</glyph>
<glyph name="uni00AD" format="2">
  <advance width="333"/>
  <unicode hex="00AD"/>
  <outline>
    <contour>
      <point x="54" y="278" type="line"/>
      <point x="32" y="195" type="line"/>
      <point x="237" y="195" type="line"/>
      <point x="259" y="278" type="line"/>
    </contour>
  </outline>
</glyph>
<glyph name="macron" format="2">
  <advance width="333"/>
  <unicode hex="00AF"/>
  <outline>
    <contour>
      <point x="181" y="610" type="line"/>
      <point x="170" y="559" type="line"/>
      <point x="471" y="559" type="line"/>
      <point x="482" y="610" type="line"/>
    </contour>
  </outline>
</glyph>
<glyph name="plusminus" format="2">
  <advance width="606"/>
  <unicode hex="00B1"/>
  <outline>
    <component base="minus" xOffset="-4" yOffset="-213"/>
    <contour>
      <point x="249" y="288" type="line"/>
      <point x="249" y="113" type="line"/>
      <point x="329" y="113" type="line"/>
      <point x="329" y="288" type="line"/>
      <point x="540" y="288" type="line"/>
      <point x="540" y="368" type="line"/>
      <point x="329" y="368" type="line"/>
      <point x="329" y="581" type="line"/>
      <point x="249" y="581" type="line"/>
      <point x="249" y="368" type="line"/>
      <point x="37" y="368" type="line"/>
      <point x="37" y="288" type="line"/>
    </contour>
  </outline>
</glyph>
<glyph name="twosuperior" format="2">
  <advance width="333"/>
  <unicode hex="00B2"/>
  <outline>
    <contour>
      <point x="280" y="288" type="line"/>
      <point x="331" y="407" type="line"/>
      <point x="302" y="418" type="line"/>
      <point x="284" y="388" type="line" smooth="yes"/>
      <point x="260" y="349"/>
      <point x="256" y="346"/>
      <point x="225" y="345" type="curve" smooth="yes"/>
      <point x="83" y="345" type="line"/>
      <point x="98" y="361"/>
      <point x="126" y="383"/>
      <point x="172" y="412" type="curve" smooth="yes"/>
      <point x="261" y="469"/>
      <point x="263" y="471"/>
      <point x="280" y="483" type="curve" smooth="yes"/>
      <point x="332" y="520"/>
      <point x="353" y="556"/>
      <point x="353" y="603" type="curve" smooth="yes"/>
      <point x="353" y="667"/>
      <point x="301" y="710"/>
      <point x="225" y="710" type="curve" smooth="yes"/>
      <point x="142" y="710"/>
      <point x="71" y="653"/>
      <point x="71" y="587" type="curve" smooth="yes"/>
      <point x="71" y="551"/>
      <point x="91" y="529"/>
      <point x="123" y="529" type="curve" smooth="yes"/>
      <point x="148" y="529"/>
      <point x="167" y="547"/>
      <point x="167" y="570" type="curve" smooth="yes"/>
      <point x="167" y="587"/>
      <point x="158" y="598"/>
      <point x="137" y="609" type="curve" smooth="yes"/>
      <point x="123" y="616"/>
      <point x="121" y="618"/>
      <point x="121" y="624" type="curve" smooth="yes"/>
      <point x="121" y="647"/>
      <point x="167" y="674"/>
      <point x="207" y="674" type="curve" smooth="yes"/>
      <point x="251" y="674"/>
      <point x="280" y="648"/>
      <point x="280" y="608" type="curve" smooth="yes"/>
      <point x="280" y="565"/>
      <point x="259" y="533"/>
      <point x="203" y="488" type="curve" smooth="yes"/>
      <point x="29" y="349"/>
      <point x="5" y="325"/>
      <point x="0" y="288" type="curve"/>
    </contour>
  </outline>
</glyph>
<glyph name="acute" format="2">
  <advance width="333"/>
  <unicode hex="00B4"/>
  <outline>
    <contour>
      <point x="187" y="519" type="line"/>
      <point x="226" y="519" type="line"/>
      <point x="385" y="615" type="line" smooth="yes"/>
      <point x="400" y="625"/>
      <point x="410" y="640"/>
      <point x="410" y="654" type="curve" smooth="yes"/>
      <point x="410" y="674"/>
      <point x="395" y="689"/>
      <point x="375" y="689" type="curve" smooth="yes"/>
      <point x="360" y="689"/>
      <point x="349" y="682"/>
      <point x="325" y="659" type="curve" smooth="yes"/>
    </contour>
  </outline>
</glyph>
<glyph name="micro" format="2">
  <advance width="611"/>
  <unicode hex="00B5"/>
  <outline>
    <contour>
      <point x="41" y="419" type="line"/>
      <point x="65" y="419" type="line" smooth="yes"/>
      <point x="106" y="419"/>
      <point x="121" y="410"/>
      <point x="121" y="387" type="curve" smooth="yes"/>
      <point x="121" y="377"/>
      <point x="118" y="362"/>
      <point x="113" y="344" type="curve" smooth="yes"/>
      <point x="17" y="20" type="line" smooth="yes"/>
      <point x="11" y="1"/>
      <point x="-1" y="-26"/>
      <point x="-18" y="-56" type="curve" smooth="yes"/>
      <point x="-63" y="-132"/>
      <point x="-70" y="-150"/>
      <point x="-70" y="-180" type="curve" smooth="yes"/>
      <point x="-70" y="-203"/>
      <point x="-56" y="-219"/>
      <point x="-37" y="-219" type="curve" smooth="yes"/>
      <point x="-12" y="-219"/>
      <point x="17" y="-195"/>
      <point x="31" y="-164" type="curve" smooth="yes"/>
      <point x="44" y="-133"/>
      <point x="46" y="-119"/>
      <point x="48" y="-48" type="curve" smooth="yes"/>
      <point x="49" y="-8"/>
      <point x="49" y="-4"/>
      <point x="60" y="32" type="curve"/>
      <point x="78" y="0"/>
      <point x="101" y="-14"/>
      <point x="139" y="-14" type="curve" smooth="yes"/>
      <point x="207" y="-14"/>
      <point x="264" y="28"/>
      <point x="323" y="119" type="curve"/>
      <point x="313" y="83"/>
      <point x="311" y="70"/>
      <point x="311" y="50" type="curve" smooth="yes"/>
      <point x="311" y="12"/>
      <point x="338" y="-15"/>
      <point x="375" y="-15" type="curve" smooth="yes"/>
      <point x="436" y="-15"/>
      <point x="486" y="27"/>
      <point x="556" y="135" type="curve"/>
      <point x="526" y="153" type="line"/>
      <point x="476" y="79"/>
      <point x="437" y="40"/>
      <point x="416" y="40" type="curve" smooth="yes"/>
      <point x="407" y="40"/>
      <point x="398" y="51"/>
      <point x="398" y="64" type="curve" smooth="yes"/>
      <point x="398" y="76"/>
      <point x="402" y="94"/>
      <point x="410" y="123" type="curve" smooth="yes"/>
      <point x="509" y="455" type="line"/>
      <point x="422" y="455" type="line"/>
      <point x="375" y="295" type="line" smooth="yes"/>
      <point x="333" y="156"/>
      <point x="242" y="42"/>
      <point x="171" y="42" type="curve" smooth="yes"/>
      <point x="147" y="42"/>
      <point x="128" y="61"/>
      <point x="128" y="84" type="curve" smooth="yes"/>
      <point x="128" y="98"/>
      <point x="131" y="115"/>
      <point x="139" y="142" type="curve" smooth="yes"/>
      <point x="237" y="470" type="line"/>
      <point x="44" y="455" type="line"/>
    </contour>
  </outline>
</glyph>
<glyph name="cedilla" format="2">
  <advance width="333"/>
  <unicode hex="00B8"/>
  <outline>
    <contour>
      <point x="142" y="0" type="line"/>
      <point x="107" y="0" type="line"/>
      <point x="49" y="-99" type="line"/>
      <point x="58" y="-105" type="line"/>
      <point x="71" y="-101"/>
      <point x="81" y="-99"/>
      <point x="91" y="-99" type="curve" smooth="yes"/>
      <point x="120" y="-99"/>
      <point x="139" y="-114"/>
      <point x="139" y="-138" type="curve" smooth="yes"/>
      <point x="139" y="-162"/>
      <point x="117" y="-178"/>
      <point x="83" y="-178" type="curve" smooth="yes"/>
      <point x="63" y="-178"/>
      <point x="45" y="-174"/>
      <point x="21" y="-166" type="curve"/>
      <point x="3" y="-199" type="line"/>
      <point x="31" y="-211"/>
      <point x="58" y="-216"/>
      <point x="91" y="-216" type="curve" smooth="yes"/>
      <point x="166" y="-216"/>
      <point x="215" y="-182"/>
      <point x="215" y="-129" type="curve" smooth="yes"/>
      <point x="215" y="-88"/>
      <point x="182" y="-61"/>
      <point x="133" y="-61" type="curve" smooth="yes"/>
      <point x="124" y="-61"/>
      <point x="118" y="-62"/>
      <point x="104" y="-64" type="curve"/>
    </contour>
  </outline>
</glyph>
<glyph name="onesuperior" format="2">
  <advance width="333"/>
  <unicode hex="00B9"/>
  <outline>
    <contour>
      <point x="309" y="712" type="line"/>
      <point x="285" y="712" type="line"/>
      <point x="251" y="687"/>
      <point x="184" y="667"/>
      <point x="137" y="667" type="curve"/>
      <point x="128" y="635" type="line"/>
      <point x="176" y="635" type="line" smooth="yes"/>
      <point x="212" y="635"/>
      <point x="215" y="634"/>
      <point x="215" y="627" type="curve" smooth="yes"/>
      <point x="215" y="623"/>
      <point x="214" y="619"/>
      <point x="213" y="614" type="curve"/>
      <point x="209" y="601" type="line"/>
      <point x="141" y="364" type="line" smooth="yes"/>
      <point x="133" y="334"/>
      <point x="133" y="334"/>
      <point x="128" y="329" type="curve" smooth="yes"/>
      <point x="123" y="324"/>
      <point x="109" y="322"/>
      <point x="78" y="322" type="curve" smooth="yes"/>
      <point x="47" y="322" type="line"/>
      <point x="43" y="288" type="line"/>
      <point x="283" y="288" type="line"/>
      <point x="288" y="322" type="line"/>
      <point x="250" y="322" type="line" smooth="yes"/>
      <point x="210" y="322"/>
      <point x="203" y="324"/>
      <point x="203" y="335" type="curve" smooth="yes"/>
      <point x="203" y="339"/>
      <point x="203" y="339"/>
      <point x="209" y="363" type="curve" smooth="yes"/>
    </contour>
  </outline>
</glyph>
<glyph name="guillemotright" format="2">
  <advance width="426"/>
  <unicode hex="00BB"/>
  <outline>
    <contour>
      <point x="202" y="243" type="line"/>
      <point x="193" y="254"/>
      <point x="178" y="274"/>
      <point x="157" y="302" type="curve" smooth="yes"/>
      <point x="121" y="349" type="line" smooth="yes"/>
      <point x="111" y="362"/>
      <point x="101" y="375"/>
      <point x="93" y="387" type="curve" smooth="yes"/>
      <point x="85" y="398"/>
      <point x="80" y="402"/>
      <point x="75" y="402" type="curve" smooth="yes"/>
      <point x="66" y="402"/>
      <point x="59" y="395"/>
      <point x="59" y="385" type="curve" smooth="yes"/>
      <point x="59" y="380"/>
      <point x="60" y="376"/>
      <point x="61" y="373" type="curve"/>
      <point x="122" y="254" type="line"/>
      <point x="43" y="170" type="line" smooth="yes"/>
      <point x="-17" y="107"/>
      <point x="-17" y="107"/>
      <point x="-17" y="97" type="curve" smooth="yes"/>
      <point x="-17" y="91"/>
      <point x="-13" y="85"/>
      <point x="-8" y="85" type="curve" smooth="yes"/>
      <point x="-4" y="85"/>
      <point x="2" y="89"/>
      <point x="16" y="100" type="curve"/>
      <point x="18" y="102"/>
      <point x="42" y="121"/>
      <point x="64" y="138" type="curve" smooth="yes"/>
      <point x="85" y="154"/>
      <point x="105" y="169"/>
      <point x="125" y="185" type="curve" smooth="yes"/>
      <point x="177" y="224" type="line"/>
    </contour>
    <contour>
      <point x="319" y="349" type="line"/>
      <point x="291" y="387" type="line" smooth="yes"/>
      <point x="283" y="398"/>
      <point x="278" y="402"/>
      <point x="273" y="402" type="curve" smooth="yes"/>
      <point x="264" y="402"/>
      <point x="257" y="394"/>
      <point x="257" y="386" type="curve" smooth="yes"/>
      <point x="257" y="380"/>
      <point x="258" y="376"/>
      <point x="259" y="373" type="curve"/>
      <point x="320" y="254" type="line"/>
      <point x="241" y="170" type="line" smooth="yes"/>
      <point x="181" y="107"/>
      <point x="181" y="107"/>
      <point x="181" y="97" type="curve" smooth="yes"/>
      <point x="181" y="91"/>
      <point x="185" y="85"/>
      <point x="190" y="85" type="curve" smooth="yes"/>
      <point x="194" y="85"/>
      <point x="200" y="89"/>
      <point x="214" y="100" type="curve" smooth="yes"/>
      <point x="269" y="143"/>
      <point x="277" y="150"/>
      <point x="400" y="243" type="curve"/>
      <point x="395" y="250"/>
      <point x="390" y="256"/>
      <point x="385" y="262" type="curve"/>
      <point x="375" y="276"/>
      <point x="365" y="289"/>
      <point x="355" y="302" type="curve" smooth="yes"/>
    </contour>
  </outline>
</glyph>
<glyph name="onequarter" format="2">
  <advance width="834"/>
  <unicode hex="00BC"/>
  <outline>
    <contour>
      <point x="606" y="708" type="line"/>
      <point x="223" y="0" type="line"/>
      <point x="277" y="0" type="line"/>
      <point x="660" y="708" type="line"/>
    </contour>
    <contour>
      <point x="833" y="424" type="line"/>
      <point x="793" y="424" type="line"/>
      <point x="498" y="139" type="line"/>
      <point x="498" y="109" type="line"/>
      <point x="675" y="109" type="line"/>
      <point x="665" y="77" type="line"/>
      <point x="663" y="67" type="line"/>
      <point x="661" y="62"/>
      <point x="660" y="58"/>
      <point x="659" y="56" type="curve"/>
      <point x="657" y="48"/>
      <point x="655" y="45"/>
      <point x="652" y="42" type="curve" smooth="yes"/>
      <point x="647" y="37"/>
      <point x="633" y="35"/>
      <point x="602" y="35" type="curve" smooth="yes"/>
      <point x="587" y="35" type="line"/>
      <point x="583" y="0" type="line"/>
      <point x="785" y="0" type="line"/>
      <point x="789" y="35" type="line"/>
      <point x="774" y="35" type="line" smooth="yes"/>
      <point x="735" y="35"/>
      <point x="727" y="37"/>
      <point x="727" y="47" type="curve" smooth="yes"/>
      <point x="727" y="52"/>
      <point x="727" y="52"/>
      <point x="733" y="75" type="curve" smooth="yes"/>
      <point x="743" y="109" type="line"/>
      <point x="815" y="109" type="line"/>
      <point x="825" y="148" type="line"/>
      <point x="754" y="148" type="line"/>
    </contour>
    <contour>
      <point x="686" y="148" type="line"/>
      <point x="555" y="148" type="line"/>
      <point x="735" y="321" type="line"/>
    </contour>
    <contour>
      <point x="299" y="712" type="line"/>
      <point x="275" y="712" type="line"/>
      <point x="241" y="687"/>
      <point x="174" y="667"/>
      <point x="127" y="667" type="curve"/>
      <point x="118" y="635" type="line"/>
      <point x="166" y="635" type="line" smooth="yes"/>
      <point x="202" y="635"/>
      <point x="205" y="634"/>
      <point x="205" y="627" type="curve" smooth="yes"/>
      <point x="205" y="623"/>
      <point x="204" y="619"/>
      <point x="203" y="614" type="curve"/>
      <point x="199" y="601" type="line"/>
      <point x="131" y="364" type="line" smooth="yes"/>
      <point x="123" y="334"/>
      <point x="123" y="334"/>
      <point x="118" y="329" type="curve" smooth="yes"/>
      <point x="113" y="324"/>
      <point x="99" y="322"/>
      <point x="68" y="322" type="curve" smooth="yes"/>
      <point x="37" y="322" type="line"/>
      <point x="33" y="288" type="line"/>
      <point x="273" y="288" type="line"/>
      <point x="278" y="322" type="line"/>
      <point x="240" y="322" type="line" smooth="yes"/>
      <point x="200" y="322"/>
      <point x="193" y="324"/>
      <point x="193" y="335" type="curve" smooth="yes"/>
      <point x="193" y="339"/>
      <point x="193" y="339"/>
      <point x="199" y="363" type="curve" smooth="yes"/>
    </contour>
  </outline>
</glyph>
<glyph name="threequarters" format="2">
  <advance width="834"/>
  <unicode hex="00BE"/>
  <outline>
    <component base="threesuperior"/>
    <component base="fraction" xOffset="339"/>
    <contour>
      <point x="833" y="424" type="line"/>
      <point x="793" y="424" type="line"/>
      <point x="498" y="139" type="line"/>
      <point x="498" y="109" type="line"/>
      <point x="675" y="109" type="line"/>
      <point x="665" y="77" type="line" smooth="yes"/>
      <point x="657" y="47"/>
      <point x="657" y="47"/>
      <point x="652" y="42" type="curve" smooth="yes"/>
      <point x="647" y="37"/>
      <point x="633" y="35"/>
      <point x="602" y="35" type="curve" smooth="yes"/>
      <point x="587" y="35" type="line"/>
      <point x="583" y="0" type="line"/>
      <point x="785" y="0" type="line"/>
      <point x="789" y="35" type="line"/>
      <point x="774" y="35" type="line" smooth="yes"/>
      <point x="735" y="35"/>
      <point x="727" y="37"/>
      <point x="727" y="47" type="curve" smooth="yes"/>
      <point x="727" y="52"/>
      <point x="727" y="52"/>
      <point x="733" y="75" type="curve" smooth="yes"/>
      <point x="743" y="109" type="line"/>
      <point x="815" y="109" type="line"/>
      <point x="825" y="148" type="line"/>
      <point x="754" y="148" type="line"/>
    </contour>
    <contour>
      <point x="686" y="148" type="line"/>
      <point x="555" y="148" type="line"/>
      <point x="735" y="321" type="line"/>
    </contour>
  </outline>
</glyph>
<glyph name="Acircumflex" format="2">
  <advance width="704"/>
  <unicode hex="00C2"/>
  <outline>
    <component base="A"/>
    <contour>
      <point x="475" y="940" type="line"/>
      <point x="425" y="940" type="line"/>
      <point x="272" y="774" type="line"/>
      <point x="308" y="774" type="line"/>
      <point x="444" y="875" type="line"/>
      <point x="530" y="774" type="line"/>
      <point x="566" y="774" type="line"/>
    </contour>
  </outline>
</glyph>
<glyph name="Atilde" format="2">
  <advance width="704"/>
  <unicode hex="00C3"/>
  <outline>
    <component base="A"/>
    <contour>
      <point x="568" y="917" type="line"/>
      <point x="556" y="888"/>
      <point x="542" y="875"/>
      <point x="519" y="875" type="curve" smooth="yes"/>
      <point x="505" y="875"/>
      <point x="496" y="877"/>
      <point x="460" y="890" type="curve" smooth="yes"/>
      <point x="402" y="910"/>
      <point x="378" y="916"/>
      <point x="360" y="916" type="curve" smooth="yes"/>
      <point x="316" y="916"/>
      <point x="282" y="877"/>
      <point x="270" y="812" type="curve"/>
      <point x="300" y="812" type="line"/>
      <point x="309" y="842"/>
      <point x="323" y="856"/>
      <point x="345" y="856" type="curve" smooth="yes"/>
      <point x="360" y="856"/>
      <point x="375" y="852"/>
      <point x="419" y="836" type="curve" smooth="yes"/>
      <point x="471" y="816"/>
      <point x="483" y="813"/>
      <point x="505" y="813" type="curve" smooth="yes"/>
      <point x="549" y="813"/>
      <point x="592" y="861"/>
      <point x="598" y="917" type="curve"/>
    </contour>
  </outline>
</glyph>
<glyph name="Adieresis" format="2">
  <advance width="704"/>
  <unicode hex="00C4"/>
  <outline>
    <component base="A"/>
    <contour>
      <point x="320" y="910" type="curve" smooth="yes"/>
      <point x="293" y="910"/>
      <point x="271" y="888"/>
      <point x="271" y="861" type="curve" smooth="yes"/>
      <point x="271" y="834"/>
      <point x="293" y="812"/>
      <point x="319" y="812" type="curve" smooth="yes"/>
      <point x="347" y="812"/>
      <point x="369" y="834"/>
      <point x="369" y="861" type="curve" smooth="yes"/>
      <point x="369" y="888"/>
      <point x="347" y="910"/>
    </contour>
    <contour>
      <point x="522" y="910" type="curve" smooth="yes"/>
      <point x="495" y="910"/>
      <point x="473" y="888"/>
      <point x="473" y="861" type="curve" smooth="yes"/>
      <point x="473" y="834"/>
      <point x="495" y="812"/>
      <point x="521" y="812" type="curve" smooth="yes"/>
      <point x="549" y="812"/>
      <point x="571" y="834"/>
      <point x="571" y="861" type="curve" smooth="yes"/>
      <point x="571" y="888"/>
      <point x="549" y="910"/>
    </contour>
  </outline>
</glyph>
<glyph name="AE" format="2">
  <advance width="870"/>
  <unicode hex="00C6"/>
  <outline>
    <contour>
      <point x="831" y="481" type="line"/>
      <point x="870" y="722" type="line"/>
      <point x="237" y="722" type="line"/>
      <point x="232" y="675" type="line"/>
      <point x="259" y="675" type="line" smooth="yes"/>
      <point x="318" y="675"/>
      <point x="339" y="664"/>
      <point x="339" y="633" type="curve" smooth="yes"/>
      <point x="339" y="613"/>
      <point x="330" y="593"/>
      <point x="302" y="553" type="curve" smooth="yes"/>
      <point x="-18" y="93" type="line" smooth="yes"/>
      <point x="-42" y="61"/>
      <point x="-62" y="47"/>
      <point x="-87" y="47" type="curve"/>
      <point x="-92" y="0" type="line"/>
      <point x="125" y="0" type="line"/>
      <point x="131" y="47" type="line"/>
      <point x="101" y="47"/>
      <point x="91" y="48"/>
      <point x="81" y="52" type="curve" smooth="yes"/>
      <point x="64" y="58"/>
      <point x="54" y="69"/>
      <point x="54" y="83" type="curve" smooth="yes"/>
      <point x="54" y="96"/>
      <point x="64" y="119"/>
      <point x="79" y="141" type="curve" smooth="yes"/>
      <point x="174" y="278" type="line"/>
      <point x="365" y="278" type="line"/>
      <point x="323" y="123" type="line" smooth="yes"/>
      <point x="310" y="72"/>
      <point x="309" y="70"/>
      <point x="300" y="61" type="curve"/>
      <point x="291" y="51"/>
      <point x="270" y="47"/>
      <point x="217" y="47" type="curve" smooth="yes"/>
      <point x="213" y="47" type="line"/>
      <point x="207" y="0" type="line"/>
      <point x="739" y="0" type="line"/>
      <point x="817" y="245" type="line"/>
      <point x="777" y="253" type="line"/>
      <point x="770" y="242"/>
      <point x="768" y="239"/>
      <point x="755" y="214" type="curve" smooth="yes"/>
      <point x="693" y="92"/>
      <point x="632" y="50"/>
      <point x="512" y="47" type="curve" smooth="yes"/>
      <point x="490" y="47" type="line" smooth="yes"/>
      <point x="447" y="47"/>
      <point x="427" y="57"/>
      <point x="427" y="78" type="curve" smooth="yes"/>
      <point x="427" y="91"/>
      <point x="428" y="95"/>
      <point x="438" y="134" type="curve" smooth="yes"/>
      <point x="497" y="354" type="line"/>
      <point x="504" y="354" type="line" smooth="yes"/>
      <point x="564" y="354"/>
      <point x="594" y="324"/>
      <point x="594" y="264" type="curve" smooth="yes"/>
      <point x="594" y="241"/>
      <point x="592" y="223"/>
      <point x="585" y="194" type="curve"/>
      <point x="630" y="186" type="line"/>
      <point x="720" y="520" type="line"/>
      <point x="674" y="526" type="line"/>
      <point x="646" y="439"/>
      <point x="599" y="401"/>
      <point x="517" y="401" type="curve" smooth="yes"/>
      <point x="510" y="401" type="line"/>
      <point x="565" y="605" type="line" smooth="yes"/>
      <point x="581" y="667"/>
      <point x="588" y="673"/>
      <point x="642" y="675" type="curve" smooth="yes"/>
      <point x="669" y="675" type="line" smooth="yes"/>
      <point x="748" y="675"/>
      <point x="787" y="634"/>
      <point x="787" y="552" type="curve" smooth="yes"/>
      <point x="787" y="539"/>
      <point x="787" y="523"/>
      <point x="786" y="501" type="curve"/>
      <point x="786" y="481" type="line"/>
    </contour>
    <contour>
      <point x="377" y="325" type="line"/>
      <point x="205" y="325" type="line"/>
      <point x="436" y="654" type="line" smooth="yes"/>
      <point x="447" y="670"/>
      <point x="451" y="674"/>
      <point x="457" y="674" type="curve" smooth="yes"/>
      <point x="462" y="674"/>
      <point x="466" y="669"/>
      <point x="466" y="663" type="curve" smooth="yes"/>
      <point x="466" y="659"/>
      <point x="466" y="659"/>
      <point x="460" y="634" type="curve" smooth="yes"/>
    </contour>
  </outline>
</glyph>
<glyph name="Ccedilla" format="2">
  <advance width="722"/>
  <unicode hex="00C7"/>
  <outline>
    <contour>
      <point x="617" y="657" type="line"/>
      <point x="568" y="714"/>
      <point x="518" y="737"/>
      <point x="442" y="737" type="curve" smooth="yes"/>
      <point x="332" y="737"/>
      <point x="232" y="685"/>
      <point x="151" y="585" type="curve" smooth="yes"/>
      <point x="78" y="495"/>
      <point x="40" y="391"/>
      <point x="40" y="280" type="curve" smooth="yes"/>
      <point x="40" y="117"/>
      <point x="130" y="11"/>
      <point x="287" y="-12" type="curve"/>
      <point x="237" y="-99" type="line"/>
      <point x="245" y="-105" type="line"/>
      <point x="259" y="-101"/>
      <point x="269" y="-99"/>
      <point x="279" y="-99" type="curve" smooth="yes"/>
      <point x="308" y="-99"/>
      <point x="327" y="-114"/>
      <point x="327" y="-138" type="curve" smooth="yes"/>
      <point x="327" y="-162"/>
      <point x="305" y="-178"/>
      <point x="271" y="-178" type="curve" smooth="yes"/>
      <point x="251" y="-178"/>
      <point x="233" y="-174"/>
      <point x="209" y="-166" type="curve"/>
      <point x="191" y="-199" type="line"/>
      <point x="219" y="-211"/>
      <point x="246" y="-216"/>
      <point x="279" y="-216" type="curve" smooth="yes"/>
      <point x="354" y="-216"/>
      <point x="403" y="-182"/>
      <point x="403" y="-130" type="curve" smooth="yes"/>
      <point x="403" y="-89"/>
      <point x="370" y="-61"/>
      <point x="321" y="-61" type="curve" smooth="yes"/>
      <point x="311" y="-61"/>
      <point x="305" y="-62"/>
      <point x="292" y="-64" type="curve"/>
      <point x="321" y="-15" type="line"/>
      <point x="334" y="-15" type="line" smooth="yes"/>
      <point x="422" y="-15"/>
      <point x="497" y="15"/>
      <point x="554" y="75" type="curve" smooth="yes"/>
      <point x="585" y="106"/>
      <point x="607" y="143"/>
      <point x="634" y="205" type="curve"/>
      <point x="593" y="223" type="line"/>
      <point x="568" y="170"/>
      <point x="554" y="146"/>
      <point x="536" y="124" type="curve" smooth="yes"/>
      <point x="487" y="63"/>
      <point x="426" y="34"/>
      <point x="351" y="34" type="curve" smooth="yes"/>
      <point x="234" y="34"/>
      <point x="165" y="111"/>
      <point x="165" y="240" type="curve" smooth="yes"/>
      <point x="165" y="355"/>
      <point x="205" y="487"/>
      <point x="268" y="583" type="curve" smooth="yes"/>
      <point x="314" y="654"/>
      <point x="380" y="694"/>
      <point x="450" y="694" type="curve" smooth="yes"/>
      <point x="516" y="694"/>
      <point x="563" y="660"/>
      <point x="590" y="593" type="curve" smooth="yes"/>
      <point x="606" y="556"/>
      <point x="613" y="512"/>
      <point x="616" y="435" type="curve"/>
      <point x="657" y="435" type="line"/>
      <point x="713" y="715" type="line"/>
      <point x="677" y="715" type="line"/>
    </contour>
  </outline>
</glyph>
<glyph name="Egrave" format="2">
  <advance width="722"/>
  <unicode hex="00C8"/>
  <outline>
    <component base="E"/>
    <contour>
      <point x="507" y="774" type="line"/>
      <point x="394" y="918" type="line" smooth="yes"/>
      <point x="376" y="943"/>
      <point x="371" y="946"/>
      <point x="356" y="946" type="curve" smooth="yes"/>
      <point x="335" y="946"/>
      <point x="317" y="927"/>
      <point x="317" y="907" type="curve" smooth="yes"/>
      <point x="317" y="898"/>
      <point x="323" y="888"/>
      <point x="332" y="881" type="curve" smooth="yes"/>
      <point x="466" y="774" type="line"/>
    </contour>
  </outline>
</glyph>
<glyph name="Eacute" format="2">
  <advance width="722"/>
  <unicode hex="00C9"/>
  <outline>
    <component base="E"/>
    <contour>
      <point x="389" y="774" type="line"/>
      <point x="428" y="774" type="line"/>
      <point x="587" y="874" type="line" smooth="yes"/>
      <point x="603" y="884"/>
      <point x="613" y="898"/>
      <point x="613" y="913" type="curve" smooth="yes"/>
      <point x="613" y="932"/>
      <point x="598" y="947"/>
      <point x="578" y="947" type="curve" smooth="yes"/>
      <point x="563" y="947"/>
      <point x="549" y="939"/>
      <point x="528" y="917" type="curve" smooth="yes"/>
    </contour>
  </outline>
</glyph>
<glyph name="Ecircumflex" format="2">
  <advance width="722"/>
  <unicode hex="00CA"/>
  <outline>
    <component base="E"/>
    <contour>
      <point x="504" y="940" type="line"/>
      <point x="454" y="940" type="line"/>
      <point x="301" y="774" type="line"/>
      <point x="337" y="774" type="line"/>
      <point x="473" y="875" type="line"/>
      <point x="559" y="774" type="line"/>
      <point x="595" y="774" type="line"/>
    </contour>
  </outline>
</glyph>
<glyph name="Edieresis" format="2">
  <advance width="722"/>
  <unicode hex="00CB"/>
  <outline>
    <component base="E"/>
    <contour>
      <point x="356" y="910" type="curve" smooth="yes"/>
      <point x="329" y="910"/>
      <point x="307" y="888"/>
      <point x="307" y="861" type="curve" smooth="yes"/>
      <point x="307" y="834"/>
      <point x="329" y="812"/>
      <point x="355" y="812" type="curve" smooth="yes"/>
      <point x="383" y="812"/>
      <point x="405" y="834"/>
      <point x="405" y="861" type="curve" smooth="yes"/>
      <point x="405" y="888"/>
      <point x="383" y="910"/>
    </contour>
    <contour>
      <point x="558" y="910" type="curve" smooth="yes"/>
      <point x="531" y="910"/>
      <point x="509" y="888"/>
      <point x="509" y="861" type="curve" smooth="yes"/>
      <point x="509" y="834"/>
      <point x="531" y="812"/>
      <point x="557" y="812" type="curve" smooth="yes"/>
      <point x="585" y="812"/>
      <point x="607" y="834"/>
      <point x="607" y="861" type="curve" smooth="yes"/>
      <point x="607" y="888"/>
      <point x="585" y="910"/>
    </contour>
  </outline>
</glyph>
<glyph name="Igrave" format="2">
  <advance width="407"/>
  <unicode hex="00CC"/>
  <outline>
    <component base="I"/>
    <contour>
      <point x="369" y="774" type="line"/>
      <point x="257" y="918" type="line" smooth="yes"/>
      <point x="238" y="942"/>
      <point x="233" y="946"/>
      <point x="218" y="946" type="curve" smooth="yes"/>
      <point x="197" y="946"/>
      <point x="179" y="927"/>
      <point x="179" y="907" type="curve" smooth="yes"/>
      <point x="179" y="898"/>
      <point x="185" y="889"/>
      <point x="195" y="881" type="curve" smooth="yes"/>
      <point x="329" y="774" type="line"/>
    </contour>
  </outline>
</glyph>
<glyph name="Iacute" format="2">
  <advance width="407"/>
  <unicode hex="00CD"/>
  <outline>
    <component base="I"/>
    <contour>
      <point x="185" y="774" type="line"/>
      <point x="224" y="774" type="line"/>
      <point x="383" y="874" type="line" smooth="yes"/>
      <point x="398" y="884"/>
      <point x="408" y="898"/>
      <point x="408" y="913" type="curve" smooth="yes"/>
      <point x="408" y="932"/>
      <point x="393" y="947"/>
      <point x="373" y="947" type="curve" smooth="yes"/>
      <point x="358" y="947"/>
      <point x="345" y="939"/>
      <point x="323" y="917" type="curve" smooth="yes"/>
    </contour>
  </outline>
</glyph>
<glyph name="Icircumflex" format="2">
  <advance width="407"/>
  <unicode hex="00CE"/>
  <outline>
    <component base="I"/>
    <contour>
      <point x="340" y="940" type="line"/>
      <point x="290" y="940" type="line"/>
      <point x="137" y="774" type="line"/>
      <point x="173" y="774" type="line"/>
      <point x="309" y="875" type="line"/>
      <point x="395" y="774" type="line"/>
      <point x="431" y="774" type="line"/>
    </contour>
  </outline>
</glyph>
<glyph name="Ntilde" format="2">
  <advance width="815"/>
  <unicode hex="00D1"/>
  <outline>
    <component base="N"/>
    <contour>
      <point x="647" y="917" type="line"/>
      <point x="635" y="888"/>
      <point x="620" y="875"/>
      <point x="598" y="875" type="curve" smooth="yes"/>
      <point x="584" y="875"/>
      <point x="575" y="877"/>
      <point x="539" y="890" type="curve" smooth="yes"/>
      <point x="481" y="910"/>
      <point x="457" y="916"/>
      <point x="439" y="916" type="curve" smooth="yes"/>
      <point x="394" y="916"/>
      <point x="360" y="877"/>
      <point x="349" y="812" type="curve"/>
      <point x="379" y="812" type="line"/>
      <point x="388" y="842"/>
      <point x="402" y="856"/>
      <point x="424" y="856" type="curve" smooth="yes"/>
      <point x="438" y="856"/>
      <point x="452" y="852"/>
      <point x="498" y="836" type="curve" smooth="yes"/>
      <point x="552" y="816"/>
      <point x="562" y="813"/>
      <point x="583" y="813" type="curve" smooth="yes"/>
      <point x="628" y="813"/>
      <point x="670" y="859"/>
      <point x="677" y="917" type="curve"/>
    </contour>
  </outline>
</glyph>
<glyph name="Ograve" format="2">
  <advance width="778"/>
  <unicode hex="00D2"/>
  <outline>
    <component base="O"/>
    <contour>
      <point x="555" y="774" type="line"/>
      <point x="442" y="918" type="line" smooth="yes"/>
      <point x="423" y="943"/>
      <point x="419" y="946"/>
      <point x="404" y="946" type="curve" smooth="yes"/>
      <point x="383" y="946"/>
      <point x="365" y="927"/>
      <point x="365" y="907" type="curve" smooth="yes"/>
      <point x="365" y="898"/>
      <point x="371" y="888"/>
      <point x="380" y="881" type="curve" smooth="yes"/>
      <point x="514" y="774" type="line"/>
    </contour>
  </outline>
</glyph>
<glyph name="Oacute" format="2">
  <advance width="778"/>
  <unicode hex="00D3"/>
  <outline>
    <component base="O"/>
    <contour>
      <point x="431" y="774" type="line"/>
      <point x="469" y="774" type="line"/>
      <point x="628" y="874" type="line" smooth="yes"/>
      <point x="644" y="884"/>
      <point x="654" y="898"/>
      <point x="654" y="913" type="curve" smooth="yes"/>
      <point x="654" y="932"/>
      <point x="639" y="947"/>
      <point x="619" y="947" type="curve" smooth="yes"/>
      <point x="604" y="947"/>
      <point x="590" y="939"/>
      <point x="569" y="917" type="curve" smooth="yes"/>
    </contour>
  </outline>
</glyph>
<glyph name="Otilde" format="2">
  <advance width="778"/>
  <unicode hex="00D5"/>
  <outline>
    <component base="O"/>
    <contour>
      <point x="648" y="917" type="line"/>
      <point x="636" y="887"/>
      <point x="622" y="875"/>
      <point x="599" y="875" type="curve" smooth="yes"/>
      <point x="585" y="875"/>
      <point x="576" y="877"/>
      <point x="540" y="890" type="curve" smooth="yes"/>
      <point x="483" y="910"/>
      <point x="458" y="916"/>
      <point x="440" y="916" type="curve" smooth="yes"/>
      <point x="396" y="916"/>
      <point x="362" y="877"/>
      <point x="351" y="812" type="curve"/>
      <point x="381" y="812" type="line"/>
      <point x="389" y="842"/>
      <point x="404" y="856"/>
      <point x="425" y="856" type="curve" smooth="yes"/>
      <point x="440" y="856"/>
      <point x="455" y="852"/>
      <point x="499" y="836" type="curve" smooth="yes"/>
      <point x="551" y="816"/>
      <point x="564" y="813"/>
      <point x="586" y="813" type="curve" smooth="yes"/>
      <point x="630" y="813"/>
      <point x="672" y="861"/>
      <point x="679" y="917" type="curve"/>
    </contour>
  </outline>
</glyph>
<glyph name="Odieresis" format="2">
  <advance width="778"/>
  <unicode hex="00D6"/>
  <outline>
    <component base="O"/>
    <contour>
      <point x="404" y="910" type="curve" smooth="yes"/>
      <point x="377" y="910"/>
      <point x="355" y="888"/>
      <point x="355" y="861" type="curve" smooth="yes"/>
      <point x="355" y="834"/>
      <point x="377" y="812"/>
      <point x="403" y="812" type="curve" smooth="yes"/>
      <point x="431" y="812"/>
      <point x="453" y="834"/>
      <point x="453" y="861" type="curve" smooth="yes"/>
      <point x="453" y="888"/>
      <point x="431" y="910"/>
    </contour>
    <contour>
      <point x="606" y="910" type="curve" smooth="yes"/>
      <point x="579" y="910"/>
      <point x="557" y="888"/>
      <point x="557" y="861" type="curve" smooth="yes"/>
      <point x="557" y="834"/>
      <point x="579" y="812"/>
      <point x="605" y="812" type="curve" smooth="yes"/>
      <point x="633" y="812"/>
      <point x="655" y="834"/>
      <point x="655" y="861" type="curve" smooth="yes"/>
      <point x="655" y="888"/>
      <point x="633" y="910"/>
    </contour>
  </outline>
</glyph>
<glyph name="Ugrave" format="2">
  <advance width="815"/>
  <unicode hex="00D9"/>
  <outline>
    <component base="U"/>
    <contour>
      <point x="540" y="774" type="line"/>
      <point x="428" y="918" type="line" smooth="yes"/>
      <point x="409" y="943"/>
      <point x="404" y="946"/>
      <point x="389" y="946" type="curve" smooth="yes"/>
      <point x="368" y="946"/>
      <point x="350" y="927"/>
      <point x="350" y="907" type="curve" smooth="yes"/>
      <point x="350" y="898"/>
      <point x="356" y="889"/>
      <point x="365" y="881" type="curve"/>
      <point x="500" y="774" type="line"/>
    </contour>
  </outline>
</glyph>
<glyph name="Uacute" format="2">
  <advance width="815"/>
  <unicode hex="00DA"/>
  <outline>
    <component base="U"/>
    <contour>
      <point x="476" y="774" type="line"/>
      <point x="514" y="774" type="line"/>
      <point x="673" y="874" type="line" smooth="yes"/>
      <point x="689" y="884"/>
      <point x="699" y="899"/>
      <point x="699" y="913" type="curve" smooth="yes"/>
      <point x="699" y="932"/>
      <point x="684" y="947"/>
      <point x="664" y="947" type="curve" smooth="yes"/>
      <point x="649" y="947"/>
      <point x="635" y="939"/>
      <point x="614" y="917" type="curve" smooth="yes"/>
    </contour>
  </outline>
</glyph>
<glyph name="Ucircumflex" format="2">
  <advance width="815"/>
  <unicode hex="00DB"/>
  <outline>
    <component base="U"/>
    <contour>
      <point x="564" y="940" type="line"/>
      <point x="514" y="940" type="line"/>
      <point x="361" y="774" type="line"/>
      <point x="396" y="774" type="line"/>
      <point x="533" y="875" type="line"/>
      <point x="619" y="774" type="line"/>
      <point x="655" y="774" type="line"/>
    </contour>
  </outline>
</glyph>
<glyph name="Udieresis" format="2">
  <advance width="815"/>
  <unicode hex="00DC"/>
  <outline>
    <component base="U"/>
    <contour>
      <point x="416" y="910" type="curve" smooth="yes"/>
      <point x="389" y="910"/>
      <point x="367" y="888"/>
      <point x="367" y="861" type="curve" smooth="yes"/>
      <point x="367" y="834"/>
      <point x="389" y="812"/>
      <point x="415" y="812" type="curve" smooth="yes"/>
      <point x="443" y="812"/>
      <point x="465" y="834"/>
      <point x="465" y="861" type="curve" smooth="yes"/>
      <point x="465" y="888"/>
      <point x="443" y="910"/>
    </contour>
    <contour>
      <point x="618" y="910" type="curve" smooth="yes"/>
      <point x="591" y="910"/>
      <point x="569" y="888"/>
      <point x="569" y="861" type="curve" smooth="yes"/>
      <point x="569" y="834"/>
      <point x="591" y="812"/>
      <point x="617" y="812" type="curve" smooth="yes"/>
      <point x="645" y="812"/>
      <point x="667" y="834"/>
      <point x="667" y="861" type="curve" smooth="yes"/>
      <point x="667" y="888"/>
      <point x="645" y="910"/>
    </contour>
  </outline>
</glyph>
<glyph name="Yacute" format="2">
  <advance width="685"/>
  <unicode hex="00DD"/>
  <outline>
    <component base="Y"/>
    <contour>
      <point x="364" y="774" type="line"/>
      <point x="403" y="774" type="line"/>
      <point x="562" y="874" type="line" smooth="yes"/>
      <point x="577" y="883"/>
      <point x="587" y="899"/>
      <point x="587" y="913" type="curve" smooth="yes"/>
      <point x="587" y="932"/>
      <point x="572" y="947"/>
      <point x="552" y="947" type="curve" smooth="yes"/>
      <point x="537" y="947"/>
      <point x="524" y="939"/>
      <point x="502" y="917" type="curve" smooth="yes"/>
    </contour>
  </outline>
</glyph>
<glyph name="Thorn" format="2">
  <advance width="667"/>
  <unicode hex="00DE"/>
  <outline>
    <contour>
      <point x="316" y="591" type="line"/>
      <point x="319" y="600" type="line"/>
      <point x="333" y="651"/>
      <point x="333" y="653"/>
      <point x="342" y="662" type="curve"/>
      <point x="354" y="672"/>
      <point x="367" y="674"/>
      <point x="426" y="675" type="curve"/>
      <point x="431" y="722" type="line"/>
      <point x="121" y="722" type="line"/>
      <point x="115" y="675" type="line"/>
      <point x="137" y="675" type="line" smooth="yes"/>
      <point x="203" y="675"/>
      <point x="217" y="671"/>
      <point x="217" y="648" type="curve" smooth="yes"/>
      <point x="217" y="640"/>
      <point x="215" y="629"/>
      <point x="207" y="600" type="curve" smooth="yes"/>
      <point x="79" y="123" type="line" smooth="yes"/>
      <point x="66" y="73"/>
      <point x="65" y="70"/>
      <point x="56" y="61" type="curve" smooth="yes"/>
      <point x="44" y="50"/>
      <point x="31" y="48"/>
      <point x="-28" y="47" type="curve"/>
      <point x="-33" y="0" type="line"/>
      <point x="277" y="0" type="line"/>
      <point x="283" y="47" type="line"/>
      <point x="261" y="47" type="line" smooth="yes"/>
      <point x="195" y="47"/>
      <point x="181" y="52"/>
      <point x="181" y="75" type="curve" smooth="yes"/>
      <point x="181" y="84"/>
      <point x="181" y="87"/>
      <point x="191" y="123" type="curve" smooth="yes"/>
      <point x="208" y="186" type="line"/>
      <point x="226" y="186" type="line" smooth="yes"/>
      <point x="412" y="186"/>
      <point x="448" y="192"/>
      <point x="515" y="228" type="curve" smooth="yes"/>
      <point x="585" y="265"/>
      <point x="624" y="330"/>
      <point x="624" y="410" type="curve" smooth="yes"/>
      <point x="624" y="472"/>
      <point x="599" y="522"/>
      <point x="550" y="555" type="curve" smooth="yes"/>
      <point x="513" y="580"/>
      <point x="461" y="591"/>
      <point x="377" y="591" type="curve" smooth="yes"/>
    </contour>
    <contour>
      <point x="221" y="233" type="line"/>
      <point x="291" y="496" type="line" smooth="yes"/>
      <point x="301" y="535"/>
      <point x="311" y="542"/>
      <point x="355" y="544" type="curve" smooth="yes"/>
      <point x="367" y="544" type="line" smooth="yes"/>
      <point x="472" y="544"/>
      <point x="512" y="510"/>
      <point x="512" y="421" type="curve" smooth="yes"/>
      <point x="512" y="357"/>
      <point x="487" y="299"/>
      <point x="446" y="267" type="curve" smooth="yes"/>
      <point x="419" y="247"/>
      <point x="372" y="233"/>
      <point x="330" y="233" type="curve" smooth="yes"/>
      <point x="240" y="233" type="line"/>
    </contour>
  </outline>
</glyph>
<glyph name="germandbls" format="2">
  <advance width="556"/>
  <unicode hex="00DF"/>
  <outline>
    <contour>
      <point x="53" y="176" type="line" smooth="yes"/>
      <point x="-4" y="-34"/>
      <point x="-45" y="-153"/>
      <point x="-76" y="-202" type="curve"/>
      <point x="30" y="-184" type="line"/>
      <point x="75" y="-65"/>
      <point x="111" y="56"/>
      <point x="144" y="201" type="curve" smooth="yes"/>
      <point x="179" y="344" type="line" smooth="yes"/>
      <point x="231" y="547"/>
      <point x="235" y="560"/>
      <point x="247" y="592" type="curve" smooth="yes"/>
      <point x="276" y="668"/>
      <point x="311" y="701"/>
      <point x="362" y="701" type="curve" smooth="yes"/>
      <point x="412" y="701"/>
      <point x="441" y="668"/>
      <point x="441" y="611" type="curve" smooth="yes"/>
      <point x="441" y="516"/>
      <point x="394" y="435"/>
      <point x="338" y="435" type="curve" smooth="yes"/>
      <point x="331" y="435"/>
      <point x="320" y="436"/>
      <point x="306" y="438" type="curve" smooth="yes"/>
      <point x="279" y="443"/>
      <point x="279" y="443"/>
      <point x="275" y="443" type="curve" smooth="yes"/>
      <point x="264" y="443"/>
      <point x="256" y="435"/>
      <point x="256" y="424" type="curve" smooth="yes"/>
      <point x="256" y="412"/>
      <point x="265" y="405"/>
      <point x="285" y="402" type="curve" smooth="yes"/>
      <point x="320" y="396"/>
      <point x="324" y="395"/>
      <point x="337" y="387" type="curve" smooth="yes"/>
      <point x="365" y="371"/>
      <point x="381" y="340"/>
      <point x="381" y="298" type="curve" smooth="yes"/>
      <point x="381" y="237"/>
      <point x="363" y="153"/>
      <point x="337" y="97" type="curve" smooth="yes"/>
      <point x="314" y="46"/>
      <point x="293" y="23"/>
      <point x="271" y="23" type="curve" smooth="yes"/>
      <point x="260" y="23"/>
      <point x="250" y="30"/>
      <point x="250" y="37" type="curve" smooth="yes"/>
      <point x="250" y="41"/>
      <point x="252" y="47"/>
      <point x="255" y="54" type="curve" smooth="yes"/>
      <point x="261" y="67"/>
      <point x="264" y="78"/>
      <point x="264" y="88" type="curve" smooth="yes"/>
      <point x="264" y="112"/>
      <point x="243" y="130"/>
      <point x="215" y="130" type="curve" smooth="yes"/>
      <point x="183" y="130"/>
      <point x="162" y="107"/>
      <point x="162" y="72" type="curve" smooth="yes"/>
      <point x="162" y="21"/>
      <point x="206" y="-14"/>
      <point x="268" y="-14" type="curve" smooth="yes"/>
      <point x="322" y="-14"/>
      <point x="375" y="14"/>
      <point x="409" y="61" type="curve" smooth="yes"/>
      <point x="447" y="112"/>
      <point x="469" y="181"/>
      <point x="469" y="247" type="curve" smooth="yes"/>
      <point x="469" y="316"/>
      <point x="441" y="364"/>
      <point x="377" y="407" type="curve"/>
      <point x="412" y="419"/>
      <point x="428" y="427"/>
      <point x="448" y="441" type="curve" smooth="yes"/>
      <point x="498" y="477"/>
      <point x="525" y="531"/>
      <point x="525" y="593" type="curve" smooth="yes"/>
      <point x="525" y="680"/>
      <point x="463" y="736"/>
      <point x="366" y="736" type="curve" smooth="yes"/>
      <point x="301" y="736"/>
      <point x="251" y="709"/>
      <point x="208" y="651" type="curve" smooth="yes"/>
      <point x="167" y="594"/>
      <point x="139" y="521"/>
      <point x="97" y="351" type="curve" smooth="yes"/>
    </contour>
  </outline>
</glyph>
<glyph name="agrave" format="2">
  <advance width="574"/>
  <unicode hex="00E0"/>
  <outline>
    <component base="a"/>
    <contour>
      <point x="370" y="519" type="line"/>
      <point x="258" y="663" type="line" smooth="yes"/>
      <point x="239" y="688"/>
      <point x="234" y="691"/>
      <point x="219" y="691" type="curve" smooth="yes"/>
      <point x="199" y="691"/>
      <point x="181" y="672"/>
      <point x="181" y="652" type="curve" smooth="yes"/>
      <point x="181" y="643"/>
      <point x="187" y="633"/>
      <point x="195" y="626" type="curve" smooth="yes"/>
      <point x="330" y="519" type="line"/>
    </contour>
  </outline>
</glyph>
<glyph name="aacute" format="2">
  <advance width="574"/>
  <unicode hex="00E1"/>
  <outline>
    <component base="a"/>
    <contour>
      <point x="253" y="519" type="line"/>
      <point x="291" y="519" type="line"/>
      <point x="450" y="615" type="line" smooth="yes"/>
      <point x="466" y="625"/>
      <point x="476" y="640"/>
      <point x="476" y="655" type="curve" smooth="yes"/>
      <point x="476" y="674"/>
      <point x="460" y="689"/>
      <point x="441" y="689" type="curve" smooth="yes"/>
      <point x="426" y="689"/>
      <point x="414" y="682"/>
      <point x="391" y="659" type="curve" smooth="yes"/>
    </contour>
  </outline>
</glyph>
<glyph name="acircumflex" format="2">
  <advance width="574"/>
  <unicode hex="00E2"/>
  <outline>
    <component base="a"/>
    <contour>
      <point x="367" y="688" type="line"/>
      <point x="318" y="688" type="line"/>
      <point x="164" y="519" type="line"/>
      <point x="200" y="519" type="line"/>
      <point x="336" y="623" type="line"/>
      <point x="422" y="519" type="line"/>
      <point x="458" y="519" type="line"/>
    </contour>
  </outline>
</glyph>
<glyph name="adieresis" format="2">
  <advance width="574"/>
  <unicode hex="00E4"/>
  <outline>
    <component base="a"/>
    <contour>
      <point x="229" y="644" type="curve" smooth="yes"/>
      <point x="202" y="644"/>
      <point x="180" y="622"/>
      <point x="180" y="595" type="curve" smooth="yes"/>
      <point x="180" y="568"/>
      <point x="202" y="546"/>
      <point x="229" y="546" type="curve" smooth="yes"/>
      <point x="256" y="546"/>
      <point x="278" y="568"/>
      <point x="278" y="595" type="curve" smooth="yes"/>
      <point x="278" y="622"/>
      <point x="256" y="644"/>
    </contour>
    <contour>
      <point x="431" y="644" type="curve" smooth="yes"/>
      <point x="404" y="644"/>
      <point x="382" y="622"/>
      <point x="382" y="595" type="curve" smooth="yes"/>
      <point x="382" y="568"/>
      <point x="404" y="546"/>
      <point x="430" y="546" type="curve" smooth="yes"/>
      <point x="458" y="546"/>
      <point x="480" y="568"/>
      <point x="480" y="595" type="curve" smooth="yes"/>
      <point x="480" y="622"/>
      <point x="458" y="644"/>
    </contour>
  </outline>
</glyph>
<glyph name="aring" format="2">
  <advance width="574"/>
  <unicode hex="00E5"/>
  <outline>
    <contour>
      <point x="396" y="455" type="line"/>
      <point x="369" y="365" type="line"/>
      <point x="362" y="427"/>
      <point x="312" y="470"/>
      <point x="247" y="470" type="curve" smooth="yes"/>
      <point x="185" y="470"/>
      <point x="129" y="439"/>
      <point x="82" y="378" type="curve" smooth="yes"/>
      <point x="31" y="312"/>
      <point x="1" y="228"/>
      <point x="1" y="148" type="curve" smooth="yes"/>
      <point x="1" y="50"/>
      <point x="60" y="-15"/>
      <point x="149" y="-15" type="curve" smooth="yes"/>
      <point x="212" y="-15"/>
      <point x="251" y="10"/>
      <point x="301" y="82" type="curve"/>
      <point x="297" y="67"/>
      <point x="296" y="60"/>
      <point x="296" y="50" type="curve" smooth="yes"/>
      <point x="296" y="11"/>
      <point x="321" y="-15"/>
      <point x="357" y="-15" type="curve" smooth="yes"/>
      <point x="401" y="-15"/>
      <point x="439" y="9"/>
      <point x="474" y="58" type="curve" smooth="yes"/>
      <point x="495" y="87"/>
      <point x="511" y="115"/>
      <point x="523" y="141" type="curve"/>
      <point x="492" y="158" type="line"/>
      <point x="454" y="81"/>
      <point x="419" y="40"/>
      <point x="393" y="40" type="curve" smooth="yes"/>
      <point x="381" y="40"/>
      <point x="372" y="51"/>
      <point x="372" y="65" type="curve" smooth="yes"/>
      <point x="372" y="76"/>
      <point x="376" y="93"/>
      <point x="383" y="119" type="curve" smooth="yes"/>
      <point x="483" y="455" type="line"/>
    </contour>
    <contour>
      <point x="264" y="415" type="curve" smooth="yes"/>
      <point x="311" y="415"/>
      <point x="340" y="382"/>
      <point x="340" y="326" type="curve" smooth="yes"/>
      <point x="340" y="268"/>
      <point x="320" y="189"/>
      <point x="289" y="126" type="curve" smooth="yes"/>
      <point x="258" y="64"/>
      <point x="222" y="36"/>
      <point x="172" y="36" type="curve" smooth="yes"/>
      <point x="122" y="36"/>
      <point x="92" y="73"/>
      <point x="92" y="134" type="curve" smooth="yes"/>
      <point x="92" y="222"/>
      <point x="131" y="325"/>
      <point x="184" y="380" type="curve" smooth="yes"/>
      <point x="206" y="403"/>
      <point x="234" y="415"/>
    </contour>
    <contour>
      <point x="329" y="712" type="curve" smooth="yes"/>
      <point x="275" y="712"/>
      <point x="230" y="667"/>
      <point x="230" y="613" type="curve" smooth="yes"/>
      <point x="230" y="558"/>
      <point x="275" y="513"/>
      <point x="328" y="513" type="curve" smooth="yes"/>
      <point x="385" y="513"/>
      <point x="429" y="557"/>
      <point x="429" y="613" type="curve" smooth="yes"/>
      <point x="429" y="668"/>
      <point x="384" y="712"/>
    </contour>
    <contour>
      <point x="330" y="676" type="curve" smooth="yes"/>
      <point x="365" y="676"/>
      <point x="393" y="648"/>
      <point x="393" y="613" type="curve" smooth="yes"/>
      <point x="393" y="577"/>
      <point x="365" y="549"/>
      <point x="329" y="549" type="curve" smooth="yes"/>
      <point x="295" y="549"/>
      <point x="266" y="578"/>
      <point x="266" y="613" type="curve" smooth="yes"/>
      <point x="266" y="648"/>
      <point x="294" y="676"/>
    </contour>
  </outline>
</glyph>
<glyph name="ae" format="2">
  <advance width="722"/>
  <unicode hex="00E6"/>
  <outline>
    <contour>
      <point x="610" y="117" type="line"/>
      <point x="563" y="61"/>
      <point x="511" y="33"/>
      <point x="456" y="33" type="curve" smooth="yes"/>
      <point x="396" y="33"/>
      <point x="361" y="72"/>
      <point x="361" y="137" type="curve" smooth="yes"/>
      <point x="361" y="155"/>
      <point x="363" y="167"/>
      <point x="370" y="192" type="curve"/>
      <point x="459" y="207"/>
      <point x="507" y="218"/>
      <point x="541" y="231" type="curve" smooth="yes"/>
      <point x="623" y="261"/>
      <point x="667" y="309"/>
      <point x="667" y="369" type="curve" smooth="yes"/>
      <point x="667" y="430"/>
      <point x="622" y="470"/>
      <point x="552" y="470" type="curve" smooth="yes"/>
      <point x="489" y="470"/>
      <point x="431" y="445"/>
      <point x="379" y="397" type="curve"/>
      <point x="340" y="446"/>
      <point x="291" y="470"/>
      <point x="226" y="470" type="curve" smooth="yes"/>
      <point x="136" y="470"/>
      <point x="65" y="420"/>
      <point x="65" y="355" type="curve" smooth="yes"/>
      <point x="65" y="321"/>
      <point x="86" y="299"/>
      <point x="119" y="299" type="curve" smooth="yes"/>
      <point x="151" y="299"/>
      <point x="172" y="319"/>
      <point x="172" y="349" type="curve" smooth="yes"/>
      <point x="172" y="367"/>
      <point x="166" y="381"/>
      <point x="155" y="390" type="curve"/>
      <point x="148" y="395"/>
      <point x="147" y="397"/>
      <point x="147" y="400" type="curve" smooth="yes"/>
      <point x="147" y="417"/>
      <point x="180" y="431"/>
      <point x="218" y="431" type="curve" smooth="yes"/>
      <point x="279" y="431"/>
      <point x="318" y="398"/>
      <point x="318" y="348" type="curve" smooth="yes"/>
      <point x="318" y="326"/>
      <point x="316" y="311"/>
      <point x="303" y="260" type="curve"/>
      <point x="204" y="247"/>
      <point x="183" y="243"/>
      <point x="130" y="227" type="curve" smooth="yes"/>
      <point x="29" y="195"/>
      <point x="-18" y="150"/>
      <point x="-18" y="84" type="curve" smooth="yes"/>
      <point x="-18" y="23"/>
      <point x="27" y="-15"/>
      <point x="100" y="-15" type="curve" smooth="yes"/>
      <point x="184" y="-15"/>
      <point x="236" y="14"/>
      <point x="288" y="91" type="curve"/>
      <point x="302" y="21"/>
      <point x="349" y="-15"/>
      <point x="430" y="-15" type="curve" smooth="yes"/>
      <point x="512" y="-15"/>
      <point x="577" y="18"/>
      <point x="638" y="91" type="curve"/>
    </contour>
    <contour>
      <point x="378" y="232" type="curve"/>
      <point x="398" y="299"/>
      <point x="409" y="325"/>
      <point x="430" y="360" type="curve" smooth="yes"/>
      <point x="456" y="403"/>
      <point x="492" y="427"/>
      <point x="530" y="427" type="curve" smooth="yes"/>
      <point x="561" y="427"/>
      <point x="581" y="407"/>
      <point x="581" y="375" type="curve" smooth="yes"/>
      <point x="581" y="327"/>
      <point x="551" y="286"/>
      <point x="501" y="264" type="curve" smooth="yes"/>
      <point x="469" y="250"/>
      <point x="433" y="240"/>
    </contour>
    <contour>
      <point x="293" y="220" type="curve"/>
      <point x="276" y="152"/>
      <point x="266" y="127"/>
      <point x="245" y="96" type="curve" smooth="yes"/>
      <point x="220" y="59"/>
      <point x="176" y="35"/>
      <point x="136" y="35" type="curve" smooth="yes"/>
      <point x="100" y="35"/>
      <point x="75" y="59"/>
      <point x="75" y="95" type="curve" smooth="yes"/>
      <point x="75" y="133"/>
      <point x="98" y="162"/>
      <point x="147" y="185" type="curve" smooth="yes"/>
      <point x="180" y="201"/>
      <point x="213" y="209"/>
    </contour>
  </outline>
</glyph>
<glyph name="eacute" format="2">
  <advance width="444"/>
  <unicode hex="00E9"/>
  <outline>
    <component base="e"/>
    <contour>
      <point x="188" y="519" type="line"/>
      <point x="227" y="519" type="line"/>
      <point x="386" y="615" type="line" smooth="yes"/>
      <point x="401" y="625"/>
      <point x="411" y="640"/>
      <point x="411" y="654" type="curve" smooth="yes"/>
      <point x="411" y="674"/>
      <point x="396" y="689"/>
      <point x="376" y="689" type="curve" smooth="yes"/>
      <point x="361" y="689"/>
      <point x="350" y="683"/>
      <point x="327" y="659" type="curve" smooth="yes"/>
    </contour>
  </outline>
</glyph>
<glyph name="ecircumflex" format="2">
  <advance width="444"/>
  <unicode hex="00EA"/>
  <outline>
    <component base="e"/>
    <contour>
      <point x="300" y="688" type="line"/>
      <point x="250" y="688" type="line"/>
      <point x="97" y="519" type="line"/>
      <point x="133" y="519" type="line"/>
      <point x="269" y="623" type="line"/>
      <point x="355" y="519" type="line"/>
      <point x="391" y="519" type="line"/>
    </contour>
  </outline>
</glyph>
<glyph name="edieresis" format="2">
  <advance width="444"/>
  <unicode hex="00EB"/>
  <outline>
    <component base="e"/>
    <contour>
      <point x="154" y="644" type="curve" smooth="yes"/>
      <point x="127" y="644"/>
      <point x="105" y="622"/>
      <point x="105" y="595" type="curve" smooth="yes"/>
      <point x="105" y="568"/>
      <point x="127" y="546"/>
      <point x="154" y="546" type="curve" smooth="yes"/>
      <point x="181" y="546"/>
      <point x="203" y="568"/>
      <point x="203" y="595" type="curve" smooth="yes"/>
      <point x="203" y="622"/>
      <point x="181" y="644"/>
    </contour>
    <contour>
      <point x="356" y="644" type="curve" smooth="yes"/>
      <point x="329" y="644"/>
      <point x="307" y="622"/>
      <point x="307" y="595" type="curve" smooth="yes"/>
      <point x="307" y="568"/>
      <point x="329" y="546"/>
      <point x="356" y="546" type="curve" smooth="yes"/>
      <point x="383" y="546"/>
      <point x="405" y="568"/>
      <point x="405" y="595" type="curve" smooth="yes"/>
      <point x="405" y="622"/>
      <point x="383" y="644"/>
    </contour>
  </outline>
</glyph>
<glyph name="igrave" format="2">
  <advance width="333"/>
  <unicode hex="00EC"/>
  <outline>
    <component base="dotlessi"/>
    <contour>
      <point x="217" y="519" type="line"/>
      <point x="104" y="663" type="line" smooth="yes"/>
      <point x="85" y="688"/>
      <point x="81" y="691"/>
      <point x="66" y="691" type="curve" smooth="yes"/>
      <point x="45" y="691"/>
      <point x="27" y="672"/>
      <point x="27" y="652" type="curve" smooth="yes"/>
      <point x="27" y="643"/>
      <point x="33" y="633"/>
      <point x="42" y="626" type="curve" smooth="yes"/>
      <point x="176" y="519" type="line"/>
    </contour>
  </outline>
</glyph>
<glyph name="iacute" format="2">
  <advance width="333"/>
  <unicode hex="00ED"/>
  <outline>
    <component base="dotlessi"/>
    <contour>
      <point x="132" y="519" type="line"/>
      <point x="171" y="519" type="line"/>
      <point x="330" y="615" type="line" smooth="yes"/>
      <point x="345" y="625"/>
      <point x="355" y="640"/>
      <point x="355" y="654" type="curve" smooth="yes"/>
      <point x="355" y="674"/>
      <point x="340" y="689"/>
      <point x="321" y="689" type="curve" smooth="yes"/>
      <point x="305" y="689"/>
      <point x="295" y="683"/>
      <point x="271" y="659" type="curve" smooth="yes"/>
    </contour>
  </outline>
</glyph>
<glyph name="icircumflex" format="2">
  <advance width="333"/>
  <unicode hex="00EE"/>
  <outline>
    <contour>
      <point x="200" y="688" type="line"/>
      <point x="150" y="688" type="line"/>
      <point x="-3" y="519" type="line"/>
      <point x="33" y="519" type="line"/>
      <point x="169" y="623" type="line"/>
      <point x="255" y="519" type="line"/>
      <point x="291" y="519" type="line"/>
    </contour>
    <component base="dotlessi"/>
  </outline>
</glyph>
<glyph name="ntilde" format="2">
  <advance width="611"/>
  <unicode hex="00F1"/>
  <outline>
    <contour>
      <point x="475" y="650" type="line"/>
      <point x="463" y="620"/>
      <point x="449" y="608"/>
      <point x="426" y="608" type="curve" smooth="yes"/>
      <point x="412" y="608"/>
      <point x="404" y="610"/>
      <point x="368" y="623" type="curve" smooth="yes"/>
      <point x="311" y="642"/>
      <point x="285" y="649"/>
      <point x="268" y="649" type="curve" smooth="yes"/>
      <point x="223" y="649"/>
      <point x="189" y="610"/>
      <point x="178" y="544" type="curve"/>
      <point x="208" y="544" type="line"/>
      <point x="216" y="574"/>
      <point x="231" y="589"/>
      <point x="252" y="589" type="curve" smooth="yes"/>
      <point x="267" y="589"/>
      <point x="283" y="584"/>
      <point x="326" y="568" type="curve" smooth="yes"/>
      <point x="380" y="548"/>
      <point x="390" y="545"/>
      <point x="412" y="545" type="curve" smooth="yes"/>
      <point x="457" y="545"/>
      <point x="499" y="593"/>
      <point x="506" y="650" type="curve"/>
    </contour>
    <component base="n"/>
  </outline>
</glyph>
<glyph name="ograve" format="2">
  <advance width="500"/>
  <unicode hex="00F2"/>
  <outline>
    <contour>
      <point x="348" y="519" type="line"/>
      <point x="236" y="663" type="line" smooth="yes"/>
      <point x="217" y="688"/>
      <point x="212" y="691"/>
      <point x="197" y="691" type="curve" smooth="yes"/>
      <point x="176" y="691"/>
      <point x="158" y="672"/>
      <point x="158" y="652" type="curve" smooth="yes"/>
      <point x="158" y="643"/>
      <point x="164" y="634"/>
      <point x="174" y="626" type="curve" smooth="yes"/>
      <point x="308" y="519" type="line"/>
    </contour>
    <component base="o"/>
  </outline>
</glyph>
<glyph name="oacute" format="2">
  <advance width="500"/>
  <unicode hex="00F3"/>
  <outline>
    <contour>
      <point x="227" y="519" type="line"/>
      <point x="266" y="519" type="line"/>
      <point x="425" y="615" type="line" smooth="yes"/>
      <point x="440" y="625"/>
      <point x="450" y="640"/>
      <point x="450" y="654" type="curve" smooth="yes"/>
      <point x="450" y="674"/>
      <point x="435" y="689"/>
      <point x="415" y="689" type="curve" smooth="yes"/>
      <point x="400" y="689"/>
      <point x="389" y="683"/>
      <point x="366" y="659" type="curve" smooth="yes"/>
    </contour>
    <component base="o"/>
  </outline>
</glyph>
<glyph name="ocircumflex" format="2">
  <advance width="500"/>
  <unicode hex="00F4"/>
  <outline>
    <contour>
      <point x="344" y="688" type="line"/>
      <point x="294" y="688" type="line"/>
      <point x="141" y="519" type="line"/>
      <point x="176" y="519" type="line"/>
      <point x="313" y="623" type="line"/>
      <point x="399" y="519" type="line"/>
      <point x="435" y="519" type="line"/>
    </contour>
    <component base="o"/>
  </outline>
</glyph>
<glyph name="otilde" format="2">
  <advance width="500"/>
  <unicode hex="00F5"/>
  <outline>
    <contour>
      <point x="273" y="470" type="curve" smooth="yes"/>
      <point x="207" y="470"/>
      <point x="143" y="440"/>
      <point x="89" y="384" type="curve" smooth="yes"/>
      <point x="33" y="327"/>
      <point x="5" y="255"/>
      <point x="5" y="172" type="curve" smooth="yes"/>
      <point x="5" y="57"/>
      <point x="74" y="-15"/>
      <point x="183" y="-15" type="curve" smooth="yes"/>
      <point x="256" y="-15"/>
      <point x="316" y="12"/>
      <point x="365" y="67" type="curve" smooth="yes"/>
      <point x="418" y="127"/>
      <point x="450" y="207"/>
      <point x="450" y="282" type="curve" smooth="yes"/>
      <point x="450" y="385"/>
      <point x="370" y="470"/>
    </contour>
    <contour>
      <point x="268" y="432" type="curve" smooth="yes"/>
      <point x="323" y="432"/>
      <point x="355" y="386"/>
      <point x="355" y="309" type="curve" smooth="yes"/>
      <point x="355" y="257"/>
      <point x="335" y="177"/>
      <point x="308" y="122" type="curve" smooth="yes"/>
      <point x="274" y="53"/>
      <point x="237" y="23"/>
      <point x="184" y="23" type="curve" smooth="yes"/>
      <point x="126" y="23"/>
      <point x="95" y="60"/>
      <point x="95" y="128" type="curve" smooth="yes"/>
      <point x="95" y="212"/>
      <point x="129" y="323"/>
      <point x="170" y="378" type="curve" smooth="yes"/>
      <point x="198" y="414"/>
      <point x="230" y="432"/>
    </contour>
    <contour>
      <point x="424" y="650" type="line"/>
      <point x="412" y="620"/>
      <point x="397" y="608"/>
      <point x="375" y="608" type="curve" smooth="yes"/>
      <point x="361" y="608"/>
      <point x="352" y="610"/>
      <point x="316" y="623" type="curve" smooth="yes"/>
      <point x="259" y="642"/>
      <point x="233" y="649"/>
      <point x="216" y="649" type="curve" smooth="yes"/>
      <point x="171" y="649"/>
      <point x="138" y="610"/>
      <point x="126" y="544" type="curve"/>
      <point x="156" y="544" type="line"/>
      <point x="164" y="574"/>
      <point x="179" y="589"/>
      <point x="201" y="589" type="curve" smooth="yes"/>
      <point x="215" y="589"/>
      <point x="231" y="584"/>
      <point x="275" y="568" type="curve" smooth="yes"/>
      <point x="328" y="548"/>
      <point x="339" y="545"/>
      <point x="361" y="545" type="curve" smooth="yes"/>
      <point x="405" y="545"/>
      <point x="448" y="593"/>
      <point x="454" y="650" type="curve"/>
    </contour>
  </outline>
</glyph>
<glyph name="ugrave" format="2">
  <advance width="611"/>
  <unicode hex="00F9"/>
  <outline>
    <component base="u"/>
    <contour>
      <point x="395" y="519" type="line"/>
      <point x="282" y="663" type="line" smooth="yes"/>
      <point x="264" y="688"/>
      <point x="259" y="691"/>
      <point x="244" y="691" type="curve" smooth="yes"/>
      <point x="223" y="691"/>
      <point x="205" y="672"/>
      <point x="205" y="652" type="curve" smooth="yes"/>
      <point x="205" y="643"/>
      <point x="211" y="634"/>
      <point x="220" y="626" type="curve"/>
      <point x="355" y="519" type="line"/>
    </contour>
  </outline>
</glyph>
<glyph name="ucircumflex" format="2">
  <advance width="611"/>
  <unicode hex="00FB"/>
  <outline>
    <component base="u"/>
    <contour>
      <point x="392" y="688" type="line"/>
      <point x="342" y="688" type="line"/>
      <point x="189" y="519" type="line"/>
      <point x="225" y="519" type="line"/>
      <point x="361" y="623" type="line"/>
      <point x="447" y="519" type="line"/>
      <point x="483" y="519" type="line"/>
    </contour>
  </outline>
</glyph>
<glyph name="udieresis" format="2">
  <advance width="611"/>
  <unicode hex="00FC"/>
  <outline>
    <component base="u"/>
    <contour>
      <point x="247" y="644" type="curve" smooth="yes"/>
      <point x="220" y="644"/>
      <point x="198" y="622"/>
      <point x="198" y="595" type="curve" smooth="yes"/>
      <point x="198" y="568"/>
      <point x="220" y="546"/>
      <point x="247" y="546" type="curve" smooth="yes"/>
      <point x="274" y="546"/>
      <point x="296" y="568"/>
      <point x="296" y="595" type="curve" smooth="yes"/>
      <point x="296" y="622"/>
      <point x="274" y="644"/>
    </contour>
    <contour>
      <point x="449" y="644" type="curve" smooth="yes"/>
      <point x="422" y="644"/>
      <point x="400" y="622"/>
      <point x="400" y="595" type="curve" smooth="yes"/>
      <point x="400" y="568"/>
      <point x="422" y="546"/>
      <point x="449" y="546" type="curve" smooth="yes"/>
      <point x="476" y="546"/>
      <point x="498" y="568"/>
      <point x="498" y="595" type="curve" smooth="yes"/>
      <point x="498" y="622"/>
      <point x="476" y="644"/>
    </contour>
  </outline>
</glyph>
<glyph name="yacute" format="2">
  <advance width="500"/>
  <unicode hex="00FD"/>
  <outline>
    <component base="y"/>
    <contour>
      <point x="231" y="519" type="line"/>
      <point x="269" y="519" type="line"/>
      <point x="428" y="615" type="line" smooth="yes"/>
      <point x="444" y="625"/>
      <point x="454" y="640"/>
      <point x="454" y="654" type="curve" smooth="yes"/>
      <point x="454" y="674"/>
      <point x="439" y="689"/>
      <point x="419" y="689" type="curve" smooth="yes"/>
      <point x="404" y="689"/>
      <point x="392" y="682"/>
      <point x="369" y="659" type="curve" smooth="yes"/>
    </contour>
  </outline>
</glyph>
<glyph name="thorn" format="2">
  <advance width="574"/>
  <unicode hex="00FE"/>
  <outline>
    <contour>
      <point x="323" y="737" type="line"/>
      <point x="124" y="722" type="line"/>
      <point x="120" y="686" type="line"/>
      <point x="152" y="686" type="line" smooth="yes"/>
      <point x="193" y="686"/>
      <point x="209" y="677"/>
      <point x="209" y="655" type="curve" smooth="yes"/>
      <point x="209" y="645"/>
      <point x="207" y="638"/>
      <point x="200" y="611" type="curve" smooth="yes"/>
      <point x="-9" y="-90" type="line" smooth="yes"/>
      <point x="-28" y="-162"/>
      <point x="-29" y="-163"/>
      <point x="-97" y="-166" type="curve"/>
      <point x="-101" y="-202" type="line"/>
      <point x="139" y="-202" type="line"/>
      <point x="143" y="-166" type="line"/>
      <point x="131" y="-166" type="line" smooth="yes"/>
      <point x="83" y="-166"/>
      <point x="67" y="-160"/>
      <point x="67" y="-140" type="curve" smooth="yes"/>
      <point x="67" y="-132"/>
      <point x="71" y="-114"/>
      <point x="78" y="-90" type="curve" smooth="yes"/>
      <point x="126" y="73" type="line"/>
      <point x="155" y="4"/>
      <point x="180" y="-15"/>
      <point x="246" y="-15" type="curve" smooth="yes"/>
      <point x="317" y="-15"/>
      <point x="378" y="16"/>
      <point x="426" y="78" type="curve" smooth="yes"/>
      <point x="477" y="142"/>
      <point x="506" y="224"/>
      <point x="506" y="307" type="curve" smooth="yes"/>
      <point x="506" y="356"/>
      <point x="496" y="389"/>
      <point x="473" y="418" type="curve" smooth="yes"/>
      <point x="447" y="450"/>
      <point x="407" y="470"/>
      <point x="368" y="470" type="curve" smooth="yes"/>
      <point x="317" y="470"/>
      <point x="264" y="440"/>
      <point x="219" y="385" type="curve"/>
    </contour>
    <contour>
      <point x="337" y="417" type="curve" smooth="yes"/>
      <point x="382" y="417"/>
      <point x="412" y="382"/>
      <point x="412" y="329" type="curve" smooth="yes"/>
      <point x="412" y="274"/>
      <point x="395" y="206"/>
      <point x="365" y="144" type="curve" smooth="yes"/>
      <point x="330" y="69"/>
      <point x="290" y="35"/>
      <point x="237" y="35" type="curve" smooth="yes"/>
      <point x="188" y="35"/>
      <point x="153" y="74"/>
      <point x="153" y="127" type="curve" smooth="yes"/>
      <point x="153" y="185"/>
      <point x="184" y="281"/>
      <point x="222" y="339" type="curve" smooth="yes"/>
      <point x="255" y="389"/>
      <point x="296" y="417"/>
    </contour>
  </outline>
</glyph>
<glyph name="ydieresis" format="2">
  <advance width="500"/>
  <unicode hex="00FF"/>
  <outline>
    <component base="y"/>
    <contour>
      <point x="199" y="644" type="curve" smooth="yes"/>
      <point x="172" y="644"/>
      <point x="150" y="622"/>
      <point x="150" y="595" type="curve" smooth="yes"/>
      <point x="150" y="568"/>
      <point x="172" y="546"/>
      <point x="199" y="546" type="curve" smooth="yes"/>
      <point x="226" y="546"/>
      <point x="248" y="568"/>
      <point x="248" y="595" type="curve" smooth="yes"/>
      <point x="248" y="622"/>
      <point x="226" y="644"/>
    </contour>
    <contour>
      <point x="401" y="644" type="curve" smooth="yes"/>
      <point x="374" y="644"/>
      <point x="352" y="622"/>
      <point x="352" y="595" type="curve" smooth="yes"/>
      <point x="352" y="568"/>
      <point x="374" y="546"/>
      <point x="401" y="546" type="curve" smooth="yes"/>
      <point x="428" y="546"/>
      <point x="450" y="568"/>
      <point x="450" y="595" type="curve" smooth="yes"/>
      <point x="450" y="622"/>
      <point x="428" y="644"/>
    </contour>
  </outline>
</glyph>
<glyph name="Amacron" format="2">
  <advance width="704"/>
  <unicode hex="0100"/>
  <outline>
    <component base="A"/>
    <contour>
      <point x="293" y="877" type="line"/>
      <point x="282" y="823" type="line"/>
      <point x="583" y="823" type="line"/>
      <point x="594" y="877" type="line"/>
    </contour>
  </outline>
</glyph>
<glyph name="Abreve" format="2">
  <advance width="704"/>
  <unicode hex="0102"/>
  <outline>
    <component base="A"/>
    <contour>
      <point x="291" y="935" type="line"/>
      <point x="290" y="914" type="line"/>
      <point x="290" y="830"/>
      <point x="343" y="774"/>
      <point x="424" y="774" type="curve" smooth="yes"/>
      <point x="508" y="774"/>
      <point x="572" y="835"/>
      <point x="592" y="935" type="curve"/>
      <point x="561" y="935" type="line"/>
      <point x="536" y="872"/>
      <point x="488" y="837"/>
      <point x="428" y="837" type="curve" smooth="yes"/>
      <point x="365" y="837"/>
      <point x="324" y="874"/>
      <point x="321" y="935" type="curve"/>
    </contour>
  </outline>
</glyph>
<glyph name="abreve" format="2">
  <advance width="574"/>
  <unicode hex="0103"/>
  <outline>
    <component base="a"/>
    <contour>
      <point x="191" y="677" type="line"/>
      <point x="190" y="667"/>
      <point x="190" y="661"/>
      <point x="190" y="653" type="curve" smooth="yes"/>
      <point x="190" y="573"/>
      <point x="245" y="518"/>
      <point x="324" y="518" type="curve" smooth="yes"/>
      <point x="407" y="518"/>
      <point x="472" y="580"/>
      <point x="491" y="677" type="curve"/>
      <point x="460" y="677" type="line"/>
      <point x="434" y="615"/>
      <point x="388" y="581"/>
      <point x="327" y="581" type="curve" smooth="yes"/>
      <point x="264" y="581"/>
      <point x="223" y="617"/>
      <point x="220" y="677" type="curve"/>
    </contour>
  </outline>
</glyph>
<glyph name="Cacute" format="2">
  <advance width="722"/>
  <unicode hex="0106"/>
  <outline>
    <component base="C"/>
    <contour>
      <point x="409" y="774" type="line"/>
      <point x="448" y="774" type="line"/>
      <point x="607" y="874" type="line" smooth="yes"/>
      <point x="622" y="883"/>
      <point x="632" y="899"/>
      <point x="632" y="913" type="curve" smooth="yes"/>
      <point x="632" y="932"/>
      <point x="617" y="947"/>
      <point x="597" y="947" type="curve" smooth="yes"/>
      <point x="582" y="947"/>
      <point x="569" y="939"/>
      <point x="548" y="917" type="curve" smooth="yes"/>
    </contour>
  </outline>
</glyph>
<glyph name="cacute" format="2">
  <advance width="444"/>
  <unicode hex="0107"/>
  <outline>
    <component base="c"/>
    <contour>
      <point x="221" y="519" type="line"/>
      <point x="260" y="519" type="line"/>
      <point x="419" y="615" type="line" smooth="yes"/>
      <point x="434" y="625"/>
      <point x="444" y="640"/>
      <point x="444" y="654" type="curve" smooth="yes"/>
      <point x="444" y="674"/>
      <point x="429" y="689"/>
      <point x="409" y="689" type="curve" smooth="yes"/>
      <point x="394" y="689"/>
      <point x="383" y="682"/>
      <point x="359" y="659" type="curve" smooth="yes"/>
    </contour>
  </outline>
</glyph>
<glyph name="Ccircumflex" format="2">
  <advance width="722"/>
  <unicode hex="0108"/>
  <outline>
    <component base="C"/>
    <contour>
      <point x="515" y="940" type="line"/>
      <point x="466" y="940" type="line"/>
      <point x="312" y="774" type="line"/>
      <point x="348" y="774" type="line"/>
      <point x="485" y="875" type="line"/>
      <point x="571" y="774" type="line"/>
      <point x="606" y="774" type="line"/>
    </contour>
  </outline>
</glyph>
<glyph name="ccircumflex" format="2">
  <advance width="444"/>
  <unicode hex="0109"/>
  <outline>
    <component base="c"/>
    <contour>
      <point x="299" y="688" type="line"/>
      <point x="249" y="688" type="line"/>
      <point x="96" y="519" type="line"/>
      <point x="132" y="519" type="line"/>
      <point x="268" y="623" type="line"/>
      <point x="354" y="519" type="line"/>
      <point x="390" y="519" type="line"/>
    </contour>
  </outline>
</glyph>
<glyph name="Cdotaccent" format="2">
  <advance width="722"/>
  <unicode hex="010A"/>
  <outline>
    <component base="C"/>
    <contour>
      <point x="458" y="910" type="curve" smooth="yes"/>
      <point x="431" y="910"/>
      <point x="409" y="888"/>
      <point x="409" y="861" type="curve" smooth="yes"/>
      <point x="409" y="834"/>
      <point x="431" y="812"/>
      <point x="457" y="812" type="curve" smooth="yes"/>
      <point x="485" y="812"/>
      <point x="507" y="834"/>
      <point x="507" y="861" type="curve" smooth="yes"/>
      <point x="507" y="888"/>
      <point x="485" y="910"/>
    </contour>
  </outline>
</glyph>
<glyph name="cdotaccent" format="2">
  <advance width="444"/>
  <unicode hex="010B"/>
  <outline>
    <component base="c"/>
    <contour>
      <point x="303" y="644" type="curve" smooth="yes"/>
      <point x="276" y="644"/>
      <point x="254" y="622"/>
      <point x="254" y="595" type="curve" smooth="yes"/>
      <point x="254" y="568"/>
      <point x="276" y="546"/>
      <point x="303" y="546" type="curve" smooth="yes"/>
      <point x="330" y="546"/>
      <point x="352" y="568"/>
      <point x="352" y="595" type="curve" smooth="yes"/>
      <point x="352" y="622"/>
      <point x="330" y="644"/>
    </contour>
  </outline>
</glyph>
<glyph name="Ccaron" format="2">
  <advance width="722"/>
  <unicode hex="010C"/>
  <outline>
    <component base="C"/>
    <contour>
      <point x="439" y="774" type="line"/>
      <point x="488" y="774" type="line"/>
      <point x="642" y="940" type="line"/>
      <point x="606" y="940" type="line"/>
      <point x="469" y="839" type="line"/>
      <point x="383" y="940" type="line"/>
      <point x="348" y="940" type="line"/>
    </contour>
  </outline>
</glyph>
<glyph name="ccaron" format="2">
  <advance width="444"/>
  <unicode hex="010D"/>
  <outline>
    <component base="c"/>
    <contour>
      <point x="264" y="520" type="line"/>
      <point x="315" y="520" type="line"/>
      <point x="474" y="683" type="line"/>
      <point x="437" y="683" type="line"/>
      <point x="295" y="585" type="line"/>
      <point x="206" y="683" type="line"/>
      <point x="169" y="683" type="line"/>
    </contour>
  </outline>
</glyph>
<glyph name="Dcaron" format="2">
  <advance width="778"/>
  <unicode hex="010E"/>
  <outline>
    <component base="D"/>
    <contour>
      <point x="420" y="774" type="line"/>
      <point x="470" y="774" type="line"/>
      <point x="623" y="940" type="line"/>
      <point x="587" y="940" type="line"/>
      <point x="451" y="839" type="line"/>
      <point x="365" y="940" type="line"/>
      <point x="329" y="940" type="line"/>
    </contour>
  </outline>
</glyph>
<glyph name="dcaron" format="2">
  <advance width="611"/>
  <unicode hex="010F"/>
  <outline>
    <contour>
      <point x="536" y="158" type="line"/>
      <point x="478" y="64"/>
      <point x="453" y="38"/>
      <point x="420" y="38" type="curve" smooth="yes"/>
      <point x="404" y="38"/>
      <point x="395" y="48"/>
      <point x="395" y="66" type="curve" smooth="yes"/>
      <point x="395" y="79"/>
      <point x="400" y="102"/>
      <point x="410" y="137" type="curve" smooth="yes"/>
      <point x="588" y="737" type="line"/>
      <point x="389" y="722" type="line"/>
      <point x="385" y="686" type="line"/>
      <point x="416" y="686" type="line" smooth="yes"/>
      <point x="457" y="686"/>
      <point x="473" y="677"/>
      <point x="473" y="655" type="curve" smooth="yes"/>
      <point x="473" y="645"/>
      <point x="470" y="632"/>
      <point x="464" y="611" type="curve" smooth="yes"/>
      <point x="398" y="389" type="line"/>
      <point x="390" y="412"/>
      <point x="384" y="423"/>
      <point x="373" y="434" type="curve" smooth="yes"/>
      <point x="352" y="456"/>
      <point x="318" y="470"/>
      <point x="283" y="470" type="curve" smooth="yes"/>
      <point x="139" y="470"/>
      <point x="5" y="316"/>
      <point x="5" y="150" type="curve" smooth="yes"/>
      <point x="5" y="52"/>
      <point x="68" y="-15"/>
      <point x="162" y="-15" type="curve" smooth="yes"/>
      <point x="230" y="-15"/>
      <point x="280" y="13"/>
      <point x="324" y="78" type="curve"/>
      <point x="323" y="70"/>
      <point x="323" y="60"/>
      <point x="323" y="56" type="curve" smooth="yes"/>
      <point x="323" y="10"/>
      <point x="347" y="-15"/>
      <point x="391" y="-15" type="curve" smooth="yes"/>
      <point x="454" y="-15"/>
      <point x="509" y="34"/>
      <point x="566" y="140" type="curve"/>
    </contour>
    <contour>
      <point x="286" y="425" type="curve" smooth="yes"/>
      <point x="335" y="425"/>
      <point x="371" y="387"/>
      <point x="371" y="335" type="curve" smooth="yes"/>
      <point x="371" y="281"/>
      <point x="346" y="190"/>
      <point x="314" y="129" type="curve" smooth="yes"/>
      <point x="280" y="64"/>
      <point x="239" y="32"/>
      <point x="191" y="32" type="curve" smooth="yes"/>
      <point x="137" y="32"/>
      <point x="102" y="75"/>
      <point x="102" y="140" type="curve" smooth="yes"/>
      <point x="102" y="197"/>
      <point x="123" y="270"/>
      <point x="155" y="326" type="curve" smooth="yes"/>
      <point x="193" y="392"/>
      <point x="236" y="425"/>
    </contour>
    <contour>
      <point x="553" y="461" type="line"/>
      <point x="650" y="499"/>
      <point x="713" y="568"/>
      <point x="713" y="637" type="curve" smooth="yes"/>
      <point x="713" y="679"/>
      <point x="687" y="709"/>
      <point x="650" y="709" type="curve" smooth="yes"/>
      <point x="616" y="709"/>
      <point x="590" y="685"/>
      <point x="590" y="653" type="curve" smooth="yes"/>
      <point x="590" y="624"/>
      <point x="610" y="606"/>
      <point x="640" y="606" type="curve" smooth="yes"/>
      <point x="655" y="606" type="line"/>
      <point x="648" y="561"/>
      <point x="608" y="520"/>
      <point x="541" y="489" type="curve"/>
    </contour>
  </outline>
</glyph>
<glyph name="Dcroat" format="2">
  <advance width="778"/>
  <unicode hex="0110"/>
  <outline>
    <contour>
      <point x="-38" y="0" type="line"/>
      <point x="264" y="0" type="line" smooth="yes"/>
      <point x="405" y="0"/>
      <point x="491" y="22"/>
      <point x="560" y="77" type="curve" smooth="yes"/>
      <point x="667" y="162"/>
      <point x="735" y="301"/>
      <point x="735" y="435" type="curve" smooth="yes"/>
      <point x="735" y="537"/>
      <point x="698" y="620"/>
      <point x="631" y="670" type="curve" smooth="yes"/>
      <point x="581" y="708"/>
      <point x="518" y="722"/>
      <point x="406" y="722" type="curve" smooth="yes"/>
      <point x="116" y="722" type="line"/>
      <point x="110" y="675" type="line"/>
      <point x="136" y="675" type="line" smooth="yes"/>
      <point x="201" y="675"/>
      <point x="215" y="670"/>
      <point x="215" y="648" type="curve" smooth="yes"/>
      <point x="215" y="640"/>
      <point x="211" y="620"/>
      <point x="206" y="599" type="curve" smooth="yes"/>
      <point x="151" y="401" type="line"/>
      <point x="48" y="401" type="line"/>
      <point x="36" y="354" type="line"/>
      <point x="138" y="354" type="line"/>
      <point x="78" y="123" type="line" smooth="yes"/>
      <point x="65" y="72"/>
      <point x="64" y="70"/>
      <point x="55" y="61" type="curve" smooth="yes"/>
      <point x="45" y="51"/>
      <point x="24" y="48"/>
      <point x="-28" y="47" type="curve" smooth="yes"/>
      <point x="-33" y="47" type="line"/>
    </contour>
    <contour>
      <point x="227" y="47" type="line" smooth="yes"/>
      <point x="196" y="47"/>
      <point x="181" y="56"/>
      <point x="181" y="76" type="curve" smooth="yes"/>
      <point x="181" y="84"/>
      <point x="183" y="98"/>
      <point x="187" y="110" type="curve"/>
      <point x="250" y="354" type="line"/>
      <point x="449" y="354" type="line"/>
      <point x="461" y="401" type="line"/>
      <point x="263" y="401" type="line"/>
      <point x="320" y="610" type="line" smooth="yes"/>
      <point x="334" y="667"/>
      <point x="344" y="675"/>
      <point x="396" y="675" type="curve" smooth="yes"/>
      <point x="426" y="675" type="line" smooth="yes"/>
      <point x="486" y="675"/>
      <point x="537" y="659"/>
      <point x="566" y="631" type="curve" smooth="yes"/>
      <point x="595" y="602"/>
      <point x="614" y="547"/>
      <point x="614" y="489" type="curve" smooth="yes"/>
      <point x="614" y="352"/>
      <point x="546" y="176"/>
      <point x="465" y="104" type="curve" smooth="yes"/>
      <point x="420" y="65"/>
      <point x="356" y="47"/>
      <point x="259" y="47" type="curve" smooth="yes"/>
    </contour>
  </outline>
</glyph>
<glyph name="Emacron" format="2">
  <advance width="722"/>
  <unicode hex="0112"/>
  <outline>
    <component base="E"/>
    <contour>
      <point x="302" y="877" type="line"/>
      <point x="291" y="823" type="line"/>
      <point x="592" y="823" type="line"/>
      <point x="603" y="877" type="line"/>
    </contour>
  </outline>
</glyph>
<glyph name="Ebreve" format="2">
  <advance width="722"/>
  <unicode hex="0114"/>
  <outline>
    <component base="E"/>
    <contour>
      <point x="306" y="935" type="line"/>
      <point x="305" y="926"/>
      <point x="305" y="917"/>
      <point x="305" y="914" type="curve" smooth="yes"/>
      <point x="305" y="830"/>
      <point x="358" y="774"/>
      <point x="439" y="774" type="curve" smooth="yes"/>
      <point x="523" y="774"/>
      <point x="588" y="836"/>
      <point x="606" y="935" type="curve"/>
      <point x="576" y="935" type="line"/>
      <point x="551" y="872"/>
      <point x="503" y="837"/>
      <point x="443" y="837" type="curve" smooth="yes"/>
      <point x="379" y="837"/>
      <point x="339" y="874"/>
      <point x="336" y="935" type="curve"/>
    </contour>
  </outline>
</glyph>
<glyph name="ebreve" format="2">
  <advance width="444"/>
  <unicode hex="0115"/>
  <outline>
    <component base="e"/>
    <contour>
      <point x="132" y="677" type="line"/>
      <point x="131" y="666"/>
      <point x="130" y="657"/>
      <point x="130" y="653" type="curve" smooth="yes"/>
      <point x="130" y="573"/>
      <point x="185" y="518"/>
      <point x="264" y="518" type="curve" smooth="yes"/>
      <point x="348" y="518"/>
      <point x="413" y="580"/>
      <point x="431" y="677" type="curve"/>
      <point x="401" y="677" type="line"/>
      <point x="375" y="615"/>
      <point x="328" y="581"/>
      <point x="268" y="581" type="curve" smooth="yes"/>
      <point x="205" y="581"/>
      <point x="164" y="617"/>
      <point x="161" y="677" type="curve"/>
    </contour>
  </outline>
</glyph>
<glyph name="edotaccent" format="2">
  <advance width="444"/>
  <unicode hex="0117"/>
  <outline>
    <component base="e"/>
    <contour>
      <point x="263" y="644" type="curve" smooth="yes"/>
      <point x="236" y="644"/>
      <point x="214" y="622"/>
      <point x="214" y="595" type="curve" smooth="yes"/>
      <point x="214" y="568"/>
      <point x="236" y="546"/>
      <point x="263" y="546" type="curve" smooth="yes"/>
      <point x="290" y="546"/>
      <point x="312" y="568"/>
      <point x="312" y="595" type="curve" smooth="yes"/>
      <point x="312" y="622"/>
      <point x="290" y="644"/>
    </contour>
  </outline>
</glyph>
<glyph name="Ecaron" format="2">
  <advance width="722"/>
  <unicode hex="011A"/>
  <outline>
    <component base="E"/>
    <contour>
      <point x="412" y="774" type="line"/>
      <point x="462" y="774" type="line"/>
      <point x="615" y="940" type="line"/>
      <point x="579" y="940" type="line"/>
      <point x="443" y="839" type="line"/>
      <point x="357" y="940" type="line"/>
      <point x="321" y="940" type="line"/>
    </contour>
  </outline>
</glyph>
<glyph name="ecaron" format="2">
  <advance width="444"/>
  <unicode hex="011B"/>
  <outline>
    <component base="e"/>
    <contour>
      <point x="223" y="520" type="line"/>
      <point x="274" y="520" type="line"/>
      <point x="434" y="683" type="line"/>
      <point x="397" y="683" type="line"/>
      <point x="255" y="585" type="line"/>
      <point x="166" y="683" type="line"/>
      <point x="129" y="683" type="line"/>
    </contour>
  </outline>
</glyph>
<glyph name="Gcircumflex" format="2">
  <advance width="778"/>
  <unicode hex="011C"/>
  <outline>
    <component base="G"/>
    <contour>
      <point x="514" y="940" type="line"/>
      <point x="465" y="940" type="line"/>
      <point x="311" y="774" type="line"/>
      <point x="347" y="774" type="line"/>
      <point x="484" y="875" type="line"/>
      <point x="570" y="774" type="line"/>
      <point x="605" y="774" type="line"/>
    </contour>
  </outline>
</glyph>
<glyph name="gcircumflex" format="2">
  <advance width="537"/>
  <unicode hex="011D"/>
  <outline>
    <component base="g"/>
    <contour>
      <point x="325" y="688" type="line"/>
      <point x="275" y="688" type="line"/>
      <point x="122" y="519" type="line"/>
      <point x="158" y="519" type="line"/>
      <point x="294" y="623" type="line"/>
      <point x="380" y="519" type="line"/>
      <point x="416" y="519" type="line"/>
    </contour>
  </outline>
</glyph>
<glyph name="Gbreve" format="2">
  <advance width="778"/>
  <unicode hex="011E"/>
  <outline>
    <component base="G"/>
    <contour>
      <point x="348" y="935" type="line"/>
      <point x="347" y="914" type="line"/>
      <point x="347" y="830"/>
      <point x="400" y="774"/>
      <point x="481" y="774" type="curve" smooth="yes"/>
      <point x="565" y="774"/>
      <point x="630" y="836"/>
      <point x="649" y="935" type="curve"/>
      <point x="618" y="935" type="line"/>
      <point x="593" y="872"/>
      <point x="545" y="837"/>
      <point x="485" y="837" type="curve" smooth="yes"/>
      <point x="422" y="837"/>
      <point x="381" y="874"/>
      <point x="378" y="935" type="curve"/>
    </contour>
  </outline>
</glyph>
<glyph name="gbreve" format="2">
  <advance width="537"/>
  <unicode hex="011F"/>
  <outline>
    <component base="g"/>
    <contour>
      <point x="172" y="677" type="line"/>
      <point x="171" y="667"/>
      <point x="171" y="658"/>
      <point x="171" y="653" type="curve" smooth="yes"/>
      <point x="171" y="573"/>
      <point x="226" y="518"/>
      <point x="305" y="518" type="curve" smooth="yes"/>
      <point x="389" y="518"/>
      <point x="454" y="580"/>
      <point x="472" y="677" type="curve"/>
      <point x="441" y="677" type="line"/>
      <point x="416" y="615"/>
      <point x="369" y="581"/>
      <point x="309" y="581" type="curve" smooth="yes"/>
      <point x="245" y="581"/>
      <point x="205" y="617"/>
      <point x="202" y="677" type="curve"/>
    </contour>
  </outline>
</glyph>
<glyph name="Gdotaccent" format="2">
  <advance width="778"/>
  <unicode hex="0120"/>
  <outline>
    <component base="G"/>
    <contour>
      <point x="467" y="910" type="curve" smooth="yes"/>
      <point x="440" y="910"/>
      <point x="418" y="888"/>
      <point x="418" y="861" type="curve" smooth="yes"/>
      <point x="418" y="834"/>
      <point x="440" y="812"/>
      <point x="466" y="812" type="curve" smooth="yes"/>
      <point x="494" y="812"/>
      <point x="516" y="834"/>
      <point x="516" y="861" type="curve" smooth="yes"/>
      <point x="516" y="888"/>
      <point x="494" y="910"/>
    </contour>
  </outline>
</glyph>
<glyph name="Gcommaaccent" format="2">
  <advance width="778"/>
  <unicode hex="0122"/>
  <outline>
    <component base="G"/>
    <contour>
      <point x="172" y="-288" type="line"/>
      <point x="269" y="-250"/>
      <point x="332" y="-181"/>
      <point x="332" y="-112" type="curve" smooth="yes"/>
      <point x="332" y="-70"/>
      <point x="305" y="-40"/>
      <point x="269" y="-40" type="curve" smooth="yes"/>
      <point x="235" y="-40"/>
      <point x="208" y="-64"/>
      <point x="208" y="-96" type="curve" smooth="yes"/>
      <point x="208" y="-125"/>
      <point x="228" y="-143"/>
      <point x="259" y="-143" type="curve" smooth="yes"/>
      <point x="274" y="-143" type="line"/>
      <point x="267" y="-188"/>
      <point x="227" y="-230"/>
      <point x="160" y="-260" type="curve"/>
    </contour>
  </outline>
</glyph>
<glyph name="gcommaaccent" format="2">
  <advance width="537"/>
  <unicode hex="0123"/>
  <outline>
    <component base="g"/>
    <contour>
      <point x="395" y="759" type="line"/>
      <point x="298" y="722"/>
      <point x="235" y="652"/>
      <point x="235" y="583" type="curve" smooth="yes"/>
      <point x="235" y="541"/>
      <point x="261" y="511"/>
      <point x="298" y="511" type="curve" smooth="yes"/>
      <point x="332" y="511"/>
      <point x="358" y="535"/>
      <point x="358" y="567" type="curve" smooth="yes"/>
      <point x="358" y="596"/>
      <point x="338" y="614"/>
      <point x="308" y="614" type="curve" smooth="yes"/>
      <point x="293" y="614" type="line"/>
      <point x="301" y="660"/>
      <point x="340" y="700"/>
      <point x="407" y="731" type="curve"/>
    </contour>
  </outline>
</glyph>
<glyph name="Hcircumflex" format="2">
  <advance width="833"/>
  <unicode hex="0124"/>
  <outline>
    <component base="H"/>
    <contour>
      <point x="548" y="940" type="line"/>
      <point x="499" y="940" type="line"/>
      <point x="346" y="774" type="line"/>
      <point x="381" y="774" type="line"/>
      <point x="518" y="875" type="line"/>
      <point x="604" y="774" type="line"/>
      <point x="640" y="774" type="line"/>
    </contour>
  </outline>
</glyph>
<glyph name="hbar" format="2">
  <advance width="611"/>
  <unicode hex="0127"/>
  <outline>
    <contour>
      <point x="305" y="737" type="line"/>
      <point x="106" y="722" type="line"/>
      <point x="102" y="686" type="line"/>
      <point x="133" y="686" type="line" smooth="yes"/>
      <point x="174" y="686"/>
      <point x="190" y="677"/>
      <point x="190" y="655" type="curve" smooth="yes"/>
      <point x="190" y="648"/>
      <point x="189" y="644"/>
      <point x="186" y="631" type="curve"/>
      <point x="118" y="631" type="line"/>
      <point x="96" y="548" type="line"/>
      <point x="162" y="548" type="line"/>
      <point x="0" y="0" type="line"/>
      <point x="87" y="0" type="line"/>
      <point x="128" y="139" type="line" smooth="yes"/>
      <point x="154" y="227"/>
      <point x="166" y="255"/>
      <point x="202" y="307" type="curve" smooth="yes"/>
      <point x="248" y="374"/>
      <point x="298" y="410"/>
      <point x="345" y="410" type="curve" smooth="yes"/>
      <point x="372" y="410"/>
      <point x="389" y="393"/>
      <point x="389" y="368" type="curve" smooth="yes"/>
      <point x="389" y="351"/>
      <point x="385" y="332"/>
      <point x="374" y="299" type="curve" smooth="yes"/>
      <point x="321" y="143" type="line" smooth="yes"/>
      <point x="308" y="103"/>
      <point x="303" y="81"/>
      <point x="303" y="60" type="curve" smooth="yes"/>
      <point x="303" y="17"/>
      <point x="333" y="-15"/>
      <point x="373" y="-15" type="curve" smooth="yes"/>
      <point x="435" y="-15"/>
      <point x="501" y="39"/>
      <point x="555" y="133" type="curve"/>
      <point x="526" y="154" type="line"/>
      <point x="474" y="74"/>
      <point x="434" y="36"/>
      <point x="403" y="36" type="curve" smooth="yes"/>
      <point x="393" y="36"/>
      <point x="385" y="44"/>
      <point x="385" y="55" type="curve" smooth="yes"/>
      <point x="385" y="66"/>
      <point x="388" y="76"/>
      <point x="404" y="122" type="curve" smooth="yes"/>
      <point x="451" y="260" type="line" smooth="yes"/>
      <point x="467" y="305"/>
      <point x="475" y="344"/>
      <point x="475" y="373" type="curve" smooth="yes"/>
      <point x="475" y="428"/>
      <point x="432" y="470"/>
      <point x="374" y="470" type="curve" smooth="yes"/>
      <point x="312" y="470"/>
      <point x="254" y="428"/>
      <point x="186" y="335" type="curve"/>
      <point x="249" y="548" type="line"/>
      <point x="395" y="548" type="line"/>
      <point x="417" y="631" type="line"/>
      <point x="274" y="631" type="line"/>
    </contour>
  </outline>
</glyph>
<glyph name="Itilde" format="2">
  <advance width="407"/>
  <unicode hex="0128"/>
  <outline>
    <contour>
      <point x="283" y="47" type="line"/>
      <point x="261" y="47" type="line" smooth="yes"/>
      <point x="195" y="47"/>
      <point x="181" y="52"/>
      <point x="181" y="75" type="curve" smooth="yes"/>
      <point x="181" y="84"/>
      <point x="182" y="87"/>
      <point x="191" y="123" type="curve" smooth="yes"/>
      <point x="319" y="599" type="line" smooth="yes"/>
      <point x="333" y="651"/>
      <point x="333" y="652"/>
      <point x="342" y="661" type="curve" smooth="yes"/>
      <point x="354" y="672"/>
      <point x="367" y="674"/>
      <point x="426" y="675" type="curve"/>
      <point x="431" y="722" type="line"/>
      <point x="121" y="722" type="line"/>
      <point x="115" y="675" type="line"/>
      <point x="137" y="675" type="line" smooth="yes"/>
      <point x="203" y="675"/>
      <point x="217" y="670"/>
      <point x="217" y="648" type="curve" smooth="yes"/>
      <point x="217" y="640"/>
      <point x="215" y="628"/>
      <point x="207" y="599" type="curve" smooth="yes"/>
      <point x="79" y="123" type="line" smooth="yes"/>
      <point x="66" y="73"/>
      <point x="65" y="70"/>
      <point x="56" y="61" type="curve" smooth="yes"/>
      <point x="44" y="50"/>
      <point x="31" y="48"/>
      <point x="-28" y="47" type="curve"/>
      <point x="-33" y="0" type="line"/>
      <point x="277" y="0" type="line"/>
    </contour>
    <contour>
      <point x="421" y="917" type="line"/>
      <point x="410" y="888"/>
      <point x="395" y="875"/>
      <point x="373" y="875" type="curve" smooth="yes"/>
      <point x="359" y="875"/>
      <point x="349" y="877"/>
      <point x="314" y="890" type="curve" smooth="yes"/>
      <point x="255" y="910"/>
      <point x="232" y="916"/>
      <point x="213" y="916" type="curve" smooth="yes"/>
      <point x="169" y="916"/>
      <point x="135" y="877"/>
      <point x="124" y="812" type="curve"/>
      <point x="154" y="812" type="line"/>
      <point x="162" y="842"/>
      <point x="177" y="856"/>
      <point x="198" y="856" type="curve" smooth="yes"/>
      <point x="213" y="856"/>
      <point x="228" y="852"/>
      <point x="272" y="836" type="curve" smooth="yes"/>
      <point x="325" y="816"/>
      <point x="337" y="813"/>
      <point x="359" y="813" type="curve" smooth="yes"/>
      <point x="403" y="813"/>
      <point x="446" y="861"/>
      <point x="452" y="917" type="curve"/>
    </contour>
  </outline>
</glyph>
<glyph name="itilde" format="2">
  <advance width="333"/>
  <unicode hex="0129"/>
  <outline>
    <component base="dotlessi"/>
    <contour>
      <point x="312" y="650" type="line"/>
      <point x="300" y="620"/>
      <point x="285" y="608"/>
      <point x="263" y="608" type="curve" smooth="yes"/>
      <point x="249" y="608"/>
      <point x="240" y="610"/>
      <point x="204" y="623" type="curve" smooth="yes"/>
      <point x="147" y="642"/>
      <point x="121" y="649"/>
      <point x="104" y="649" type="curve" smooth="yes"/>
      <point x="59" y="649"/>
      <point x="26" y="610"/>
      <point x="14" y="544" type="curve"/>
      <point x="44" y="544" type="line"/>
      <point x="52" y="574"/>
      <point x="67" y="589"/>
      <point x="89" y="589" type="curve" smooth="yes"/>
      <point x="103" y="589"/>
      <point x="119" y="584"/>
      <point x="163" y="568" type="curve" smooth="yes"/>
      <point x="216" y="548"/>
      <point x="227" y="545"/>
      <point x="249" y="545" type="curve" smooth="yes"/>
      <point x="293" y="545"/>
      <point x="335" y="592"/>
      <point x="342" y="650" type="curve"/>
    </contour>
  </outline>
</glyph>
<glyph name="Imacron" format="2">
  <advance width="407"/>
  <unicode hex="012A"/>
  <outline>
    <component base="I"/>
    <contour>
      <point x="164" y="877" type="line"/>
      <point x="153" y="823" type="line"/>
      <point x="454" y="823" type="line"/>
      <point x="465" y="877" type="line"/>
    </contour>
  </outline>
</glyph>
<glyph name="imacron" format="2">
  <advance width="333"/>
  <unicode hex="012B"/>
  <outline>
    <component base="dotlessi"/>
    <contour>
      <point x="62" y="610" type="line"/>
      <point x="51" y="559" type="line"/>
      <point x="352" y="559" type="line"/>
      <point x="363" y="610" type="line"/>
    </contour>
  </outline>
</glyph>
<glyph name="Ibreve" format="2">
  <advance width="407"/>
  <unicode hex="012C"/>
  <outline>
    <component base="I"/>
    <contour>
      <point x="175" y="935" type="line"/>
      <point x="174" y="926"/>
      <point x="173" y="917"/>
      <point x="173" y="914" type="curve" smooth="yes"/>
      <point x="173" y="829"/>
      <point x="226" y="774"/>
      <point x="307" y="774" type="curve" smooth="yes"/>
      <point x="391" y="774"/>
      <point x="457" y="837"/>
      <point x="475" y="935" type="curve"/>
      <point x="444" y="935" type="line"/>
      <point x="419" y="872"/>
      <point x="371" y="837"/>
      <point x="311" y="837" type="curve" smooth="yes"/>
      <point x="248" y="837"/>
      <point x="207" y="874"/>
      <point x="204" y="935" type="curve"/>
    </contour>
  </outline>
</glyph>
<glyph name="ibreve" format="2">
  <advance width="333"/>
  <unicode hex="012D"/>
  <outline>
    <component base="dotlessi"/>
    <contour>
      <point x="27" y="677" type="line"/>
      <point x="26" y="667"/>
      <point x="26" y="658"/>
      <point x="26" y="653" type="curve" smooth="yes"/>
      <point x="26" y="573"/>
      <point x="81" y="518"/>
      <point x="160" y="518" type="curve" smooth="yes"/>
      <point x="244" y="518"/>
      <point x="309" y="580"/>
      <point x="327" y="677" type="curve"/>
      <point x="296" y="677" type="line"/>
      <point x="271" y="615"/>
      <point x="224" y="581"/>
      <point x="164" y="581" type="curve" smooth="yes"/>
      <point x="100" y="581"/>
      <point x="60" y="617"/>
      <point x="57" y="677" type="curve"/>
    </contour>
  </outline>
</glyph>
<glyph name="iogonek" format="2">
  <advance width="333"/>
  <unicode hex="012F"/>
  <outline>
    <contour>
      <point x="251" y="157" type="line"/>
      <point x="200" y="78"/>
      <point x="157" y="35"/>
      <point x="130" y="35" type="curve" smooth="yes"/>
      <point x="120" y="35"/>
      <point x="113" y="44"/>
      <point x="113" y="56" type="curve" smooth="yes"/>
      <point x="113" y="67"/>
      <point x="117" y="86"/>
      <point x="125" y="113" type="curve" smooth="yes"/>
      <point x="231" y="470" type="line"/>
      <point x="39" y="455" type="line"/>
      <point x="35" y="419" type="line"/>
      <point x="59" y="419" type="line" smooth="yes"/>
      <point x="100" y="419"/>
      <point x="116" y="410"/>
      <point x="116" y="388" type="curve" smooth="yes"/>
      <point x="116" y="378"/>
      <point x="114" y="367"/>
      <point x="107" y="344" type="curve" smooth="yes"/>
      <point x="49" y="149" type="line" smooth="yes"/>
      <point x="30" y="84"/>
      <point x="27" y="71"/>
      <point x="27" y="48" type="curve" smooth="yes"/>
      <point x="27" y="13"/>
      <point x="57" y="-14"/>
      <point x="96" y="-14" type="curve" smooth="yes"/>
      <point x="103" y="-14"/>
      <point x="108" y="-14"/>
      <point x="119" y="-12" type="curve"/>
      <point x="91" y="-38"/>
      <point x="81" y="-59"/>
      <point x="81" y="-88" type="curve" smooth="yes"/>
      <point x="81" y="-128"/>
      <point x="110" y="-155"/>
      <point x="151" y="-155" type="curve" smooth="yes"/>
      <point x="188" y="-155"/>
      <point x="218" y="-139"/>
      <point x="258" y="-99" type="curve"/>
      <point x="242" y="-77" type="line"/>
      <point x="214" y="-103"/>
      <point x="192" y="-114"/>
      <point x="171" y="-114" type="curve" smooth="yes"/>
      <point x="149" y="-114"/>
      <point x="130" y="-95"/>
      <point x="130" y="-75" type="curve" smooth="yes"/>
      <point x="130" y="-60"/>
      <point x="135" y="-45"/>
      <point x="147" y="-27" type="curve"/>
      <point x="154" y="-15"/>
      <point x="154" y="-15"/>
      <point x="204" y="38" type="curve" smooth="yes"/>
      <point x="233" y="69"/>
      <point x="248" y="88"/>
      <point x="282" y="140" type="curve"/>
    </contour>
    <contour>
      <point x="213" y="714" type="curve" smooth="yes"/>
      <point x="183" y="714"/>
      <point x="159" y="690"/>
      <point x="159" y="660" type="curve" smooth="yes"/>
      <point x="159" y="631"/>
      <point x="183" y="606"/>
      <point x="212" y="606" type="curve" smooth="yes"/>
      <point x="243" y="606"/>
      <point x="267" y="630"/>
      <point x="267" y="660" type="curve" smooth="yes"/>
      <point x="267" y="690"/>
      <point x="243" y="714"/>
    </contour>
  </outline>
</glyph>
<glyph name="Idotaccent" format="2">
  <advance width="407"/>
  <unicode hex="0130"/>
  <outline>
    <component base="I"/>
    <contour>
      <point x="311" y="910" type="curve" smooth="yes"/>
      <point x="284" y="910"/>
      <point x="262" y="888"/>
      <point x="262" y="861" type="curve" smooth="yes"/>
      <point x="262" y="834"/>
      <point x="284" y="812"/>
      <point x="310" y="812" type="curve" smooth="yes"/>
      <point x="338" y="812"/>
      <point x="360" y="834"/>
      <point x="360" y="861" type="curve" smooth="yes"/>
      <point x="360" y="888"/>
      <point x="338" y="910"/>
    </contour>
  </outline>
</glyph>
<glyph name="IJ" format="2">
  <advance width="1018"/>
  <unicode hex="0132"/>
  <outline>
    <contour>
      <point x="283" y="47" type="line"/>
      <point x="261" y="47" type="line" smooth="yes"/>
      <point x="195" y="47"/>
      <point x="181" y="52"/>
      <point x="181" y="75" type="curve" smooth="yes"/>
      <point x="181" y="84"/>
      <point x="182" y="87"/>
      <point x="191" y="123" type="curve" smooth="yes"/>
      <point x="319" y="599" type="line" smooth="yes"/>
      <point x="333" y="651"/>
      <point x="333" y="652"/>
      <point x="342" y="661" type="curve" smooth="yes"/>
      <point x="354" y="672"/>
      <point x="367" y="674"/>
      <point x="426" y="675" type="curve"/>
      <point x="431" y="722" type="line"/>
      <point x="121" y="722" type="line"/>
      <point x="115" y="675" type="line"/>
      <point x="137" y="675" type="line" smooth="yes"/>
      <point x="203" y="675"/>
      <point x="217" y="670"/>
      <point x="217" y="648" type="curve" smooth="yes"/>
      <point x="217" y="640"/>
      <point x="215" y="628"/>
      <point x="207" y="599" type="curve" smooth="yes"/>
      <point x="79" y="123" type="line" smooth="yes"/>
      <point x="66" y="73"/>
      <point x="65" y="70"/>
      <point x="56" y="61" type="curve" smooth="yes"/>
      <point x="44" y="50"/>
      <point x="31" y="48"/>
      <point x="-28" y="47" type="curve"/>
      <point x="-33" y="0" type="line"/>
      <point x="277" y="0" type="line"/>
    </contour>
    <contour>
      <point x="733" y="675" type="line"/>
      <point x="763" y="675" type="line" smooth="yes"/>
      <point x="828" y="675"/>
      <point x="842" y="670"/>
      <point x="842" y="648" type="curve" smooth="yes"/>
      <point x="842" y="640"/>
      <point x="839" y="624"/>
      <point x="832" y="599" type="curve" smooth="yes"/>
      <point x="730" y="219" type="line" smooth="yes"/>
      <point x="693" y="80"/>
      <point x="648" y="28"/>
      <point x="564" y="28" type="curve" smooth="yes"/>
      <point x="495" y="28"/>
      <point x="442" y="73"/>
      <point x="442" y="132" type="curve" smooth="yes"/>
      <point x="442" y="150"/>
      <point x="453" y="164"/>
      <point x="468" y="164" type="curve" smooth="yes"/>
      <point x="473" y="164"/>
      <point x="478" y="163"/>
      <point x="482" y="161" type="curve"/>
      <point x="502" y="149"/>
      <point x="509" y="147"/>
      <point x="528" y="147" type="curve" smooth="yes"/>
      <point x="567" y="147"/>
      <point x="594" y="175"/>
      <point x="594" y="217" type="curve" smooth="yes"/>
      <point x="594" y="259"/>
      <point x="562" y="288"/>
      <point x="515" y="288" type="curve" smooth="yes"/>
      <point x="447" y="288"/>
      <point x="394" y="224"/>
      <point x="394" y="143" type="curve" smooth="yes"/>
      <point x="394" y="43"/>
      <point x="464" y="-15"/>
      <point x="585" y="-15" type="curve" smooth="yes"/>
      <point x="719" y="-15"/>
      <point x="797" y="50"/>
      <point x="835" y="192" type="curve" smooth="yes"/>
      <point x="944" y="599" type="line" smooth="yes"/>
      <point x="958" y="651"/>
      <point x="958" y="652"/>
      <point x="967" y="661" type="curve"/>
      <point x="975" y="670"/>
      <point x="996" y="674"/>
      <point x="1044" y="675" type="curve" smooth="yes"/>
      <point x="1048" y="675" type="line"/>
      <point x="1053" y="722" type="line"/>
      <point x="739" y="722" type="line"/>
    </contour>
  </outline>
</glyph>
<glyph name="ij" format="2">
  <advance width="599"/>
  <unicode hex="0133"/>
  <outline>
    <contour>
      <point x="232" y="470" type="line"/>
      <point x="40" y="455" type="line"/>
      <point x="36" y="419" type="line"/>
      <point x="60" y="419" type="line" smooth="yes"/>
      <point x="101" y="419"/>
      <point x="117" y="410"/>
      <point x="117" y="388" type="curve" smooth="yes"/>
      <point x="117" y="378"/>
      <point x="115" y="367"/>
      <point x="108" y="344" type="curve" smooth="yes"/>
      <point x="50" y="149" type="line" smooth="yes"/>
      <point x="31" y="85"/>
      <point x="28" y="71"/>
      <point x="28" y="48" type="curve" smooth="yes"/>
      <point x="28" y="13"/>
      <point x="58" y="-14"/>
      <point x="96" y="-14" type="curve" smooth="yes"/>
      <point x="140" y="-14"/>
      <point x="181" y="9"/>
      <point x="221" y="55" type="curve" smooth="yes"/>
      <point x="239" y="75"/>
      <point x="255" y="97"/>
      <point x="283" y="140" type="curve"/>
      <point x="252" y="157" type="line"/>
      <point x="200" y="78"/>
      <point x="158" y="36"/>
      <point x="131" y="36" type="curve" smooth="yes"/>
      <point x="121" y="36"/>
      <point x="114" y="45"/>
      <point x="114" y="57" type="curve" smooth="yes"/>
      <point x="114" y="67"/>
      <point x="118" y="85"/>
      <point x="126" y="113" type="curve" smooth="yes"/>
    </contour>
    <contour>
      <point x="214" y="714" type="curve" smooth="yes"/>
      <point x="184" y="714"/>
      <point x="160" y="690"/>
      <point x="160" y="660" type="curve" smooth="yes"/>
      <point x="160" y="631"/>
      <point x="184" y="606"/>
      <point x="213" y="606" type="curve" smooth="yes"/>
      <point x="244" y="606"/>
      <point x="268" y="630"/>
      <point x="268" y="660" type="curve" smooth="yes"/>
      <point x="268" y="690"/>
      <point x="244" y="714"/>
    </contour>
    <contour>
      <point x="613" y="470" type="line"/>
      <point x="410" y="455" type="line"/>
      <point x="406" y="419" type="line"/>
      <point x="441" y="419" type="line" smooth="yes"/>
      <point x="482" y="419"/>
      <point x="498" y="410"/>
      <point x="498" y="387" type="curve" smooth="yes"/>
      <point x="498" y="378"/>
      <point x="496" y="368"/>
      <point x="489" y="344" type="curve" smooth="yes"/>
      <point x="413" y="87" type="line" smooth="yes"/>
      <point x="407" y="67"/>
      <point x="398" y="36"/>
      <point x="388" y="-5" type="curve" smooth="yes"/>
      <point x="377" y="-47"/>
      <point x="364" y="-84"/>
      <point x="349" y="-113" type="curve" smooth="yes"/>
      <point x="333" y="-144"/>
      <point x="304" y="-168"/>
      <point x="280" y="-168" type="curve" smooth="yes"/>
      <point x="269" y="-168"/>
      <point x="259" y="-160"/>
      <point x="259" y="-150" type="curve" smooth="yes"/>
      <point x="259" y="-146"/>
      <point x="261" y="-141"/>
      <point x="264" y="-136" type="curve"/>
      <point x="271" y="-122"/>
      <point x="272" y="-119"/>
      <point x="272" y="-109" type="curve" smooth="yes"/>
      <point x="272" y="-81"/>
      <point x="252" y="-62"/>
      <point x="224" y="-62" type="curve" smooth="yes"/>
      <point x="191" y="-62"/>
      <point x="168" y="-86"/>
      <point x="168" y="-122" type="curve" smooth="yes"/>
      <point x="168" y="-171"/>
      <point x="208" y="-202"/>
      <point x="270" y="-202" type="curve" smooth="yes"/>
      <point x="324" y="-202"/>
      <point x="374" y="-177"/>
      <point x="413" y="-132" type="curve" smooth="yes"/>
      <point x="443" y="-95"/>
      <point x="451" y="-76"/>
      <point x="494" y="70" type="curve" smooth="yes"/>
    </contour>
    <contour>
      <point x="597" y="714" type="curve" smooth="yes"/>
      <point x="567" y="714"/>
      <point x="543" y="690"/>
      <point x="543" y="660" type="curve" smooth="yes"/>
      <point x="543" y="631"/>
      <point x="567" y="606"/>
      <point x="596" y="606" type="curve" smooth="yes"/>
      <point x="627" y="606"/>
      <point x="651" y="630"/>
      <point x="651" y="660" type="curve" smooth="yes"/>
      <point x="651" y="690"/>
      <point x="627" y="714"/>
    </contour>
  </outline>
</glyph>
<glyph name="Jcircumflex" format="2">
  <advance width="611"/>
  <unicode hex="0134"/>
  <outline>
    <component base="J"/>
    <contour>
      <point x="549" y="940" type="line"/>
      <point x="499" y="940" type="line"/>
      <point x="346" y="774" type="line"/>
      <point x="381" y="774" type="line"/>
      <point x="518" y="875" type="line"/>
      <point x="604" y="774" type="line"/>
      <point x="640" y="774" type="line"/>
    </contour>
  </outline>
</glyph>
<glyph name="jcircumflex" format="2">
  <advance width="315"/>
  <unicode hex="0135"/>
  <outline>
    <component base="dotlessj"/>
    <contour>
      <point x="260" y="688" type="line"/>
      <point x="210" y="688" type="line"/>
      <point x="57" y="519" type="line"/>
      <point x="93" y="519" type="line"/>
      <point x="229" y="623" type="line"/>
      <point x="315" y="519" type="line"/>
      <point x="351" y="519" type="line"/>
    </contour>
  </outline>
</glyph>
<glyph name="Kcommaaccent" format="2">
  <advance width="741"/>
  <unicode hex="0136"/>
  <outline>
    <component base="K"/>
    <contour>
      <point x="193" y="-288" type="line"/>
      <point x="290" y="-251"/>
      <point x="353" y="-181"/>
      <point x="353" y="-112" type="curve" smooth="yes"/>
      <point x="353" y="-70"/>
      <point x="327" y="-40"/>
      <point x="290" y="-40" type="curve" smooth="yes"/>
      <point x="256" y="-40"/>
      <point x="230" y="-64"/>
      <point x="230" y="-96" type="curve" smooth="yes"/>
      <point x="230" y="-125"/>
      <point x="250" y="-143"/>
      <point x="280" y="-143" type="curve" smooth="yes"/>
      <point x="295" y="-143" type="line"/>
      <point x="288" y="-188"/>
      <point x="248" y="-230"/>
      <point x="181" y="-260" type="curve"/>
    </contour>
  </outline>
</glyph>
<glyph name="kcommaaccent" format="2">
  <advance width="556"/>
  <unicode hex="0137"/>
  <outline>
    <component base="k"/>
    <contour>
      <point x="50" y="-288" type="line"/>
      <point x="146" y="-251"/>
      <point x="209" y="-181"/>
      <point x="209" y="-112" type="curve" smooth="yes"/>
      <point x="209" y="-70"/>
      <point x="183" y="-40"/>
      <point x="146" y="-40" type="curve" smooth="yes"/>
      <point x="112" y="-40"/>
      <point x="86" y="-64"/>
      <point x="86" y="-96" type="curve" smooth="yes"/>
      <point x="86" y="-125"/>
      <point x="106" y="-143"/>
      <point x="137" y="-143" type="curve" smooth="yes"/>
      <point x="152" y="-143" type="line"/>
      <point x="144" y="-188"/>
      <point x="104" y="-230"/>
      <point x="37" y="-260" type="curve"/>
    </contour>
  </outline>
</glyph>
<glyph name="kgreenlandic" format="2">
  <advance width="610"/>
  <unicode hex="0138"/>
  <outline>
    <contour>
      <point x="243" y="163" type="line"/>
      <point x="319" y="221" type="line"/>
      <point x="386" y="71" type="line" smooth="yes"/>
      <point x="388" y="66"/>
      <point x="389" y="61"/>
      <point x="389" y="58" type="curve" smooth="yes"/>
      <point x="389" y="42"/>
      <point x="375" y="36"/>
      <point x="340" y="36" type="curve" smooth="yes"/>
      <point x="321" y="36" type="line"/>
      <point x="311" y="0" type="line"/>
      <point x="575" y="0" type="line"/>
      <point x="585" y="36" type="line"/>
      <point x="531" y="41"/>
      <point x="513" y="53"/>
      <point x="487" y="105" type="curve" smooth="yes"/>
      <point x="403" y="283" type="line"/>
      <point x="426" y="299" type="line"/>
      <point x="483" y="343" type="line" smooth="yes"/>
      <point x="564" y="403"/>
      <point x="602" y="421"/>
      <point x="675" y="430" type="curve"/>
      <point x="685" y="466" type="line"/>
      <point x="434" y="466" type="line"/>
      <point x="424" y="430" type="line"/>
      <point x="443" y="430" type="line" smooth="yes"/>
      <point x="472" y="430"/>
      <point x="485" y="425"/>
      <point x="485" y="414" type="curve" smooth="yes"/>
      <point x="485" y="404"/>
      <point x="474" y="390"/>
      <point x="451" y="373" type="curve" smooth="yes"/>
      <point x="259" y="225" type="line"/>
      <point x="291" y="343" type="line"/>
      <point x="304" y="390" type="line" smooth="yes"/>
      <point x="308" y="404"/>
      <point x="311" y="410"/>
      <point x="317" y="416" type="curve"/>
      <point x="329" y="426"/>
      <point x="340" y="428"/>
      <point x="394" y="430" type="curve"/>
      <point x="404" y="466" type="line"/>
      <point x="151" y="466" type="line"/>
      <point x="141" y="430" type="line"/>
      <point x="203" y="427"/>
      <point x="212" y="424"/>
      <point x="212" y="407" type="curve" smooth="yes"/>
      <point x="212" y="400"/>
      <point x="212" y="400"/>
      <point x="197" y="343" type="curve" smooth="yes"/>
      <point x="138" y="123" type="line"/>
      <point x="132" y="99" type="line"/>
      <point x="125" y="76" type="line" smooth="yes"/>
      <point x="121" y="61"/>
      <point x="118" y="56"/>
      <point x="112" y="50" type="curve"/>
      <point x="104" y="41"/>
      <point x="82" y="37"/>
      <point x="40" y="36" type="curve" smooth="yes"/>
      <point x="36" y="36" type="line"/>
      <point x="26" y="0" type="line"/>
      <point x="279" y="0" type="line"/>
      <point x="289" y="36" type="line"/>
      <point x="285" y="36" type="line" smooth="yes"/>
      <point x="234" y="36"/>
      <point x="217" y="42"/>
      <point x="217" y="59" type="curve" smooth="yes"/>
      <point x="217" y="66"/>
      <point x="217" y="66"/>
      <point x="232" y="123" type="curve" smooth="yes"/>
    </contour>
  </outline>
</glyph>
<glyph name="lacute" format="2">
  <advance width="333"/>
  <unicode hex="013A"/>
  <outline>
    <component base="l"/>
    <contour>
      <point x="148" y="774" type="line"/>
      <point x="187" y="774" type="line"/>
      <point x="346" y="874" type="line" smooth="yes"/>
      <point x="361" y="884"/>
      <point x="371" y="898"/>
      <point x="371" y="913" type="curve" smooth="yes"/>
      <point x="371" y="932"/>
      <point x="356" y="947"/>
      <point x="336" y="947" type="curve" smooth="yes"/>
      <point x="321" y="947"/>
      <point x="308" y="939"/>
      <point x="286" y="917" type="curve" smooth="yes"/>
    </contour>
  </outline>
</glyph>
<glyph name="Lcommaaccent" format="2">
  <advance width="667"/>
  <unicode hex="013B"/>
  <outline>
    <contour>
      <point x="589" y="253" type="line"/>
      <point x="506" y="96"/>
      <point x="438" y="49"/>
      <point x="295" y="47" type="curve" smooth="yes"/>
      <point x="253" y="47" type="line" smooth="yes"/>
      <point x="201" y="47"/>
      <point x="183" y="55"/>
      <point x="183" y="79" type="curve" smooth="yes"/>
      <point x="183" y="92"/>
      <point x="184" y="97"/>
      <point x="194" y="134" type="curve" smooth="yes"/>
      <point x="319" y="599" type="line" smooth="yes"/>
      <point x="332" y="650"/>
      <point x="333" y="652"/>
      <point x="342" y="661" type="curve"/>
      <point x="351" y="671"/>
      <point x="372" y="674"/>
      <point x="425" y="675" type="curve" smooth="yes"/>
      <point x="447" y="675" type="line"/>
      <point x="453" y="722" type="line"/>
      <point x="117" y="722" type="line"/>
      <point x="111" y="675" type="line"/>
      <point x="137" y="675" type="line" smooth="yes"/>
      <point x="202" y="675"/>
      <point x="216" y="670"/>
      <point x="216" y="648" type="curve" smooth="yes"/>
      <point x="216" y="640"/>
      <point x="212" y="620"/>
      <point x="207" y="599" type="curve" smooth="yes"/>
      <point x="79" y="123" type="line" smooth="yes"/>
      <point x="66" y="74"/>
      <point x="65" y="70"/>
      <point x="56" y="61" type="curve" smooth="yes"/>
      <point x="46" y="51"/>
      <point x="25" y="47"/>
      <point x="-27" y="47" type="curve" smooth="yes"/>
      <point x="-32" y="47" type="line"/>
      <point x="-37" y="0" type="line"/>
      <point x="552" y="0" type="line"/>
      <point x="630" y="245" type="line"/>
    </contour>
    <contour>
      <point x="116" y="-288" type="line"/>
      <point x="213" y="-251"/>
      <point x="276" y="-181"/>
      <point x="276" y="-112" type="curve" smooth="yes"/>
      <point x="276" y="-70"/>
      <point x="250" y="-40"/>
      <point x="213" y="-40" type="curve" smooth="yes"/>
      <point x="179" y="-40"/>
      <point x="153" y="-64"/>
      <point x="153" y="-96" type="curve" smooth="yes"/>
      <point x="153" y="-125"/>
      <point x="173" y="-143"/>
      <point x="203" y="-143" type="curve" smooth="yes"/>
      <point x="218" y="-143" type="line"/>
      <point x="211" y="-188"/>
      <point x="171" y="-230"/>
      <point x="104" y="-260" type="curve"/>
    </contour>
  </outline>
</glyph>
<glyph name="lcommaaccent" format="2">
  <advance width="333"/>
  <unicode hex="013C"/>
  <outline>
    <component base="l"/>
    <contour>
      <point x="-22" y="-288" type="line"/>
      <point x="75" y="-251"/>
      <point x="138" y="-181"/>
      <point x="138" y="-112" type="curve" smooth="yes"/>
      <point x="138" y="-70"/>
      <point x="112" y="-40"/>
      <point x="75" y="-40" type="curve" smooth="yes"/>
      <point x="41" y="-40"/>
      <point x="15" y="-64"/>
      <point x="15" y="-96" type="curve" smooth="yes"/>
      <point x="15" y="-125"/>
      <point x="34" y="-143"/>
      <point x="65" y="-143" type="curve" smooth="yes"/>
      <point x="80" y="-143" type="line"/>
      <point x="73" y="-188"/>
      <point x="33" y="-230"/>
      <point x="-34" y="-260" type="curve"/>
    </contour>
  </outline>
</glyph>
<glyph name="Lcaron" format="2">
  <advance width="667"/>
  <unicode hex="013D"/>
  <outline>
    <component base="L"/>
    <contour>
      <point x="547" y="489" type="line"/>
      <point x="644" y="526"/>
      <point x="707" y="596"/>
      <point x="707" y="665" type="curve" smooth="yes"/>
      <point x="707" y="707"/>
      <point x="681" y="737"/>
      <point x="644" y="737" type="curve" smooth="yes"/>
      <point x="610" y="737"/>
      <point x="584" y="713"/>
      <point x="584" y="681" type="curve" smooth="yes"/>
      <point x="584" y="652"/>
      <point x="603" y="634"/>
      <point x="634" y="634" type="curve" smooth="yes"/>
      <point x="649" y="634" type="line"/>
      <point x="641" y="588"/>
      <point x="602" y="548"/>
      <point x="535" y="517" type="curve"/>
    </contour>
  </outline>
</glyph>
